<svg width="84" height="69" viewBox="0 0 84 69" fill="none" xmlns="http://www.w3.org/2000/svg">
<path d="M12.0137 0.961475C12.3354 0.791803 12.9218 0.527869 13.3381 0.339344C13.811 0.131967 14.6245 0.0188525 15.5137 0C16.3083 0 17.3867 0.131967 17.9732 0.301639C18.5408 0.471311 19.5624 0.886066 20.2435 1.22541C20.9245 1.56475 22.1543 2.35656 22.9867 2.97869C23.8191 3.60082 25.2191 4.82623 26.0894 5.69344C26.9597 6.5418 28.1894 7.88033 28.8327 8.63443C29.5327 9.48279 29.911 10.0861 29.7975 10.1615C29.684 10.2557 28.7948 10.5574 27.811 10.8213C26.8273 11.1041 25.2002 11.632 24.2164 12.009C23.2327 12.3672 21.53 13.1213 20.4327 13.6869C19.3354 14.2336 17.784 15.1385 16.9894 15.6852C16.1948 16.232 15.0029 17.1557 14.3408 17.7213C13.6786 18.2869 12.5624 19.3992 11.8435 20.1721C11.1245 20.9451 10.0651 22.3213 9.4786 23.2074C8.89212 24.1123 8.32455 24.9984 8.21104 25.1869C8.0786 25.3943 7.92725 25.5074 7.87049 25.4508C7.79482 25.3943 7.66239 24.9418 7.54887 24.4139C7.45428 23.9049 7.24617 22.4156 7.09482 21.1148C6.94347 19.8139 6.81104 17.2877 6.81104 15.5156C6.81104 13.7246 6.90563 11.5943 7.01914 10.8025C7.13266 9.9918 7.3786 8.65328 7.58671 7.82377C7.79482 6.99426 8.26779 5.69344 8.62725 4.9582C9.00563 4.12869 9.70563 3.12951 10.3489 2.43197C10.9543 1.79098 11.6921 1.13115 12.0137 0.961475Z" fill="white"/>
<path d="M63.6622 1.26328C64.2865 0.942792 65.2703 0.528037 65.8378 0.339513C66.5946 0.0944308 67.3324 0.019021 68.5811 0.0567259C70.0378 0.0944308 70.4541 0.188693 71.4 0.660005C72.0811 0.999349 72.9513 1.67804 73.6135 2.41328C74.2946 3.12968 74.9757 4.11 75.373 4.95837C75.7324 5.69361 76.2054 6.99443 76.4135 7.82394C76.6216 8.65345 76.8676 9.99197 76.9811 10.8026C77.0946 11.5944 77.1892 13.7248 77.1892 15.5157C77.1892 17.2879 77.0568 19.8141 76.9054 21.1149C76.7541 22.4157 76.5459 23.9051 76.4513 24.4141C76.3378 24.942 76.2054 25.3944 76.1297 25.451C76.073 25.5075 75.9216 25.3944 75.7892 25.1871C75.6757 24.9985 75.0703 24.0748 74.4649 23.1133C73.727 21.9821 72.573 20.6248 71.0595 19.1166C69.527 17.6084 68.1459 16.4207 66.8784 15.5912C65.8378 14.9125 63.927 13.8379 62.6216 13.2346C61.3162 12.6125 59.1973 11.7641 57.8919 11.3493C56.5865 10.9346 55.2432 10.5387 54.9216 10.4821C54.5811 10.4256 54.2595 10.2748 54.2027 10.1805C54.1459 10.0862 54.6378 9.33214 55.2811 8.54033C55.9432 7.74853 57.1162 6.44771 57.8919 5.65591C58.6865 4.88296 60.0486 3.69525 60.9189 3.03541C61.8081 2.37558 63.0378 1.58378 63.6622 1.26328Z" fill="white"/>
<path fill-rule="evenodd" clip-rule="evenodd" d="M42.9459 10.2746C45.4054 10.3123 47.7892 10.4631 49 10.6516C50.0973 10.8213 51.9703 11.1606 53.1622 11.4246C54.3541 11.6885 56.4541 12.2729 57.7973 12.7065C59.1405 13.159 61.1838 13.9696 62.3378 14.5352C63.4919 15.0819 65.1378 16.0246 66.027 16.609C66.9162 17.2123 68.1838 18.1549 68.8649 18.7393C69.546 19.3049 70.6243 20.3983 71.2865 21.1524C71.9486 21.9065 72.8568 23.0754 73.2919 23.7541C73.7459 24.4328 74.5027 25.7524 74.9568 26.6762C75.4297 27.6 76.0919 29.1836 76.4135 30.1639C76.7351 31.1442 77.1703 32.7278 77.3595 33.6516C77.5676 34.5754 77.8324 36.2344 77.9649 37.3278C78.0973 38.5156 78.1541 40.9852 78.0405 47.6967H80.6324C82.9973 47.6967 83.2811 47.7344 83.6216 48.0737C83.8297 48.2811 84 48.6393 84 48.8656C84 49.1106 83.8865 49.4688 83.7351 49.6762C83.4892 50.0156 83.1865 50.0533 77.4919 50.2418L77.3027 51.2221C77.1324 52.0705 77.1324 52.2213 77.3784 52.2967C77.5297 52.3344 78.3054 52.5229 79.0811 52.6926C79.8568 52.8811 80.6514 53.1639 80.8405 53.3336C81.0297 53.5033 81.1811 53.8992 81.1622 54.2385C81.1622 54.6721 81.0297 54.9549 80.727 55.1623C80.3487 55.4262 80.1595 55.4262 76.3378 54.559L75.4486 56.35C74.9568 57.3492 73.973 58.8762 73.273 59.7623C72.5541 60.6483 71.2865 61.9115 70.4541 62.5901C69.6027 63.2688 67.9946 64.2869 66.8595 64.8901C65.7243 65.4746 63.9081 66.2475 62.8108 66.6057C61.7135 66.9639 60.0108 67.4352 59.027 67.6426C58.0432 67.8688 56.2459 68.1705 55.0541 68.3213C53.8622 68.491 51.6865 68.6983 50.2297 68.8115C48.773 68.9057 45.0838 69 42.0378 69C39.0108 69 35.2649 68.9057 33.7135 68.7926C32.1811 68.6983 29.7784 68.4344 28.3784 68.2459C26.9784 68.0385 24.8405 67.6238 23.6486 67.3221C22.4568 67.0205 20.7919 66.5115 19.9595 66.1721C19.127 65.8516 17.6892 65.1729 16.7622 64.7016C15.8351 64.2115 14.3973 63.2688 13.5459 62.5901C12.7135 61.9115 11.4459 60.6483 10.727 59.7623C10.027 58.8762 9.04324 57.3492 7.66216 54.559L5.86487 54.9926C4.88108 55.2377 3.95405 55.4262 3.82162 55.4262C3.70811 55.4262 3.42432 55.2565 3.21622 55.0492C3.00811 54.8418 2.83784 54.4459 2.83784 54.1442C2.81892 53.8615 2.97027 53.5033 3.15946 53.3336C3.34865 53.1639 3.97297 52.9188 4.54054 52.7869C5.10811 52.6738 5.88378 52.4852 6.90541 52.2213L6.50811 50.2418L3.51892 50.1475C0.813514 50.0533 0.510811 50.0156 0.264865 49.6762C0.113514 49.4688 0 49.1106 0 48.8656C0 48.6393 0.17027 48.2811 0.378378 48.0737C0.718919 47.7344 1.0027 47.6967 5.95946 47.6967L5.88378 43.4926C5.84595 41.0229 5.9027 38.4967 6.03514 37.3278C6.16757 36.2344 6.48919 34.368 6.75405 33.1803C7.01892 31.9926 7.49189 30.3336 7.7946 29.5041C8.0973 28.6746 8.7973 27.1475 9.32703 26.1106C9.85676 25.0737 10.8027 23.5467 11.427 22.7172C12.0514 21.8877 13.2054 20.568 14 19.7951C14.7946 19.0221 16.2514 17.8156 17.2351 17.118C18.2189 16.4205 19.9405 15.3836 21.0946 14.818C22.2486 14.2336 24.027 13.4795 25.0676 13.1024C26.1081 12.7254 27.8865 12.1787 29.0405 11.877C30.1946 11.5754 32.1054 11.1418 33.2973 10.9344C34.4892 10.727 36.2486 10.4819 37.1757 10.3877C38.1027 10.2934 40.7135 10.2369 42.9459 10.2746ZM28.7568 25.3942C28.3973 25.6016 27.8486 26.0729 27.5459 26.4123C27.2432 26.7705 26.7892 27.468 26.5432 27.9959C26.2784 28.5049 26.127 29.1082 26.1649 29.3156C26.2216 29.5229 26.4865 29.8057 26.7514 29.9188C27.0919 30.0885 27.3568 30.1074 27.6216 29.9754C27.8297 29.8623 28.1324 29.4664 28.3027 29.0705C28.4541 28.6934 28.8514 28.0901 29.1919 27.7319C29.5324 27.3926 30.0811 26.9778 30.4027 26.8459C30.7432 26.6951 31.3297 26.5819 31.6892 26.5819C32.0486 26.5819 32.6351 26.6951 32.9568 26.8459C33.2973 26.9778 33.8081 27.336 34.0919 27.6377C34.3568 27.9393 34.7919 28.5615 35.0378 29.0328C35.3973 29.7115 35.5865 29.9 36.0405 29.9377C36.4 29.9754 36.7405 29.8623 36.9487 29.6549C37.1378 29.4664 37.2892 29.2024 37.2703 29.0705C37.2703 28.9574 37.0622 28.4106 36.7973 27.9016C36.5324 27.3737 36.0784 26.6762 35.7757 26.3369C35.4919 26.0164 34.773 25.4885 34.2243 25.1869C33.4676 24.7721 32.8811 24.6213 31.973 24.5647C31.273 24.527 30.4595 24.6024 30.0811 24.7533C29.7216 24.8852 29.1162 25.168 28.7568 25.3942ZM49.473 25.2811C49.1703 25.4508 48.6216 25.9033 48.2811 26.2803C47.9595 26.6574 47.4676 27.3737 47.2027 27.9016C46.9378 28.4106 46.7297 28.9574 46.7297 29.0705C46.7108 29.2024 46.8622 29.4664 47.0514 29.6549C47.2595 29.8623 47.6 29.9754 47.9595 29.9377C48.4135 29.9 48.6027 29.7303 48.8676 29.127C49.0757 28.7123 49.4919 28.0901 49.8135 27.7319C50.1541 27.3926 50.7027 26.9778 51.0243 26.8459C51.3649 26.6951 51.9514 26.5819 52.3108 26.5819C52.6703 26.5819 53.2568 26.6951 53.5784 26.8459C53.9189 26.9778 54.4487 27.336 54.7514 27.6377C55.0351 27.9393 55.4892 28.5803 55.7351 29.0705C56.1135 29.8246 56.2838 29.9754 56.7 29.9754C57.0027 29.9942 57.3811 29.8434 57.5514 29.6549C57.7405 29.4664 57.8919 29.2024 57.8919 29.0705C57.8919 28.9574 57.6649 28.3729 57.3622 27.7885C57.0595 27.1475 56.473 26.3746 55.9054 25.8844C55.3757 25.4319 54.5811 24.9418 54.1081 24.7721C53.6351 24.6213 52.7838 24.5082 52.2162 24.527C51.6487 24.527 50.9108 24.6401 50.6081 24.7533C50.3054 24.8852 49.7757 25.1115 49.473 25.2811ZM23.2324 46.1697C23.2514 46.4524 23.6865 47.3762 24.2162 48.2623C24.7459 49.1483 25.5405 50.3172 25.9757 50.8828C26.4108 51.4483 27.2811 52.4287 27.9054 53.0697C28.5297 53.6918 29.627 54.6533 30.3649 55.2188C31.0838 55.7656 32.6162 56.6705 33.7703 57.236C34.9054 57.7828 36.5703 58.4237 37.4595 58.6688C38.8027 59.027 39.5405 59.1024 42 59.1024C44.6297 59.1024 45.1216 59.0459 46.8243 58.5746C47.8649 58.2729 49.3973 57.7074 50.2297 57.3115C51.0622 56.8967 52.3297 56.1615 53.0676 55.6524C53.8054 55.1434 54.9784 54.2008 55.6973 53.5221C56.4162 52.8623 57.4378 51.7688 57.9676 51.0901C58.4973 50.4303 59.3297 49.186 59.8405 48.3565C60.3324 47.527 60.7487 46.6787 60.7487 46.4713C60.7487 46.2639 60.5973 45.9434 60.4081 45.7738C60.2189 45.5852 59.8784 45.4344 59.6324 45.4344C59.3297 45.4344 59.0649 45.6795 58.6865 46.3016C58.4027 46.7729 57.7405 47.8098 57.2297 48.6016C56.7 49.3934 55.6027 50.7319 54.7703 51.5615C53.9378 52.4098 52.7081 53.4656 52.027 53.918C51.3459 54.3705 50.1162 55.068 49.2838 55.4451C48.4514 55.841 47.0892 56.35 46.2568 56.5762C45.0649 56.8967 44.1757 56.991 42.1892 56.991C40.373 57.0098 39.2757 56.9156 38.3486 56.6893C37.6487 56.5197 36.4189 56.1238 35.6054 55.8033C34.8108 55.5016 33.4676 54.8229 32.6351 54.2762C31.8027 53.7483 30.4973 52.6926 29.7405 51.9574C28.9649 51.2221 27.9432 50.0721 27.4324 49.3934C26.9405 48.7147 26.2595 47.659 25.9189 47.0369C25.5595 46.4147 25.1622 45.7549 24.9919 45.5664C24.8216 45.3778 24.4811 45.227 24.1973 45.2459C23.9324 45.2459 23.6108 45.3401 23.4595 45.4721C23.3081 45.6041 23.2135 45.9057 23.2324 46.1697Z" fill="white"/>
</svg>
