<svg width="39" height="52" viewBox="0 0 39 52" fill="none" xmlns="http://www.w3.org/2000/svg">
<path d="M0 8C0 3.58172 3.58172 0 8 0H31C35.4183 0 39 3.58172 39 8V31C39 35.4183 35.4183 39 31 39H29.25H25.7401C24.9168 39 24.1776 39.5045 23.8776 40.2712L20.4312 49.0785C20.0996 49.926 18.9004 49.926 18.5688 49.0785L15.1224 40.2712C14.8224 39.5045 14.0832 39 13.2599 39H9.75H8C3.58172 39 0 35.4183 0 31V8Z" fill="#F6A689"/>
<path d="M10.0043 8.3206C10.1115 8.26402 10.307 8.17601 10.4457 8.11315C10.6034 8.044 10.8745 8.00629 11.1709 8C11.4358 8 11.7952 8.044 11.9907 8.10058C12.1799 8.15716 12.5205 8.29545 12.7475 8.4086C12.9745 8.52176 13.3844 8.78578 13.6619 8.99322C13.9394 9.20067 14.4061 9.60927 14.6961 9.89844C14.9862 10.1813 15.3961 10.6276 15.6106 10.8791C15.8439 11.162 15.97 11.3631 15.9322 11.3883C15.8943 11.4197 15.5979 11.5203 15.27 11.6083C14.9421 11.7026 14.3997 11.8786 14.0718 12.0043C13.7439 12.1238 13.1763 12.3752 12.8106 12.5638C12.4448 12.7461 11.9277 13.0478 11.6628 13.2301C11.3979 13.4124 11.0007 13.7205 10.7799 13.9091C10.5592 14.0976 10.1871 14.4685 9.9475 14.7263C9.70786 14.984 9.3547 15.4429 9.15921 15.7383C8.96371 16.0401 8.77452 16.3355 8.73669 16.3984C8.69254 16.4676 8.64209 16.5053 8.62317 16.4864C8.59795 16.4676 8.5538 16.3167 8.51597 16.1407C8.48443 15.9709 8.41506 15.4743 8.36461 15.0406C8.31416 14.6068 8.27002 13.7645 8.27002 13.1736C8.27002 12.5764 8.30155 11.866 8.33939 11.602C8.37723 11.3317 8.45921 10.8854 8.52858 10.6088C8.59795 10.3322 8.75561 9.89844 8.87542 9.65328C9.00155 9.37668 9.23488 9.04351 9.4493 8.81092C9.6511 8.59719 9.89705 8.37717 10.0043 8.3206Z" fill="white"/>
<path d="M27.2206 8.42119C27.4287 8.31432 27.7566 8.17602 27.9458 8.11316C28.198 8.03144 28.444 8.0063 28.8602 8.01887C29.3458 8.03144 29.4845 8.06287 29.7998 8.22003C30.0269 8.33318 30.317 8.55948 30.5377 8.80465C30.7647 9.04352 30.9917 9.37041 31.1242 9.65329C31.244 9.89845 31.4016 10.3322 31.471 10.6088C31.5404 10.8854 31.6224 11.3317 31.6602 11.602C31.698 11.866 31.7296 12.5764 31.7296 13.1736C31.7296 13.7645 31.6854 14.6068 31.635 15.0406C31.5845 15.4743 31.5152 15.9709 31.4836 16.1407C31.4458 16.3167 31.4016 16.4676 31.3764 16.4864C31.3575 16.5053 31.307 16.4676 31.2629 16.3984C31.2251 16.3356 31.0233 16.0275 30.8215 15.7069C30.5755 15.3298 30.1908 14.8771 29.6863 14.3742C29.1755 13.8713 28.7152 13.4753 28.2926 13.1987C27.9458 12.9724 27.3088 12.6141 26.8737 12.4129C26.4386 12.2055 25.7323 11.9226 25.2971 11.7843C24.862 11.646 24.4143 11.514 24.307 11.4952C24.1935 11.4763 24.0863 11.426 24.0674 11.3946C24.0485 11.3631 24.2124 11.1117 24.4269 10.8477C24.6476 10.5837 25.0386 10.1499 25.2971 9.88588C25.562 9.62814 26.0161 9.23211 26.3061 9.01209C26.6025 8.79208 27.0124 8.52805 27.2206 8.42119Z" fill="white"/>
<path fill-rule="evenodd" clip-rule="evenodd" d="M20.2838 11.426C21.2865 11.4449 21.8982 11.4826 22.491 11.5769C22.9387 11.6523 23.664 11.7969 24.0991 11.9037C24.5342 12.0106 25.1712 12.1992 25.518 12.3186C25.8649 12.4381 26.4324 12.677 26.7793 12.8467C27.1261 13.0101 27.6685 13.3182 27.9775 13.5256C28.2865 13.7268 28.7405 14.0725 28.9865 14.2799C29.2324 14.4937 29.5919 14.852 29.7937 15.0909C29.9955 15.3235 30.2856 15.6943 30.4306 15.9207C30.582 16.147 30.8216 16.5681 30.973 16.8636C31.1243 17.159 31.3387 17.6808 31.4586 18.0265C31.5721 18.3723 31.7234 18.9129 31.7865 19.2209C31.8559 19.5289 31.9441 20.0821 31.9883 20.4467C32.0324 20.8428 32.0514 21.6663 32.0135 23.9042H32.8838C33.6658 23.9042 33.7604 23.9167 33.8739 24.0299C33.9432 24.099 34 24.2185 34 24.3002C34 24.3756 33.9622 24.4951 33.9117 24.5642C33.8297 24.6774 33.7288 24.6899 31.8306 24.7528L31.7676 25.0797C31.7108 25.3626 31.7108 25.4129 31.7928 25.438C31.8432 25.4506 32.1018 25.5134 32.3604 25.57C32.6189 25.6329 32.8838 25.7272 32.9468 25.7837C33.0099 25.8403 33.0604 25.9723 33.0541 26.0855C33.0541 26.2301 33.0099 26.3244 32.909 26.3935C32.7829 26.4815 32.7198 26.4815 31.4459 26.1923L31.1495 26.7895C30.9856 27.1227 30.6577 27.6319 30.4243 27.9273C30.1847 28.2228 29.7559 28.6565 29.4595 28.8891C29.1126 29.1657 28.6333 29.4612 28.1036 29.7189C27.5928 29.9767 27 30.2092 26.527 30.3413C26.1108 30.4607 25.4171 30.6116 24.982 30.687C24.5468 30.7562 23.9099 30.8504 23.5631 30.8882C23.2162 30.9259 21.9234 30.9699 20.6937 30.9887C19.2748 31.0139 18.064 30.995 17.3829 30.951C16.7964 30.907 15.9261 30.819 15.4595 30.7562C14.9928 30.687 14.2802 30.5487 13.8829 30.4481C13.4856 30.3475 12.9306 30.1778 12.6532 30.0647C12.3757 29.9578 11.8964 29.7315 11.5874 29.5743C11.2784 29.4109 10.7991 29.0966 10.5153 28.8703C10.2378 28.644 9.81532 28.2228 9.57568 27.9273C9.34234 27.6319 9.01441 27.1227 8.55405 26.1923L7.95495 26.3369C7.62703 26.4187 7.31802 26.4815 7.27387 26.4815C7.23604 26.4815 7.14144 26.4249 7.07207 26.3558C7.0027 26.2866 6.94595 26.1483 6.94595 26.0415C6.94595 25.9158 6.99009 25.8215 7.08468 25.7586C7.16667 25.7083 7.42523 25.6266 7.67117 25.57C7.91081 25.5134 8.15676 25.4569 8.20721 25.438C8.28919 25.4129 8.28919 25.3626 8.16937 24.7528L7.17297 24.7214C6.27117 24.6899 6.17027 24.6774 6.08829 24.5642C6.03784 24.4951 6 24.3756 6 24.2939C6 24.2185 6.05676 24.099 6.12613 24.0299C6.23964 23.9167 6.33423 23.9042 7.98649 23.9042L7.96126 22.5023C7.94865 21.6788 7.96757 20.8365 8.01171 20.4467C8.05586 20.0821 8.16306 19.4598 8.25135 19.0638C8.33964 18.6677 8.4973 18.1145 8.5982 17.8379C8.6991 17.5614 8.93243 17.0522 9.10901 16.7064C9.28559 16.3607 9.6009 15.8515 9.80901 15.5749C10.0171 15.2983 10.4018 14.8583 10.6667 14.6005C10.9315 14.3428 11.4171 13.9405 11.745 13.7079C12.073 13.4753 12.6468 13.1296 13.0315 12.941C13.4162 12.7524 14.009 12.4947 14.3559 12.3689C14.7027 12.2432 15.2955 12.0609 15.6802 11.9603C16.0649 11.8597 16.7018 11.7214 17.0991 11.646C17.4964 11.5769 18.064 11.4951 18.3604 11.4637C18.6568 11.4323 19.5207 11.4134 20.2838 11.426ZM16.0901 16.3167C15.9703 16.3733 15.7685 16.5053 15.6486 16.5996C15.5288 16.7001 15.3459 16.9327 15.245 17.1213C15.1315 17.3351 15.0495 17.5928 15.0306 17.8065C15.0117 18.0328 15.0432 18.2843 15.1126 18.5294C15.2009 18.8312 15.2955 18.9758 15.5793 19.2586C15.8631 19.5415 16.0081 19.6358 16.3108 19.7238C16.582 19.8055 16.7964 19.8244 17.0676 19.7993C17.3135 19.7741 17.5532 19.6924 17.7613 19.5792C17.9315 19.4787 18.1838 19.2586 18.3099 19.0889C18.436 18.9192 18.5748 18.6677 18.6126 18.5294C18.6568 18.3911 18.682 18.1145 18.682 17.9197C18.6757 17.7059 18.6252 17.4293 18.5495 17.2596C18.4739 17.0899 18.3099 16.851 18.1838 16.719C18.0577 16.587 17.8369 16.4173 17.6982 16.3481C17.5595 16.279 17.3135 16.2035 17.1559 16.1784C16.9919 16.1532 16.7396 16.1532 16.5883 16.1784C16.4369 16.1972 16.2099 16.2664 16.0901 16.3167ZM22.3018 16.3481C22.1631 16.4173 21.9423 16.587 21.8162 16.719C21.6901 16.851 21.5198 17.1025 21.4441 17.2722C21.3622 17.4671 21.3117 17.7185 21.3117 17.9322C21.3117 18.1208 21.3432 18.3911 21.3811 18.5294C21.4252 18.6677 21.564 18.9192 21.6901 19.0889C21.8162 19.2586 22.0622 19.4787 22.2387 19.5792C22.4468 19.6924 22.6865 19.7741 22.9324 19.7993C23.2036 19.8244 23.418 19.8055 23.6892 19.7238C23.9919 19.6358 24.1369 19.5415 24.4207 19.2586C24.6919 18.9883 24.7991 18.8249 24.8811 18.5609C24.9378 18.3723 24.982 18.0957 24.982 17.9448C24.982 17.8002 24.9189 17.5174 24.8432 17.3225C24.7613 17.1025 24.6036 16.8573 24.4523 16.7064C24.3072 16.5681 24.0802 16.3984 23.9414 16.3355C23.8027 16.2727 23.5568 16.1972 23.3991 16.1784C23.2351 16.1532 22.9829 16.1532 22.8315 16.1784C22.6802 16.1972 22.4405 16.279 22.3018 16.3481ZM15.7117 25.3814C15.7117 25.4317 15.7369 25.5323 15.7748 25.6014C15.8378 25.7272 15.9009 25.7272 19.9622 25.7272C23.5441 25.7272 24.1054 25.7146 24.1874 25.6329C24.2441 25.5826 24.2883 25.482 24.2883 25.4129C24.2883 25.3437 24.2315 25.2306 24.1622 25.1614C24.036 25.0357 23.9541 25.0357 20 25.0357C16.0459 25.0357 15.964 25.0357 15.8378 25.1614C15.7685 25.2306 15.7117 25.3311 15.7117 25.3814Z" fill="white"/>
</svg>
