<svg width="84" height="69" viewBox="0 0 84 69" fill="none" xmlns="http://www.w3.org/2000/svg">
<path d="M12.0137 0.961475C12.3354 0.791803 12.9218 0.527869 13.3381 0.339344C13.811 0.131967 14.6245 0.0188525 15.5137 0C16.3083 0 17.3867 0.131967 17.9732 0.301639C18.5408 0.471311 19.5624 0.886066 20.2435 1.22541C20.9245 1.56475 22.1543 2.35656 22.9867 2.97869C23.8191 3.60082 25.2191 4.82623 26.0894 5.69344C26.9597 6.5418 28.1894 7.88033 28.8327 8.63443C29.5327 9.48279 29.911 10.0861 29.7975 10.1615C29.684 10.2557 28.7948 10.5574 27.811 10.8213C26.8273 11.1041 25.2002 11.632 24.2164 12.009C23.2327 12.3672 21.53 13.1213 20.4327 13.6869C19.3354 14.2336 17.784 15.1385 16.9894 15.6852C16.1948 16.232 15.0029 17.1557 14.3408 17.7213C13.6786 18.2869 12.5624 19.3992 11.8435 20.1721C11.1245 20.9451 10.0651 22.3213 9.4786 23.2074C8.89212 24.1123 8.32455 24.9984 8.21104 25.1869C8.0786 25.3943 7.92725 25.5074 7.87049 25.4508C7.79482 25.3943 7.66239 24.9418 7.54887 24.4139C7.45428 23.9049 7.24617 22.4156 7.09482 21.1148C6.94347 19.8139 6.81104 17.2877 6.81104 15.5156C6.81104 13.7246 6.90563 11.5943 7.01914 10.8025C7.13266 9.9918 7.3786 8.65328 7.58671 7.82377C7.79482 6.99426 8.26779 5.69344 8.62725 4.9582C9.00563 4.12869 9.70563 3.12951 10.3489 2.43197C10.9543 1.79098 11.6921 1.13115 12.0137 0.961475Z" fill="white"/>
<path d="M63.6622 1.26328C64.2865 0.942792 65.2703 0.528037 65.8378 0.339513C66.5946 0.0944308 67.3324 0.019021 68.5811 0.0567259C70.0378 0.0944308 70.4541 0.188693 71.4 0.660005C72.0811 0.999349 72.9513 1.67804 73.6135 2.41328C74.2946 3.12968 74.9757 4.11 75.373 4.95837C75.7324 5.69361 76.2054 6.99443 76.4135 7.82394C76.6216 8.65345 76.8676 9.99197 76.9811 10.8026C77.0946 11.5944 77.1892 13.7248 77.1892 15.5157C77.1892 17.2879 77.0568 19.8141 76.9054 21.1149C76.7541 22.4157 76.5459 23.9051 76.4513 24.4141C76.3378 24.942 76.2054 25.3944 76.1297 25.451C76.073 25.5075 75.9216 25.3944 75.7892 25.1871C75.6757 24.9985 75.0703 24.0748 74.4649 23.1133C73.727 21.9821 72.573 20.6248 71.0595 19.1166C69.527 17.6084 68.1459 16.4207 66.8784 15.5912C65.8378 14.9125 63.927 13.8379 62.6216 13.2346C61.3162 12.6125 59.1973 11.7641 57.8919 11.3493C56.5865 10.9346 55.2432 10.5387 54.9216 10.4821C54.5811 10.4256 54.2595 10.2748 54.2027 10.1805C54.1459 10.0862 54.6378 9.33214 55.2811 8.54033C55.9432 7.74853 57.1162 6.44771 57.8919 5.65591C58.6865 4.88296 60.0486 3.69525 60.9189 3.03541C61.8081 2.37558 63.0378 1.58378 63.6622 1.26328Z" fill="white"/>
<path fill-rule="evenodd" clip-rule="evenodd" d="M42.9459 10.2746C45.4054 10.3123 47.7892 10.4631 49 10.6516C50.0973 10.8213 51.9703 11.1606 53.1622 11.4246C54.3541 11.6885 56.4541 12.2729 57.7973 12.7065C59.1405 13.159 61.1838 13.9696 62.3378 14.5352C63.4919 15.0819 65.1378 16.0246 66.027 16.609C66.9162 17.2123 68.1838 18.1549 68.8649 18.7393C69.546 19.3049 70.6243 20.3983 71.2865 21.1524C71.9486 21.9065 72.8568 23.0754 73.2919 23.7541C73.7459 24.4328 74.5027 25.7524 74.9568 26.6762C75.4297 27.6 76.0919 29.1836 76.4135 30.1639C76.7351 31.1442 77.1703 32.7278 77.3595 33.6516C77.5676 34.5754 77.8324 36.2344 77.9649 37.3278C78.0973 38.5156 78.1541 40.9852 78.0405 47.6967H80.6324C82.9973 47.6967 83.2811 47.7344 83.6216 48.0737C83.8297 48.2811 84 48.6393 84 48.8656C84 49.1106 83.8865 49.4688 83.7351 49.6762C83.4892 50.0156 83.1865 50.0533 77.4919 50.2418L77.3027 51.2221C77.1324 52.0705 77.1324 52.2213 77.3784 52.2967C77.5297 52.3344 78.3054 52.5229 79.0811 52.6926C79.8568 52.8811 80.6514 53.1639 80.8405 53.3336C81.0297 53.5033 81.1811 53.8992 81.1622 54.2385C81.1622 54.6721 81.0297 54.9549 80.727 55.1623C80.3487 55.4262 80.1595 55.4262 76.3378 54.559L75.4486 56.35C74.9568 57.3492 73.973 58.8762 73.273 59.7623C72.5541 60.6483 71.2865 61.9115 70.4541 62.5901C69.6027 63.2688 67.9946 64.2869 66.8595 64.8901C65.7243 65.4746 63.9081 66.2475 62.8108 66.6057C61.7135 66.9639 60.0108 67.4352 59.027 67.6426C58.0432 67.8688 56.2459 68.1705 55.0541 68.3213C53.8622 68.491 51.6865 68.6983 50.2297 68.8115C48.773 68.9057 45.0838 69 42.0378 69C39.0108 69 35.2649 68.9057 33.7135 68.7926C32.1811 68.6983 29.7784 68.4344 28.3784 68.2459C26.9784 68.0385 24.8405 67.6238 23.6486 67.3221C22.4568 67.0205 20.7919 66.5115 19.9595 66.1721C19.127 65.8516 17.6892 65.1729 16.7622 64.7016C15.8351 64.2115 14.3973 63.2688 13.5459 62.5901C12.7135 61.9115 11.4459 60.6483 10.727 59.7623C10.027 58.8762 9.04324 57.3492 7.66216 54.559L5.86487 54.9926C4.88108 55.2377 3.95405 55.4262 3.82162 55.4262C3.70811 55.4262 3.42432 55.2565 3.21622 55.0492C3.00811 54.8418 2.83784 54.4459 2.83784 54.1442C2.81892 53.8615 2.97027 53.5033 3.15946 53.3336C3.34865 53.1639 3.97297 52.9188 4.54054 52.7869C5.10811 52.6738 5.88378 52.4852 6.90541 52.2213L6.50811 50.2418L3.51892 50.1475C0.813514 50.0533 0.510811 50.0156 0.264865 49.6762C0.113514 49.4688 0 49.1106 0 48.8656C0 48.6393 0.17027 48.2811 0.378378 48.0737C0.718919 47.7344 1.0027 47.6967 5.95946 47.6967L5.88378 43.4926C5.84595 41.0229 5.9027 38.4967 6.03514 37.3278C6.16757 36.2344 6.48919 34.368 6.75405 33.1803C7.01892 31.9926 7.49189 30.3336 7.7946 29.5041C8.0973 28.6746 8.7973 27.1475 9.32703 26.1106C9.85676 25.0737 10.8027 23.5467 11.427 22.7172C12.0514 21.8877 13.2054 20.568 14 19.7951C14.7946 19.0221 16.2514 17.8156 17.2351 17.118C18.2189 16.4205 19.9405 15.3836 21.0946 14.818C22.2486 14.2336 24.027 13.4795 25.0676 13.1024C26.1081 12.7254 27.8865 12.1787 29.0405 11.877C30.1946 11.5754 32.1054 11.1418 33.2973 10.9344C34.4892 10.727 36.2486 10.4819 37.1757 10.3877C38.1027 10.2934 40.7135 10.2369 42.9459 10.2746ZM26.9784 25.4508C26.5622 25.7147 26.0324 26.1672 25.8054 26.4877C25.5595 26.8082 25.2 27.4303 24.9919 27.9016C24.7459 28.4483 24.5946 29.1647 24.5946 29.8811C24.5946 30.5033 24.727 31.4459 24.9162 31.9549C25.1243 32.577 25.5595 33.218 26.1838 33.859C26.827 34.4811 27.4703 34.9147 28.0946 35.1221C28.6054 35.3106 29.5514 35.4426 30.1757 35.4426C31.0459 35.4426 31.5757 35.3295 32.4459 34.8959C33.0703 34.5942 33.827 34.0664 34.1297 33.7082C34.4324 33.3688 34.8486 32.7467 35.0757 32.3319C35.3784 31.7287 35.473 31.2385 35.473 29.9754C35.473 28.6746 35.3784 28.2221 35.0378 27.5623C34.8108 27.1287 34.3189 26.4688 33.9595 26.1106C33.6 25.7524 32.9378 25.2623 32.4838 25.036C31.973 24.7721 31.2351 24.6213 30.3649 24.5647C29.5703 24.527 28.7757 24.6024 28.3784 24.7533C28.0189 24.8852 27.3757 25.2057 26.9784 25.4508ZM50.627 25.5828C50.2297 25.8844 49.6622 26.4877 49.3595 26.959C49.0378 27.4303 48.6973 28.1467 48.5838 28.5615C48.4892 28.9762 48.4324 29.8246 48.4703 30.4467C48.527 31.0688 48.7351 31.9172 48.9432 32.3319C49.1514 32.7467 49.5676 33.3688 49.8703 33.7082C50.173 34.0664 50.9297 34.5942 51.5541 34.8959C52.4243 35.3295 52.9541 35.4426 53.8243 35.4426C54.4487 35.4426 55.3757 35.3106 55.9054 35.1221C56.5297 34.9147 57.173 34.4811 57.8162 33.859C58.4405 33.218 58.8757 32.577 59.0838 31.9549C59.273 31.4459 59.4054 30.5033 59.4054 29.8811C59.4054 29.0139 59.2919 28.486 58.8568 27.6188C58.5541 26.9967 58.0243 26.2426 57.6649 25.941C57.3243 25.6393 56.7 25.2246 56.2838 25.0172C55.8108 24.7721 55.0541 24.6213 54.2027 24.5647C53.3324 24.527 52.6135 24.6024 52.1216 24.791C51.7054 24.9418 51.0432 25.3 50.627 25.5828ZM34.7162 43.7942C33.9784 44.0393 32.7486 44.5672 31.973 44.9631C31.1973 45.359 30.0432 46.0188 29.4189 46.4524C28.7946 46.8672 27.7351 47.6967 27.0541 48.2811C26.373 48.8467 25.2946 49.9967 24.6514 50.8262C23.9892 51.6369 23.1568 52.8246 22.7784 53.4467C22.4 54.0688 21.8892 55.0303 21.6432 55.577C21.3973 56.1049 21.1892 56.7082 21.1892 56.8967C21.1703 57.0664 21.3216 57.368 21.5108 57.5377C21.7 57.7262 22.0216 57.877 22.2297 57.877C22.4378 57.8959 22.7027 57.7828 22.8351 57.6508C22.9486 57.5188 23.3838 56.727 23.8 55.8975C24.2162 55.068 25.0676 53.7106 25.673 52.8811C26.2973 52.0516 27.4324 50.7885 28.2081 50.091C28.9838 49.3746 30.0811 48.4885 30.6486 48.1115C31.2162 47.7344 32.2378 47.15 32.9189 46.8106C33.6 46.4713 34.9243 45.9434 35.8514 45.6418C36.7784 45.3401 38.273 44.9819 39.1622 44.85C40.1459 44.718 41.6405 44.6615 43.0405 44.7369C44.5162 44.7934 45.9541 45.0008 47.1081 45.3024C48.0919 45.5475 49.6243 46.0942 50.5135 46.509C51.4027 46.9049 52.7649 47.6778 53.5405 48.2057C54.3162 48.7524 55.5838 49.8082 56.3595 50.5623C57.1162 51.3164 58.1189 52.4475 58.5541 53.0697C59.0081 53.6918 59.727 54.8795 60.1622 55.709C60.5973 56.5385 61.0513 57.3303 61.1649 57.4623C61.2973 57.5942 61.5622 57.7074 61.7703 57.7074C61.9784 57.7074 62.3 57.5565 62.4703 57.368C62.6595 57.1795 62.8108 56.859 62.8108 56.6516C62.8108 56.4442 62.3946 55.5016 61.9027 54.5779C61.4108 53.6541 60.5216 52.2401 59.9351 51.4672C59.3676 50.6942 58.2703 49.4877 57.5324 48.7901C56.7946 48.0737 55.5649 47.0746 54.8081 46.5656C54.0703 46.0377 52.7649 45.2836 51.9324 44.8688C51.1 44.4729 49.7378 43.9074 48.9054 43.6434C48.073 43.3795 46.673 43.0401 45.7838 42.8893C44.8946 42.7197 43.1351 42.6065 41.8108 42.6254C40.3162 42.6254 38.8216 42.7762 37.7432 42.9836C36.8162 43.1721 35.4351 43.5492 34.7162 43.7942Z" fill="white"/>
</svg>
