<svg width="24" height="24" viewBox="0 0 24 24" fill="none" xmlns="http://www.w3.org/2000/svg">
<path d="M5 6.97875C5.1795 7.09292 5.37075 7.18908 5.57375 7.26725C5.77675 7.34542 5.99575 7.3845 6.23075 7.3845H7.3845V20H6.23075C5.88208 20 5.58975 19.8785 5.35375 19.6355C5.11792 19.3927 5 19.1039 5 18.7693V6.97875ZM6.23075 3C5.61108 3 5.08442 3.21317 4.65075 3.6395C4.21692 4.06567 4 4.58325 4 5.19225V18.7693C4 19.3889 4.21692 19.9156 4.65075 20.3492C5.08442 20.7831 5.61108 21 6.23075 21H13.5V20H8.3845V7.3845H16V11.5H17V6.3845H6.23075C5.89608 6.3845 5.60733 6.27058 5.3645 6.04275C5.1215 5.81492 5 5.53258 5 5.19575C5 4.85892 5.1215 4.57542 5.3645 4.34525C5.60733 4.11508 5.89608 4 6.23075 4H19V12.5H20V3H6.23075Z" fill="#E8EAED"/>
<path d="M16 14V21.0313H17V14H16ZM13 17V18H20.0313V17H13Z" fill="#E8EAED"/>
<path d="M16.9996 6.5C15.4997 6.5 14.6 3.5 19 3.5" stroke="#E8EAED"/>
</svg>
