<svg width="219" height="219" viewBox="0 0 219 219" fill="none" xmlns="http://www.w3.org/2000/svg">
<path d="M196.351 63.4683C196.394 62.9976 196.908 62.1847 197.507 61.6712V61.6285C198.106 61.115 199.048 60.6871 199.647 60.6871C200.203 60.6871 200.974 60.8155 201.359 60.9866C201.744 61.2006 202.343 61.8424 202.643 62.4842C202.985 63.1688 203.242 64.0673 203.242 64.538C203.242 65.0086 202.771 65.8644 202.172 66.4634C201.444 67.1908 200.674 67.5331 199.604 67.5331C198.662 67.5331 197.764 67.1908 197.25 66.6773C196.779 66.2067 196.351 65.4793 196.351 65.0514C196.309 64.6663 196.309 63.939 196.351 63.4683Z" fill="#61ABDF"/>
<path d="M158.758 50.6481C159.425 48.6885 160.155 46.5436 160.445 45.84C160.83 44.6847 161.172 44.428 162.2 44.428C163.312 44.428 163.526 44.6419 164.211 46.6957C164.639 47.8937 165.495 50.3754 166.137 52.1297C166.736 53.884 167.506 55.5527 167.806 55.8522C168.106 56.1089 170.203 57.1358 172.428 58.1199C174.653 59.104 176.879 60.2593 177.35 60.6871C178.077 61.3717 178.12 61.6712 177.735 62.4842C177.392 63.1688 175.723 64.1529 167.506 67.7898L165.538 73.3094C164.425 76.3901 163.227 79.0429 162.841 79.2996C162.385 79.5848 161.928 79.5848 161.472 79.2996C161.087 79.0429 159.888 76.3901 156.807 67.7898L151.971 65.6505C149.318 64.4524 146.964 63.126 146.75 62.7409C146.45 62.1847 146.493 61.6712 146.921 61.0294C147.263 60.4304 149.232 59.2752 151.885 58.1199C154.325 57.0502 156.55 55.8094 156.85 55.3387C157.149 54.8681 158.005 52.8571 158.69 50.8461L158.758 50.6481Z" fill="#3DD8CB"/>
<path d="M148.162 13.3216C148.847 12.3803 150.174 11.1823 151.158 10.6688C152.485 9.98424 153.512 9.7703 155.138 9.85588C156.593 9.94145 157.834 10.3693 159.075 11.1823C160.317 11.9525 161.172 12.9793 161.772 14.3485C162.414 15.8033 162.628 17.0014 162.542 18.3278C162.414 19.3974 161.857 21.0234 161.258 21.9647C160.573 23.0771 159.461 24.0185 158.048 24.7031C156.336 25.5588 155.566 25.6872 153.897 25.4732C152.784 25.3021 151.286 24.8314 150.602 24.4035C149.874 24.0185 148.761 22.906 148.119 22.0075C147.178 20.6383 146.964 19.8681 146.964 17.6859C146.964 15.5038 147.178 14.7764 148.162 13.3216Z" fill="#61ABDF"/>
<path d="M203.798 5.06371C204.44 3.30943 205.168 1.42679 205.424 0.870556C205.71 0.214485 206.152 -0.0707635 206.751 0.014811C207.436 0.100385 207.949 0.998918 210.517 8.27275L214.369 10.0698C217.664 11.6529 218.221 12.038 218.092 12.851C218.05 13.6212 217.194 14.2202 214.455 15.5466C212.529 16.4879 210.731 17.5576 210.517 17.8999C210.303 18.2422 209.619 19.9965 209.062 21.7507C208.463 23.505 207.693 25.2165 207.308 25.4732C206.965 25.7727 206.409 25.9439 206.109 25.8583C205.852 25.7727 204.911 23.8473 202.6 17.3009L198.834 15.5894C195.71 14.1346 195.068 13.6639 195.11 12.851C195.11 12.0808 195.795 11.5674 202.6 8.27275L203.798 5.06371Z" fill="#3DD8CB"/>
<path d="M100.529 5.32045C102.754 4.25077 106.05 3.00994 107.804 2.53928C109.559 2.06862 112.17 1.68353 113.582 1.64075C114.994 1.64075 117.134 1.89747 118.29 2.23977C119.488 2.58207 121.285 3.4806 122.313 4.29356C123.468 5.1493 124.795 6.73243 125.608 8.27277C126.421 9.68475 127.32 12.2092 127.705 13.8351C128.09 15.6322 128.347 19.0552 128.347 22.3926C128.347 25.4732 128.047 29.8803 127.705 32.2336C127.363 34.5869 126.507 38.8229 124.624 46.7813L125.993 49.7764C126.763 51.4023 128.133 54.7825 128.989 57.2642C129.845 59.7458 131.043 64.1529 131.642 67.1052C132.584 71.6407 132.798 73.5661 132.798 79.7275C132.841 85.461 132.669 87.6003 132.07 89.7825C131.642 91.3228 130.53 94.104 129.631 95.9866C128.732 97.8693 127.32 100.308 126.464 101.463C125.608 102.576 124.923 103.56 124.923 103.688C124.923 103.817 126.806 105.271 129.117 106.983C131.386 108.652 135.023 111.518 137.12 113.315C139.217 115.155 143.497 119.22 146.536 122.344C149.617 125.51 153.982 130.602 156.293 133.639C158.562 136.677 161.729 141.427 163.355 144.122C165.752 148.23 166.222 148.829 166.351 147.845C166.393 147.16 165.58 144.935 164.296 142.325C163.141 139.886 161.771 136.378 161.258 134.495C160.53 131.928 160.274 129.917 160.274 126.366C160.274 123.328 160.53 120.675 161.001 118.878C161.429 117.337 162.499 114.556 163.398 112.674C164.339 110.791 165.966 108.138 167.035 106.812C168.105 105.443 170.202 103.432 171.7 102.362C173.155 101.249 175.68 99.7091 177.35 98.939C179.019 98.1688 181.972 97.1847 183.983 96.7996C186.551 96.2862 188.605 96.1578 191.045 96.3289C192.928 96.5001 195.624 96.928 197.036 97.3131C198.448 97.6981 200.931 98.6395 202.6 99.4524C204.269 100.265 206.922 101.977 208.591 103.26C210.26 104.544 212.7 106.94 214.112 108.523C215.482 110.106 217.065 112.374 217.622 113.529C218.178 114.727 218.734 116.738 218.905 118.022C219.119 119.819 218.991 121.103 218.306 123.37C217.622 125.681 216.937 126.879 215.353 128.633C214.155 130.003 212.357 131.414 210.945 132.056C209.019 132.998 207.992 133.212 205.168 133.212C202.3 133.212 201.316 132.998 199.176 132.014C197.336 131.158 195.752 129.874 193.612 127.606C191.216 125.039 190.403 124.44 189.547 124.526C188.691 124.611 188.477 124.911 188.391 126.066C188.306 127.007 188.948 128.804 190.403 131.842C191.558 134.238 192.885 137.661 193.356 139.416C193.784 141.17 194.297 143.951 194.468 145.62C194.64 147.289 194.554 150.07 194.297 151.952C194.04 153.749 193.441 156.445 192.928 157.943C192.457 159.397 191.259 161.922 190.274 163.591C189.29 165.259 187.321 167.826 185.909 169.324C184.497 170.822 182.4 172.747 181.201 173.603C180.046 174.458 177.906 175.742 173.926 177.881L173.198 182.289C172.813 184.727 171.914 188.236 171.187 190.119C170.459 192.001 168.919 194.996 167.763 196.751C166.607 198.505 164.339 201.201 162.756 202.741C160.487 204.837 159.674 205.993 159.246 207.447C158.904 208.517 158.219 210.143 157.663 211.084C157.149 212.026 155.737 213.652 154.624 214.721C153.469 215.748 151.329 217.16 147.178 219H107.804L105.579 218.016C104.338 217.46 102.669 216.433 101.856 215.748C101.042 215.064 99.9725 213.609 99.4162 212.496C98.8598 211.341 98.389 210.1 98.389 209.715C98.4318 209.287 98.175 208.731 97.8755 208.474C97.5759 208.218 95.864 207.79 94.1093 207.533C92.3546 207.276 90.8568 207.105 90.7712 207.148C90.7284 207.191 90.8995 208.089 91.1563 209.159C91.4559 210.229 91.5415 211.769 91.4131 212.582C91.2419 213.395 90.6856 214.764 90.1292 215.577C89.6156 216.39 88.3745 217.502 87.4758 218.016C85.7639 218.957 85.5927 218.957 48.5323 218.957H48.5305L46.8186 217.802C45.8771 217.117 44.6788 215.919 44.1224 215.106C43.4805 214.122 43.1381 213.01 43.1809 211.726C43.1809 210.656 43.4377 209.031 43.78 208.089C44.3364 206.506 44.1652 205.009 41.6402 187.551C40.1423 177.197 38.302 164.789 37.5317 159.954C36.2478 151.952 36.1194 150.369 36.1622 141.769C36.1622 136.592 36.4189 130.516 36.7185 128.291C36.9753 126.066 37.3177 123.841 37.4461 123.37C37.6601 122.643 37.2749 122.344 34.9638 121.488C33.466 120.932 30.3418 119.562 27.9879 118.407C25.6341 117.295 21.9964 115.198 19.8565 113.829C17.7167 112.417 14.2929 109.679 12.1958 107.71C9.9276 105.571 7.44537 102.661 6.03307 100.479C4.70636 98.4683 3.08007 95.4304 2.43812 93.7189C1.75337 92.0502 0.897427 88.67 0.512254 86.2739C-0.129701 82.4231 -0.129701 81.0967 0.298269 75.4488C0.597848 71.9402 1.19701 67.1052 1.71057 64.7519C2.18134 62.3987 3.16567 58.6334 3.89322 56.4084C4.62077 54.1835 5.86188 50.8889 8.13012 45.9256L6.80341 40.5772C6.11866 37.6248 5.21993 33.3033 4.87755 30.95C4.53517 28.5967 4.23559 24.3608 4.23559 21.5368C4.23559 18.3278 4.49238 15.461 4.87755 13.9635C5.21993 12.5943 5.90468 10.7116 6.37544 9.77033C6.84621 8.82901 7.95893 7.28866 8.81487 6.30456C9.71361 5.36324 11.3827 4.07962 12.581 3.52339C13.7365 2.96715 15.8764 2.36813 17.2887 2.23977C19.2145 2.02583 20.798 2.19698 23.4943 2.88158C25.5057 3.35224 28.8439 4.63586 30.9837 5.61996C33.1236 6.64686 37.0609 8.82901 44.6788 13.45L48.7445 12.0808C50.9699 11.3107 54.3509 10.3693 56.234 9.98426C58.117 9.55639 62.2683 9.1713 65.4353 9.04294C69.5438 8.87179 72.5824 9.00015 75.9206 9.5136C78.5312 9.89869 82.2546 10.6689 87.9038 12.2948L92.1835 9.77033C94.5373 8.40113 98.3034 6.39013 100.529 5.32045Z" fill="#161640"/>
<path d="M72.4969 201.885C72.1546 197.991 71.5005 193.5 71.5005 192.5L72.0005 191.5L77.5005 192C81.0526 192 83.5005 191.743 83.5005 192C83.5005 192.257 83.025 196.066 82.5114 199.403C81.9123 203.34 81.6983 206.421 82.1263 210.443H77.6326C73.6525 210.443 73.1389 210.357 73.1389 209.672C73.1389 209.287 72.8393 205.779 72.4969 201.885Z" fill="#7377C6"/>
<path d="M52.8528 207.234C52.9812 206.292 52.596 202.57 52.0825 199.018L51.0981 192.472H61.1554V210.443H56.6618C52.5532 210.443 52.2109 210.357 52.4249 209.672C52.5532 209.287 52.7672 208.175 52.8528 207.234Z" fill="#7377C6"/>
<path d="M91.6272 198.334C91.5416 198.291 91.9268 195.082 92.4403 191.188L93.3819 184.128L94.9225 185.883C95.7785 186.824 97.576 188.493 98.9455 189.605C100.272 190.718 101.642 191.616 101.941 191.616C102.198 191.616 102.797 192.301 103.225 193.199C103.653 194.098 104.338 195.296 105.579 196.965L101.171 199.874L96.4632 199.147C93.8526 198.762 91.7128 198.377 91.6272 198.334Z" fill="#7377C6"/>
<path d="M105.023 118.45C107.847 117.081 111.613 114.984 113.368 113.786C115.123 112.588 116.706 111.604 116.92 111.604C117.091 111.604 119.445 113.786 122.184 116.396C124.923 119.049 128.775 123.242 130.786 125.724C132.755 128.205 135.494 131.928 136.778 134.067C138.105 136.164 140.116 139.844 141.229 142.197C142.342 144.55 143.797 148.187 144.396 150.326C144.995 152.423 145.723 156.103 145.979 158.456C146.365 161.708 146.365 163.933 145.979 167.655C145.723 170.351 145.081 173.902 144.567 175.571C144.096 177.197 142.984 179.892 142.128 181.561C141.229 183.187 139.474 185.626 138.19 186.952C136.906 188.279 134.809 189.862 133.611 190.504C132.37 191.103 130.53 191.787 129.545 192.044C128.518 192.258 124.838 192.472 121.286 192.515C116.578 192.557 114.524 192.429 113.625 192.001C112.94 191.659 111.956 190.846 111.485 190.204C110.757 189.22 110.586 188.364 110.586 186.139C110.629 183.957 110.886 182.716 111.742 180.919C112.384 179.55 113.71 177.796 114.952 176.683C116.064 175.657 118.29 174.202 119.916 173.389C121.5 172.576 124.367 171.549 126.336 171.121C128.261 170.65 131.471 170.137 133.483 169.966C136.735 169.709 137.249 169.538 138.319 168.425C139.132 167.57 139.474 166.8 139.474 165.602C139.517 164.489 139.175 163.676 138.404 162.82C137.805 162.179 136.821 161.537 136.179 161.408C135.494 161.237 133.14 161.323 130.915 161.58C128.689 161.836 125.308 162.478 123.425 162.949C121.542 163.419 118.247 164.66 116.15 165.687C114.053 166.757 111.399 168.34 110.329 169.238C109.26 170.137 107.59 171.806 106.606 173.004C105.665 174.159 104.338 176.298 103.739 177.71C103.097 179.122 102.369 181.732 102.112 183.487C101.799 185.626 101.784 187.509 102.07 189.135C102.369 191.06 102.326 191.616 101.941 191.616C101.642 191.616 100.272 190.718 98.9455 189.605C97.576 188.493 95.7785 186.824 93.3819 184.128L94.837 174.587C95.7357 168.425 96.1209 164.746 95.9069 164.104C95.6929 163.591 94.9654 162.735 94.2806 162.179C93.5959 161.665 92.4831 161.194 91.7556 161.237C91.028 161.237 90.0437 161.537 89.5301 161.879C88.9738 162.221 88.3318 162.949 88.0751 163.462C87.7755 164.018 86.6627 170.693 83.5814 192.258H71.641L70.6567 180.491C70.1431 174.031 69.4583 168.169 69.1588 167.484C68.902 166.8 68.1316 165.987 67.4897 165.687C66.8049 165.345 65.9062 165.088 65.4354 165.088C64.9647 165.088 64.0659 165.345 63.4668 165.602C62.8248 165.901 62.0545 166.671 61.7549 167.313C61.2841 168.254 61.1557 171.164 61.1557 192.472H51.0984L47.8887 170.779C44.7645 149.77 44.6789 148.786 44.7217 141.341C44.7217 137.105 45.0213 131.671 45.3636 129.232C45.8344 125.638 46.0912 124.911 46.6047 125.082C46.9471 125.253 50.0285 125.852 53.4523 126.451C58.2027 127.264 61.2413 127.521 66.5054 127.564C71.1702 127.606 74.8508 127.35 78.0605 126.836C80.6712 126.408 84.6085 125.638 86.8339 125.082C89.0594 124.526 92.9111 123.37 95.3933 122.515C97.8756 121.659 102.198 119.862 105.023 118.45Z" fill="#61ABDF"/>
<path d="M118.632 143.309C118.76 140.699 118.974 140.057 119.788 139.373C120.301 138.945 120.986 138.56 121.243 138.56C121.5 138.517 122.184 138.902 122.783 139.373C123.768 140.143 123.853 140.443 123.853 143.823C123.853 146.39 123.682 147.631 123.211 148.144C122.783 148.658 122.099 148.829 121.072 148.743C120.002 148.658 119.445 148.315 119.017 147.545C118.675 146.861 118.547 145.406 118.632 143.309Z" fill="#161640"/>
<path d="M131.728 140.571C131.685 138.303 131.899 137.191 132.413 136.506C132.841 135.907 133.568 135.565 134.339 135.565C135.066 135.565 135.922 135.864 136.264 136.207C136.735 136.677 136.906 137.833 136.906 140.699C136.906 144.208 136.821 144.593 135.965 145.192C135.409 145.534 134.724 145.834 134.467 145.834C134.167 145.834 133.44 145.363 132.841 144.764C131.899 143.823 131.771 143.309 131.728 140.571Z" fill="#161640"/>
<path d="M106.863 131.201C106.82 128.334 106.949 127.564 107.59 126.922C108.018 126.494 108.874 126.152 109.474 126.152C110.073 126.152 110.929 126.494 111.357 126.922C111.956 127.521 112.127 128.334 112.084 131.201C112.084 134.11 111.956 134.837 111.228 135.565C110.757 136.035 109.987 136.421 109.516 136.421C109.046 136.421 108.275 136.035 107.804 135.565C107.12 134.88 106.949 134.067 106.863 131.201Z" fill="#161640"/>
<path d="M122.099 116.225C118.632 112.888 117.134 111.09 117.391 110.791H117.434C117.648 110.534 118.076 110.32 118.375 110.32C118.675 110.32 120.13 111.133 121.628 112.117C123.083 113.101 126.122 115.412 128.347 117.209C130.573 119.006 134.21 122.172 136.436 124.269C138.661 126.366 142.213 130.131 144.353 132.612C146.493 135.094 149.489 138.859 150.987 140.956C152.442 143.053 154.753 146.604 156.08 148.829C157.406 151.054 159.161 154.52 160.06 156.531C160.916 158.542 162.114 161.622 162.67 163.377C163.27 165.131 164.083 168.511 164.511 170.864C165.024 173.774 165.153 176.213 164.981 178.566C164.853 180.449 164.339 183.315 163.826 184.984C163.355 186.653 162.242 189.22 161.386 190.76C160.531 192.301 158.861 194.483 157.663 195.681C156.508 196.836 154.667 198.505 153.597 199.361C151.843 200.73 151.629 201.158 151.115 203.639C150.816 205.137 150.131 206.934 149.617 207.619C149.104 208.346 147.905 209.244 146.964 209.672C145.423 210.357 143.626 210.442 127.491 210.442C113.967 210.442 109.474 210.314 108.661 209.886C108.061 209.587 107.377 208.859 107.077 208.303C106.649 207.362 106.692 207.105 107.505 206.207C108.019 205.693 110.458 204.196 112.94 202.955C115.422 201.714 117.733 200.345 118.119 199.917C118.504 199.446 118.932 198.633 119.06 198.034C119.189 197.435 119.017 196.323 118.675 195.553C118.333 194.825 117.562 193.841 116.92 193.413C115.771 192.69 115.892 192.686 122.676 192.475L122.784 192.472C129.674 192.258 129.931 192.215 132.841 190.803C134.809 189.862 136.65 188.578 138.19 186.952C139.474 185.626 141.229 183.187 142.128 181.561C142.984 179.892 144.096 177.24 144.567 175.571C145.081 173.902 145.723 170.351 145.98 167.655C146.365 163.933 146.365 161.708 145.98 158.456C145.723 156.103 144.995 152.423 144.396 150.326C143.797 148.187 142.342 144.55 141.229 142.197C140.116 139.844 138.105 136.164 136.778 134.067C135.494 131.928 132.755 128.205 130.787 125.724C128.818 123.242 124.881 119.006 122.099 116.225Z" fill="#7377C6"/>
<path d="M180.559 106.94C182.1 106.213 184.411 105.443 185.695 105.229C186.979 105.015 188.434 104.844 188.905 104.801C189.375 104.801 191.002 104.972 192.542 105.186C194.211 105.443 196.779 106.341 198.962 107.411C201.829 108.78 203.37 109.935 206.066 112.631C208.463 115.027 209.704 116.61 210.089 117.808C210.56 119.306 210.517 119.776 209.79 121.445C209.19 122.857 208.548 123.584 207.393 124.141C206.537 124.526 205.424 124.868 204.954 124.868C204.483 124.868 203.584 124.611 202.899 124.269C202.257 123.927 200.545 122.386 199.048 120.846C197.592 119.263 195.41 117.509 194.126 116.867C192.5 116.054 191.216 115.712 189.29 115.712C187.107 115.669 186.38 115.883 184.625 116.952C183.298 117.765 182.014 119.049 181.244 120.333C180.003 122.301 179.917 122.729 179.917 126.323C179.917 130.131 179.96 130.302 182.143 134.709C183.341 137.191 184.668 140.357 185.096 141.769C185.566 143.395 185.823 145.748 185.823 148.187C185.78 151.011 185.524 152.765 184.839 154.819C184.325 156.359 183.427 158.37 182.913 159.312C182.357 160.253 181.158 161.879 180.26 162.906C179.361 163.933 177.478 165.644 176.066 166.628C174.653 167.655 173.369 168.468 173.155 168.511C172.984 168.511 172.642 167.399 172.385 166.072C172.085 164.703 171.443 162.35 169.946 158.028L171.615 156.317C172.513 155.375 173.712 153.664 174.182 152.466C174.91 150.754 175.081 149.685 174.91 147.117C174.782 144.336 174.482 143.395 172.77 140.057C171.7 137.961 170.416 134.88 169.903 133.212C169.261 131.201 168.961 129.018 168.918 126.579C168.918 124.355 169.175 121.958 169.646 120.375C170.031 118.963 170.973 116.696 171.7 115.284C172.471 113.914 174.14 111.775 175.424 110.534C176.708 109.293 179.019 107.668 180.559 106.94Z" fill="#61ABDF"/>
<path d="M92.312 91.6223C92.312 90.6382 92.5688 90.0819 93.2963 89.5685C94.1951 88.9267 95.2222 88.8839 101.385 89.1406C105.836 89.3118 108.66 89.6113 109.003 89.9108C109.302 90.2103 109.559 91.066 109.516 91.8362C109.516 92.7775 109.217 93.4193 108.575 93.89C107.719 94.4462 106.521 94.489 100.529 94.2323C96.2493 94.0612 93.2535 93.7616 92.9112 93.4621C92.6116 93.2054 92.3548 92.3925 92.312 91.6223Z" fill="#161640"/>
<path d="M92.4404 81.5245C92.7399 81.0111 93.1679 80.4549 93.4247 80.2837C93.6815 80.1126 96.9768 79.9414 100.743 79.9414C106.135 79.9414 107.804 80.0698 108.532 80.5832C109.188 81.0111 109.516 81.6529 109.516 82.5086C109.516 83.1932 109.217 84.0918 108.832 84.4341C108.318 84.9475 106.82 85.0759 101.128 85.0759C97.2764 85.0759 93.8099 84.9475 93.3819 84.7336C92.9967 84.5624 92.5259 84.0062 92.312 83.45C92.098 82.8937 92.1408 82.1236 92.4404 81.5245Z" fill="#161640"/>
<path d="M100.529 20.5527C101.599 19.9109 103.824 19.0124 105.45 18.4562C107.077 17.9427 109.174 17.5148 110.03 17.472C110.928 17.472 112.255 17.7716 112.94 18.1139C113.625 18.4562 114.523 19.3975 114.909 20.1676C115.422 21.109 115.593 22.5209 115.55 24.8742C115.55 26.6713 115.208 29.3669 114.823 30.8645C114.438 32.3192 113.796 34.1591 113.325 34.9292C112.897 35.6566 112.127 36.5124 111.656 36.7263C111.185 36.9402 110.329 37.1542 109.73 37.1542C109.131 37.1542 107.847 36.7691 106.82 36.2984C105.836 35.8278 103.61 34.3302 101.898 33.0038C100.186 31.6346 98.2177 29.6664 97.4901 28.5967C96.8054 27.5271 96.249 26.1579 96.249 25.516C96.249 24.8315 96.7626 23.719 97.4045 22.9916C98.0893 22.2214 99.4588 21.1517 100.529 20.5527Z" fill="#161640"/>
<path d="M103.182 24.8742C103.953 24.4891 105.536 23.8473 106.735 23.4194C107.89 22.9915 109.217 22.6492 109.602 22.6492C110.03 22.6065 110.458 22.9488 110.586 23.3766C110.715 23.7617 110.715 24.7886 110.586 25.6016C110.415 26.4145 110.116 28.126 109.902 29.3668C109.688 30.6505 109.302 31.5918 109.003 31.5918C108.703 31.5918 107.077 30.5221 105.451 29.1957C103.824 27.9121 102.326 26.5429 102.155 26.2006C101.899 25.7727 102.241 25.3876 103.182 24.8742Z" fill="#E9C3D9"/>
<path d="M15.2343 12.2947C15.8762 11.6529 16.7322 11.0539 17.0746 10.9255C17.4169 10.7972 18.1017 10.6688 18.5725 10.6688C19.0432 10.6688 20.2843 10.84 21.3543 11.0967C22.4242 11.3534 24.992 12.3375 27.1319 13.3644C29.2717 14.3913 33.4658 16.7446 36.5472 18.6273C39.6286 20.5099 42.6672 22.1786 43.3947 22.3497C44.1223 22.5209 45.1922 22.4353 45.8342 22.1786C46.5189 21.9647 47.2465 21.7507 47.4604 21.7507C47.7172 21.7507 47.8456 24.4463 47.76 29.1957C47.6744 36.1272 47.7172 36.6835 48.5304 37.5392C49.0011 38.0527 50.0283 38.6517 50.7558 38.8656C51.8257 39.2079 52.5105 39.1223 53.5376 38.6517C54.308 38.3094 55.2067 37.5392 55.4635 36.9402C55.8059 36.2984 56.1482 32.6615 56.3194 27.3131C56.619 20.296 56.7902 18.7128 57.3038 18.5417C57.6461 18.4133 58.8872 18.1994 62.2254 17.8143L62.4822 32.9182C62.6534 43.1871 62.8674 48.3644 63.2097 49.049C63.5093 49.5624 64.2797 50.2898 65.0072 50.6321C65.7348 50.9744 66.7619 51.2739 67.3611 51.2739C67.9602 51.2739 69.0729 50.7177 71.2128 48.7923L70.7848 17.4292L72.7107 17.6859C73.7806 17.8143 75.0645 18.0282 75.5781 18.1566C76.5624 18.3277 76.5624 18.3277 76.5624 36.2984L77.8463 37.582C78.7879 38.5233 79.5154 38.8656 80.6281 38.8656C81.6981 38.8656 82.554 38.4805 84.9078 36.384L85.1218 20.4671L86.4913 20.9378C87.2617 21.1945 88.3744 21.2801 88.9735 21.1517C89.5727 20.9806 92.7397 19.3118 96.0351 17.472C99.3304 15.5894 103.139 13.6211 104.466 12.9793C105.836 12.3803 107.119 11.9952 107.376 12.1236C107.633 12.252 107.933 13.2361 108.061 14.3913C108.189 15.5038 108.318 16.659 108.361 16.9585C108.403 17.3008 107.291 17.8999 105.45 18.4989C103.824 19.0123 101.599 19.9109 100.529 20.5527C99.4588 21.1517 98.0893 22.2214 97.4046 22.9916C96.7626 23.7189 96.249 24.8314 96.249 25.516C96.249 26.1578 96.7626 27.4842 97.4046 28.4683C98.0893 29.4524 99.5444 31.0783 100.743 32.0625C101.898 33.0466 103.696 34.373 104.68 35.0576C106.435 36.2556 106.52 36.3412 106.092 37.7104C105.836 38.4378 105.664 39.8925 105.664 40.9194C105.664 42.0319 106.392 44.5563 107.633 47.7226C108.746 50.5038 110.072 54.5258 110.586 56.6223C111.142 58.7189 111.827 62.2275 112.084 64.324C112.384 66.4634 112.512 70.0575 112.384 72.4536C112.255 75.3204 111.827 77.6737 111.142 79.6419C110.629 81.225 110.03 82.5086 109.816 82.5086C109.645 82.5086 109.516 82.2091 109.516 81.8668C109.516 81.5245 109.088 80.9255 108.575 80.5832C107.804 80.0697 106.135 79.9414 100.743 79.9414C96.9766 79.9414 93.6812 80.1125 93.4244 80.2837C93.1677 80.4548 92.7397 81.0111 92.4401 81.5673C92.0977 82.2091 92.0977 82.8509 92.3973 83.5783C92.6541 84.1773 93.2533 84.7336 93.8096 84.8619C94.3232 84.9903 97.8753 85.0759 101.727 84.9903C105.536 84.9047 108.66 84.9475 108.66 85.0759C108.66 85.2042 108.018 86.1883 105.878 89.3118L100.315 89.0123C95.5215 88.7984 94.58 88.8411 93.5956 89.4829C92.6969 90.0392 92.3973 90.5526 92.3973 91.6223C92.3973 92.3497 92.6113 93.2482 92.9109 93.5477C93.2533 93.89 94.58 94.0612 96.463 94.0612C98.0893 94.0612 99.5872 94.1896 99.7584 94.3607C99.9296 94.5746 99.3732 95.2164 98.4745 95.8155C97.6185 96.4145 95.3503 97.8265 93.4672 98.8961C91.5842 99.9658 88.1176 101.635 85.7638 102.576C83.4099 103.517 79.6438 104.801 77.4184 105.4C75.1929 105.956 71.7264 106.769 69.7149 107.111C67.7034 107.496 63.9801 107.881 61.3695 108.01C58.6733 108.181 54.9071 108.053 52.5961 107.796C50.3706 107.496 46.6901 106.94 44.4647 106.469C42.2392 105.999 38.2591 104.929 35.6913 104.073C33.1234 103.218 29.3573 101.763 27.3458 100.822C25.3344 99.923 21.8678 97.912 19.6424 96.4145C17.4169 94.9169 14.1644 92.3069 12.4953 90.5526C9.4567 87.5147 9.3711 87.3436 8.90034 84.4341C8.55796 82.2091 8.55796 80.027 8.90034 75.8766C9.15712 72.7959 9.79907 68.3888 10.2698 66.0355C10.7406 63.6822 11.5965 60.302 12.1957 58.5478C12.7949 56.7935 14.1644 53.4561 17.2886 46.9524L15.7051 40.4488C14.8063 36.8546 13.822 32.1052 13.4368 29.8803C13.0944 27.6554 12.7949 23.9757 12.7949 21.7507C12.7949 19.4402 13.0516 16.7874 13.394 15.5466C13.7792 14.3485 14.5923 12.8938 15.2343 12.2947Z" fill="#61ABDF"/>
<path d="M22.5953 91.5795C22.5525 91.1516 22.8521 90.3815 23.28 89.868C23.922 88.9695 24.2216 88.9267 31.1975 88.9267C37.9166 88.9267 38.5586 89.0123 39.3289 89.7824C39.7997 90.2531 40.1849 91.0661 40.1849 91.6223C40.1849 92.1357 39.8425 92.9059 39.4145 93.3338C38.7726 94.0184 37.831 94.104 31.5399 94.0612C24.9491 94.0612 24.2644 93.9756 23.494 93.2054C23.0233 92.7348 22.6381 92.0074 22.5953 91.5795Z" fill="#161640"/>
<path d="M22.5525 82.3375C22.5097 81.8668 22.8521 81.1394 23.28 80.7115C23.9648 80.0269 24.8635 79.9414 31.4543 79.9414C38.687 79.9414 38.9009 79.9842 39.5429 80.9255C39.8853 81.4389 40.1849 82.2091 40.1849 82.637C40.1849 83.0221 39.7997 83.7494 39.3289 84.2201C38.5586 84.9903 37.9166 85.0758 31.8394 85.0758C27.6881 85.0758 24.8635 84.9047 24.2644 84.6052C23.708 84.3057 23.1516 83.8778 22.9805 83.6211C22.8093 83.3644 22.5953 82.7653 22.5525 82.3375Z" fill="#161640"/>
<path d="M59.5291 74.3362C59.8287 73.8656 60.4278 73.3093 60.8558 73.1382C61.3266 72.9243 62.0113 72.8815 62.3965 73.0098C62.7817 73.1382 63.7232 73.9084 65.9059 76.3045L67.2754 74.7213C68.3453 73.4805 68.9873 73.0954 70.0572 73.0954C70.9987 73.0954 71.6407 73.3949 72.0686 74.0795C72.411 74.593 72.7106 75.3204 72.7106 75.6626C72.7106 76.0049 72.1542 77.0318 71.4267 77.9304C70.1856 79.4707 70.1856 79.5563 70.9131 80.412C71.2983 80.9255 72.2826 81.6101 73.053 81.9096C73.7805 82.2519 74.8504 82.5086 75.4068 82.5086C75.9204 82.5086 76.6907 82.8509 77.1187 83.2788C77.5467 83.6639 77.889 84.4768 77.889 85.0758C77.889 85.6749 77.4611 86.5306 76.9903 87.0013C76.2199 87.7287 75.7064 87.8142 74.0801 87.6003C72.9674 87.4291 71.2983 86.9157 70.3568 86.445C69.4152 85.9744 68.1313 85.0758 66.291 83.3644L64.9215 84.4768C64.1512 85.1186 62.7389 85.9744 61.7974 86.445C60.8558 86.9157 59.1867 87.4291 58.074 87.6003C56.4477 87.8142 55.9342 87.7287 55.1638 87.0013C54.693 86.5306 54.2651 85.6321 54.3079 84.9903C54.3079 84.2201 54.6502 83.5355 55.2922 83.1504C55.8058 82.8081 56.6617 82.5086 57.2181 82.5086C57.7316 82.5086 58.93 82.1235 59.8715 81.6529C60.813 81.1822 61.669 80.626 61.7974 80.3692C61.9257 80.1125 61.3266 79.0856 60.5134 78.0159C59.7003 76.9463 59.0155 75.9194 59.0155 75.6626C59.0155 75.4059 59.2295 74.8497 59.5291 74.3362Z" fill="#161640"/>
<path d="M90.0006 63.3827C90.3858 62.6125 91.3273 61.5856 92.0976 61.0722C93.1676 60.4304 93.9379 60.2592 95.607 60.3876C97.4045 60.5587 97.9608 60.8583 99.1591 62.1419C100.272 63.3827 100.529 64.0245 100.529 65.6076C100.529 66.6773 100.186 68.0893 99.8011 68.8167C99.3731 69.5013 98.5172 70.357 97.8752 70.7421C97.1905 71.0844 95.821 71.3839 94.7511 71.3839C93.1676 71.3839 92.5256 71.1272 91.2845 70.0147C90.0862 68.9023 89.701 68.1749 89.5298 66.6773C89.3586 65.3509 89.5298 64.324 90.0006 63.3827Z" fill="#161640"/>
<path d="M32.0106 63.4683C32.4814 62.527 33.4229 61.4145 34.0649 61.0294C34.7068 60.6015 36.0335 60.2592 36.9751 60.2592C37.9594 60.2592 39.2861 60.6443 40.0993 61.115C40.8268 61.5856 41.7683 62.6553 42.1107 63.4683C42.4531 64.2812 42.7527 65.4365 42.7527 66.0355C42.7527 66.6345 42.4531 67.7042 42.1107 68.3888C41.7683 69.1162 40.9124 70.0575 40.1849 70.5282C39.4573 71.0416 38.1734 71.3839 37.1891 71.3839C36.2475 71.3839 34.9636 71.1272 34.3217 70.7849C33.6369 70.4854 32.8238 69.758 32.4386 69.2018C32.0534 68.6455 31.6255 67.4903 31.4543 66.6773C31.2403 65.5649 31.3687 64.7091 32.0106 63.4683Z" fill="#161640"/>
<path d="M17.9304 23.0343C18.1444 22.2214 18.8291 20.9805 19.5139 20.3387C20.6266 19.1835 20.8834 19.0979 23.494 19.269C25.6339 19.3974 27.089 19.7825 29.6996 21.0661C31.5827 21.9646 33.6797 23.1199 34.4073 23.6761C35.1348 24.1896 36.0335 25.3448 36.4615 26.2006C37.0179 27.3986 37.1035 27.9976 36.7183 28.939C36.5043 29.5808 35.4772 30.95 34.4929 31.9769C33.5085 33.0038 31.3259 34.7152 29.6996 35.8277C28.0733 36.9402 25.8479 38.0954 24.7779 38.3949C23.1516 38.8656 22.6381 38.8656 21.5682 38.3949C20.8834 38.0527 19.8991 37.0258 19.3427 36.0844C18.8291 35.1431 18.1872 33.2177 17.9732 31.8057C17.7164 30.3937 17.5024 28.1688 17.5024 26.8852C17.5024 25.6016 17.6736 23.8473 17.9304 23.0343Z" fill="#161640"/>
<path d="M22.5957 27.0564C22.5529 25.8583 22.6385 24.7459 22.8524 24.6175C23.0664 24.4464 23.4088 24.318 23.6656 24.318C23.9224 24.318 24.9923 24.6175 26.0622 24.9598C27.1321 25.3449 28.7156 26.1151 31.1979 27.741L30.2563 28.8534C29.7 29.4525 28.0737 30.7361 26.5758 31.7202C25.1207 32.7043 23.7512 33.3461 23.58 33.1322C23.4088 32.961 23.152 31.9769 22.9808 30.9928C22.8096 30.0515 22.6385 28.2544 22.5957 27.0564Z" fill="#E9C3D9"/>
<path d="M107.547 11.6102C107.547 11.5674 108.66 11.2251 109.944 10.8828C111.228 10.4977 113.197 10.241 114.267 10.3265C115.337 10.3693 116.578 10.7116 117.006 11.0539C117.434 11.3962 118.161 12.5515 118.632 13.6212C119.274 15.0331 119.531 16.8302 119.702 20.4671C119.83 23.2483 119.659 27.2703 119.359 29.6664C119.06 32.0197 118.29 36.1701 117.648 38.8657C116.963 41.5612 116.15 44.5564 115.807 45.4977C115.208 47.2092 115.208 47.252 117.476 51.9158C118.718 54.5258 120.344 58.3766 121.029 60.4732C121.713 62.5698 122.74 66.3351 123.254 68.8167C123.939 72.1969 124.196 74.8925 124.238 79.7275C124.281 85.7177 124.196 86.3595 123.083 89.3546C122.441 91.1089 121.285 93.5905 120.515 94.8742C119.787 96.115 117.947 98.4255 116.535 100.009C115.08 101.549 112.384 103.945 110.543 105.271C108.66 106.598 105.151 108.737 102.669 110.021C100.186 111.304 96.3347 113.059 94.1092 113.872C91.8838 114.727 88.1176 115.883 85.7638 116.482C83.41 117.081 79.5582 117.851 77.2044 118.236C74.765 118.664 70.4425 118.963 67.1471 118.963C63.9373 118.963 59.2725 118.621 56.6618 118.236C54.094 117.851 49.7287 116.952 47.0325 116.268C44.3363 115.54 39.8854 114.128 37.1892 113.059C34.493 111.946 30.898 110.363 29.2718 109.465C27.6455 108.566 24.8209 106.812 23.0662 105.571C21.3115 104.33 18.6153 102.02 17.0746 100.437C15.5339 98.8534 13.6508 96.5429 12.9233 95.302C12.1529 94.0184 11.0402 91.8363 10.4839 90.4243C9.8847 89.0123 9.45673 87.8143 9.49953 87.7287C9.54233 87.6859 10.9118 88.9695 12.5809 90.681C14.25 92.3497 17.417 94.9597 19.6424 96.4145C21.8679 97.9121 25.3344 99.9231 27.3459 100.822C29.3573 101.763 33.1235 103.218 35.6913 104.073C38.2591 104.929 42.2392 105.999 44.4647 106.47C46.6901 106.94 50.3707 107.496 52.5961 107.796C54.9072 108.053 58.6733 108.181 61.3695 108.01C63.9801 107.881 67.7035 107.496 69.7149 107.111C71.7264 106.769 75.1929 105.956 77.4184 105.4C79.6438 104.801 83.41 103.517 85.7638 102.576C88.1176 101.635 91.5842 99.9659 93.4673 98.8962C95.3503 97.8265 97.6186 96.4145 98.4745 95.8155C99.3733 95.2165 100.015 94.6174 99.9296 94.4891C99.8012 94.3607 101.513 94.3179 103.653 94.4035C106.649 94.4891 107.804 94.3607 108.575 93.8473C109.217 93.4194 109.516 92.7776 109.516 91.7935C109.516 91.0661 109.302 90.1676 109.003 89.8681C108.703 89.5686 107.933 89.3546 107.291 89.3546C106.606 89.3546 106.092 89.269 106.092 89.1407C106.092 89.0123 106.777 87.8998 107.633 86.659C108.446 85.461 109.217 84.0062 109.345 83.45C109.431 82.9365 109.645 82.5087 109.859 82.5087C110.03 82.5087 110.629 81.225 111.142 79.6419C111.827 77.6737 112.255 75.3204 112.384 72.4536C112.512 70.0576 112.384 66.4634 112.084 64.3241C111.827 62.2275 111.142 58.7189 110.586 56.6224C110.073 54.5258 108.746 50.5038 107.633 47.7226C106.221 44.0857 105.664 42.1603 105.707 40.6627C105.75 39.5502 105.878 38.1811 106.05 37.582C106.221 36.983 106.649 36.5551 106.991 36.5979C107.334 36.6407 108.061 36.8119 108.66 36.983C109.259 37.1114 110.244 37.1542 110.886 36.983C111.613 36.8119 112.469 36.0845 113.111 35.1004C113.71 34.2446 114.481 32.3192 114.823 30.8216C115.208 29.3669 115.551 26.6713 115.551 24.8314C115.593 22.5209 115.422 21.1089 114.909 20.1248C114.523 19.3974 113.625 18.4561 112.94 18.1138C112.255 17.7715 110.971 17.472 110.158 17.472C109.345 17.472 108.575 17.2153 108.489 16.9158C108.403 16.6591 108.147 15.3327 107.89 14.049C107.676 12.7654 107.505 11.653 107.547 11.6102Z" fill="#7377C6"/>
</svg>
