<svg width="169" height="123" viewBox="0 0 169 123" fill="none" xmlns="http://www.w3.org/2000/svg">
<path d="M93.2642 1.32294C95.2823 0.926055 98.3923 0.496101 100.212 0.330734C102.032 0.19844 103.983 0.0330734 104.513 0C105.042 0 107.126 0.132294 109.145 0.297661C111.163 0.463028 113.809 0.793762 115.1 0.992202C116.39 1.19064 119.103 1.78596 121.121 2.31514C123.172 2.84431 125.984 3.73729 127.341 4.26647C128.697 4.82872 130.848 5.78785 132.138 6.41624C133.428 7.04464 134.686 7.90454 134.95 8.3345C135.215 8.73138 135.447 9.59129 135.447 10.2197C135.447 10.8481 135.182 11.708 134.851 12.0718C134.553 12.4687 133.958 12.9648 133.528 13.1632C133.131 13.3617 132.535 13.527 132.204 13.527C131.906 13.527 130.385 12.9317 128.83 12.171C127.275 11.4434 124.76 10.385 123.205 9.85588C121.65 9.29363 119.202 8.56601 117.746 8.23528C116.291 7.90454 113.611 7.44152 111.791 7.21C109.641 6.94542 106.498 6.87927 102.859 7.01156C99.1201 7.14386 96.1756 7.44152 94.0913 7.87147C92.3709 8.26835 89.7573 8.96289 88.3016 9.42592C86.8459 9.92202 84.1661 11.0134 82.3464 11.8734C80.5268 12.7663 77.9132 14.2216 76.5567 15.1476C75.2003 16.0406 70.6347 19.4802 66.466 22.7876C62.4795 25.9256 59.1184 28.617 58.6434 28.9974L58.592 29.0385C58.4597 29.1377 58.956 30.4937 59.6838 32.0481C60.4117 33.6026 61.3049 36.05 61.7019 37.5052C62.1982 39.4897 62.3967 41.1764 62.3967 44.1199C62.3967 47.1296 62.2313 48.7171 61.7019 50.7346C61.3049 52.1898 60.4778 54.505 59.8161 55.861C59.1545 57.217 57.9965 59.2345 57.2025 60.3259C56.4416 61.4173 54.9197 63.1371 53.861 64.1624C52.7692 65.1877 50.9496 66.6429 49.7586 67.4036C48.5675 68.1643 46.5494 69.2226 45.2922 69.7187C44.0019 70.2479 41.8184 70.9094 40.3957 71.207C38.5761 71.6039 35.9956 71.7362 31.1322 71.7362C26.5004 71.7362 23.7213 71.5709 22.1333 71.2401C20.8761 70.9755 19.6189 70.744 19.3873 70.744C19.1226 70.744 18.9903 71.3724 18.9903 72.8276C18.9903 73.9521 19.2219 75.9035 19.4866 77.1933C19.7512 78.4832 20.6114 80.7653 22.795 85.0648L27.7576 84.9987C30.7352 84.9325 33.3157 84.7341 34.209 84.4364C35.0361 84.2049 36.4256 83.5104 37.3189 82.915C38.2122 82.3197 39.4694 81.096 40.1311 80.203C40.7928 79.277 41.7853 78.384 42.3808 78.1194C43.2079 77.7887 43.7042 77.7887 44.3658 78.0532C44.8952 78.2517 45.5569 78.6486 45.8877 78.9462C46.2186 79.2439 46.5494 79.9715 46.6486 80.5007C46.781 81.1291 46.6156 81.989 46.2516 82.8158C45.9208 83.5434 44.6636 85.0979 43.4726 86.3216C42.083 87.6776 40.5612 88.8352 39.1716 89.5297C37.9806 90.092 36.1279 90.7865 35.0361 91.0842C33.7458 91.4149 31.5292 91.5803 28.7501 91.5803C25.9049 91.5803 23.8868 91.7456 22.795 92.0764C21.8686 92.341 20.5453 92.9694 19.8174 93.4985C19.0896 94.0277 17.9978 95.1853 17.4023 96.0782C16.8067 96.9712 16.3436 97.7981 16.3436 97.9634C16.3436 98.0957 30.0073 98.1949 77.053 98.1949L77.5162 96.8059C77.7477 96.0121 78.3433 94.6561 78.8064 93.73C79.2696 92.8371 80.4937 91.1834 81.5193 90.092C82.7765 88.769 84.2322 87.6776 85.8534 86.8838C87.4414 86.057 89.1618 85.4948 90.7829 85.2302C92.1394 85.0317 93.2973 84.8333 93.3635 84.8333C93.3966 84.8002 92.9003 83.9072 92.2717 82.8158C91.61 81.7244 90.7829 80.0046 90.419 79.0124C90.022 78.0202 89.4926 76.1681 89.228 74.8782C88.864 73.2245 88.7648 71.3724 88.8971 68.4289C89.0294 65.1546 89.2279 63.7325 89.9227 61.6488C90.3859 60.1936 91.4115 57.8785 92.1394 56.5224C93.0988 54.7696 94.4552 53.1159 96.705 50.9C99.1201 48.4856 100.51 47.4273 102.528 46.3689C103.983 45.6082 106.134 44.6822 107.325 44.3184C108.516 43.9215 110.733 43.4585 112.288 43.26C114.67 42.9624 115.298 42.9954 116.324 43.4254C117.118 43.7561 117.78 44.3514 118.11 45.046C118.441 45.6744 118.574 46.4681 118.441 47.0304C118.342 47.5265 117.912 48.2872 117.482 48.6841C116.886 49.3455 116.258 49.5109 114.107 49.7093C112.652 49.8416 110.269 50.3377 108.814 50.8338C107.358 51.363 105.34 52.2891 104.347 52.9505C103.355 53.612 101.701 55.0011 100.708 56.0925C99.7156 57.1508 98.3592 59.0691 97.6644 60.3259C97.0027 61.6158 96.2418 63.534 95.944 64.6254C95.6463 65.7169 95.4147 67.9328 95.4147 69.5864C95.4147 71.2401 95.6463 73.456 95.944 74.5475C96.2418 75.6389 97.0027 77.5571 97.6313 78.847C98.4915 80.5007 99.6825 82.022 101.767 84.1387C104.248 86.6523 104.678 87.2807 104.678 88.2068C104.678 88.769 104.546 89.5628 104.347 89.9266C104.149 90.2904 103.686 90.7865 103.256 91.018C102.792 91.2826 100.41 91.481 96.5726 91.5803C90.9814 91.7787 90.5182 91.8449 88.9633 92.6386C88.0369 93.1016 86.8459 93.9946 86.2835 94.623C85.721 95.2183 85.0263 96.0782 84.6954 96.5413C84.3977 97.0043 84.1661 97.5666 84.1661 97.7981C84.1661 98.0957 88.07 98.1949 102.594 98.1949C117.449 98.1949 121.683 98.0957 124.363 97.6988C126.183 97.4012 128.962 96.7397 130.55 96.2105C132.171 95.6483 134.388 94.7553 135.513 94.1931C136.671 93.6308 138.623 92.4733 139.913 91.6464C141.203 90.7865 143.486 88.9013 145.008 87.4461C146.53 85.9909 148.614 83.6757 149.64 82.3197C150.665 80.9637 152.121 78.6486 152.882 77.1933C153.643 75.7381 154.701 73.1915 155.231 71.5709C155.76 69.9503 156.422 67.569 156.653 66.2791C156.951 64.8239 157.117 61.7811 157.117 58.0108C157.084 53.2482 156.951 51.3299 156.389 48.4195C155.992 46.402 155.098 43.2269 154.437 41.3087C153.775 39.3904 152.518 36.3807 151.625 34.6279C150.731 32.8419 150.004 31.0229 150.004 30.5598C150.004 30.0637 150.467 29.27 151.128 28.5754C151.856 27.8478 152.551 27.4179 153.113 27.4179C153.577 27.4179 154.371 27.6163 154.867 27.8809C155.495 28.1785 156.29 29.2369 157.348 31.2544C158.208 32.875 159.399 35.5539 160.028 37.1745C160.69 38.7951 161.583 41.6394 162.013 43.4585C162.476 45.2775 163.039 47.8903 163.27 49.2463C163.568 50.7677 163.733 54.3065 163.733 58.3415C163.733 63.534 163.601 65.5515 163.105 67.7674C162.774 69.3219 162.212 71.5047 161.252 74.7128L162.84 76.6311C163.7 77.6564 164.958 79.4092 165.619 80.5007C166.281 81.5921 167.307 83.9072 167.935 85.6271C168.961 88.6367 169.027 88.9675 168.994 93.5647C168.961 97.765 168.861 98.7241 168.101 101.271C167.604 102.858 166.711 105.14 166.082 106.397C165.454 107.621 164.296 109.506 163.502 110.597C162.675 111.689 161.219 113.376 160.227 114.335C159.234 115.327 157.613 116.683 156.62 117.378C155.628 118.039 153.907 119.064 152.816 119.593C151.724 120.156 149.805 120.949 148.515 121.313C147.224 121.71 144.644 122.272 142.725 122.504C139.946 122.901 133.263 123 109.31 123C86.482 123 79.0711 122.901 78.0786 122.57C77.3838 122.372 76.5236 121.809 76.1597 121.346C75.7296 120.751 75.5311 119.99 75.5642 118.7C75.5642 117.708 75.8289 115.757 76.1928 114.401C76.5236 113.045 77.2184 111.094 77.7147 110.101C78.2109 109.109 79.1042 107.621 79.7328 106.794C80.3283 105.967 80.8246 105.207 80.8577 105.074C80.8577 104.909 65.3081 104.81 46.2847 104.81C17.7662 104.81 11.5464 104.743 10.8185 104.347C10.2892 104.115 9.69366 103.387 9.42898 102.792C9.09814 101.998 9.03197 101.105 9.16431 99.7825C9.29665 98.7241 9.72674 97.0043 10.0907 95.979C10.4877 94.9207 11.3479 93.267 12.0095 92.2748C12.6712 91.2826 13.9615 89.8274 16.509 87.5784L15.6157 85.8586C15.1195 84.8994 14.3585 83.1135 13.9284 81.8236C13.4652 80.5337 12.9359 78.3178 12.7043 76.8626C12.4396 75.2089 12.3404 72.993 12.6712 67.602L10.3223 65.783C9.03197 64.7908 7.08001 62.8395 5.98823 61.4835C4.89645 60.1275 3.37458 57.6469 2.58056 56.0264C1.81963 54.4058 0.893272 52.0906 0.595515 50.9C0.165421 49.3455 0 47.4934 0 44.2853C0 41.011 0.165421 39.192 0.595515 37.5052C0.926356 36.2485 1.78654 33.9333 2.5144 32.3789C3.24225 30.8244 4.10243 29.2038 4.43328 28.7408C4.96262 28.0132 4.99571 27.7155 4.66487 26.4257C4.46636 25.5988 4.30094 22.8537 4.30094 20.3071C4.30094 17.7604 4.49944 15.0484 4.69795 14.2877C4.92954 13.494 5.49197 12.4025 6.02132 11.8403C6.51758 11.245 7.27851 10.6166 7.74169 10.385C8.20487 10.1535 9.09814 9.85588 9.72674 9.72358C10.5208 9.59129 11.4802 9.72358 12.7043 10.1205C13.6968 10.4843 15.5826 11.3773 16.8398 12.1379C18.1301 12.8656 20.0159 14.1554 22.9604 16.5036H39.5025L40.5612 15.5776C41.1567 15.0815 42.5462 14.0562 43.638 13.3286C44.7298 12.5679 46.384 11.5757 47.2772 11.1127C48.2036 10.6827 49.5601 10.1205 50.3541 9.92202C51.3797 9.65744 52.1075 9.65744 53.1331 9.92202C53.9272 10.1205 54.9528 10.5835 55.449 10.9142C55.9784 11.245 56.6731 12.1379 57.0371 12.8656C57.4341 13.6593 57.8311 15.4453 58.0296 17.2643C58.195 18.918 58.3604 20.4063 58.3604 20.5717C58.3604 20.704 61.1395 18.5873 64.5472 15.8752C67.9879 13.1963 71.958 10.1866 73.4137 9.22748C74.8694 8.30142 77.5492 6.81312 79.3689 5.92014C81.1885 5.06023 84.2322 3.80344 86.1511 3.17505C88.07 2.54665 91.2461 1.68674 93.2642 1.32294Z" fill="#151642"/>
<path d="M152.385 89.4305C153.643 87.9752 155.429 85.627 156.356 84.2379V84.2049C157.282 82.8158 158.175 81.6582 158.308 81.6582C158.473 81.6582 159.035 82.3527 159.598 83.2127C160.127 84.1056 160.987 85.9247 161.484 87.2807C162.278 89.4635 162.41 90.2242 162.377 93.5646C162.377 96.2436 162.211 97.9634 161.781 99.3525C161.451 100.444 160.623 102.461 159.929 103.817C159.201 105.173 157.712 107.323 156.554 108.58C155.396 109.837 153.51 111.49 152.319 112.251C151.128 113.012 149.209 114.037 148.018 114.5C146.827 114.963 144.975 115.492 143.883 115.691C142.559 115.955 132.204 116.055 82.5117 116.055L82.7102 115.294C82.8426 114.897 83.3057 113.739 83.802 112.747C84.2652 111.755 85.4562 110.167 86.4156 109.208C87.342 108.249 88.93 107.059 89.8895 106.596C90.8158 106.099 92.073 105.57 92.6024 105.372C93.1979 105.173 99.9801 104.942 109.144 104.81C122.08 104.611 125.124 104.479 127.175 103.983C128.532 103.685 130.848 103.057 132.303 102.594C133.759 102.131 136.307 101.138 137.928 100.345C139.549 99.5509 141.964 98.1949 143.287 97.3019C144.611 96.442 146.662 94.8876 147.886 93.8954C149.077 92.9032 151.095 90.8857 152.385 89.4305Z" fill="#B68FFF"/>
<path d="M10.8848 22.4569C10.7525 21.2662 10.7525 19.4472 10.8848 18.4219L11.1164 16.5037L12.142 17.0659C12.7375 17.3636 14.0278 18.1573 15.0203 18.8188C16.0128 19.4803 17.7332 20.8363 18.7919 21.8285C20.7108 23.5814 20.777 23.6144 22.4312 23.4822C23.3575 23.3829 27.2284 23.3168 31.0661 23.3168C34.9039 23.2837 38.6755 23.416 39.5026 23.5483C40.7929 23.7798 41.1568 23.7137 42.0501 23.0522C42.6125 22.6222 44.1013 21.4316 45.3585 20.3733C46.5826 19.348 48.4684 18.025 51.4129 16.5037L51.479 18.4219V18.4223C51.479 19.4476 51.479 21.1341 51.446 22.1261C51.3798 23.1183 51.2144 24.6066 51.049 25.4335C50.8835 26.2603 50.6519 27.5171 50.5527 28.2447C50.3873 29.4354 50.5196 29.7992 51.9422 31.8828C52.8024 33.1396 53.9273 35.2563 54.4235 36.5131C54.9198 37.7699 55.4822 40.0519 55.6807 41.5733C55.9454 43.4585 55.9454 45.0129 55.7138 46.6997C55.5153 47.9895 55.0521 50.0401 54.6551 51.2307C54.2581 52.4214 53.2325 54.4389 52.3723 55.6957C51.5452 56.9524 49.9572 58.8046 48.8985 59.7637C47.8067 60.7228 45.7555 62.1119 44.2998 62.8395C42.8441 63.5341 40.7598 64.3609 39.668 64.6255C38.2123 64.9893 35.9295 65.1216 31.2316 65.1216C26.6329 65.1216 24.1515 64.9562 22.6297 64.5924C21.4386 64.3278 19.3874 63.534 18.031 62.8726C16.6084 62.178 14.6233 60.789 13.3992 59.6314C12.2082 58.54 10.587 56.6548 9.82611 55.4972C9.06517 54.3396 8.03956 52.1899 7.57638 50.7346C7.01395 49.081 6.61694 47.0304 6.51769 45.2775C6.41844 43.3593 6.51769 41.6725 6.88162 39.9858C7.17937 38.6298 7.94031 36.4469 8.56891 35.1901C9.16442 33.9333 10.2231 32.0482 12.1089 29.2369L11.6126 26.9218C11.3149 25.665 10.9841 23.6475 10.8848 22.4569Z" fill="#B68FFF"/>
<path d="M25.9711 50.8008C26.0042 49.8086 26.2689 49.2463 27.096 48.3864C28.1547 47.295 28.2539 47.2619 30.8676 47.2619C32.5879 47.2619 33.9113 47.4273 34.5399 47.758C35.1354 48.0557 35.7309 48.7502 36.0618 49.4778C36.3926 50.2385 36.4919 51.1646 36.3926 51.793C36.2603 52.4875 35.5655 53.5459 34.4407 54.7034C32.9519 56.2579 32.5549 56.5225 31.4962 56.5225C30.8014 56.5225 29.842 56.324 29.3457 56.0594C28.8164 55.7949 28.0554 55.1003 27.5922 54.505C27.1291 53.9097 26.5997 53.1159 26.3681 52.719C26.1365 52.3552 25.9711 51.4953 25.9711 50.8008Z" fill="#151642"/>
<path d="M38.6093 38.5967C38.8409 38.2659 39.4695 37.8029 39.9988 37.5053C40.5612 37.2407 41.0906 37.0092 41.2229 37.0092C41.3883 37.0092 42.0169 37.2407 42.6455 37.5053C43.4175 37.836 43.9689 38.3872 44.2997 39.1589C44.5644 39.7873 44.7298 40.6472 44.6306 41.0441C44.5313 41.4741 44.0681 42.2017 43.605 42.6978C42.9433 43.3923 42.4139 43.6238 41.4545 43.6238C40.462 43.6238 39.9326 43.3923 39.1717 42.6316C38.4108 41.8709 38.1792 41.3418 38.1792 40.3826C38.1792 39.7212 38.3777 38.8943 38.6093 38.5967Z" fill="#151642"/>
<path d="M18.4941 38.4313C18.9573 37.836 19.652 37.3068 20.0821 37.2407C20.4792 37.1745 21.1739 37.1745 21.6371 37.2737C22.1003 37.3399 22.8943 37.8691 23.4236 38.4313C24.2507 39.3574 24.35 39.6881 24.1846 40.8126C24.0522 41.6394 23.6883 42.4001 23.159 42.8631C22.5635 43.3923 21.8687 43.6238 20.9754 43.6238C20.0821 43.6238 19.3874 43.3923 18.7919 42.8631C18.2294 42.367 17.8986 41.7056 17.8324 40.8126C17.7332 39.7542 17.8655 39.2251 18.4941 38.4313Z" fill="#151642"/>
<path d="M94.7532 7.77225C96.3081 7.50767 98.0947 7.21 98.7233 7.14386C99.3519 7.07771 102.065 6.97849 104.745 6.97849C107.457 6.94542 110.799 7.07771 112.189 7.24308C113.611 7.44152 115.894 7.8384 117.25 8.13606C118.607 8.43372 121.154 9.16134 122.875 9.75666C124.595 10.352 127.275 11.4434 128.83 12.171C130.385 12.9317 131.907 13.527 132.204 13.527C132.535 13.527 133.263 13.2955 133.792 13.0309C134.322 12.7663 134.785 12.3695 134.785 12.2041C134.785 12.0056 134.917 11.8734 135.116 11.8734C135.314 11.8734 136.075 12.3033 136.836 12.8325C137.63 13.3617 139.053 14.3869 139.979 15.1476L140.08 15.227C141.701 16.504 141.723 16.5214 141.236 17.3966C140.972 17.9258 140.74 18.5873 140.74 18.8849C140.74 19.2157 140.972 19.9102 141.236 20.4724C141.501 21.0016 142.03 21.5969 142.394 21.7954C142.758 21.9938 143.519 22.1261 144.049 22.1261C144.578 22.1261 145.438 21.9277 145.901 21.6962C146.662 21.3324 146.828 21.3985 147.39 22.1261C147.754 22.5891 148.879 24.0444 151.658 27.7486L150.831 28.7408C150.368 29.27 150.004 30.0968 150.004 30.5598C150.004 31.0229 150.732 32.8419 151.625 34.5948C152.518 36.3808 153.775 39.3904 154.437 41.3087C155.099 43.227 155.992 46.402 156.389 48.4195C156.951 51.3299 157.084 53.2482 157.117 58.0108C157.117 61.7811 156.951 64.8239 156.654 66.2791C156.422 67.569 155.76 69.9503 155.231 71.5709C154.702 73.1915 153.643 75.7381 152.882 77.1933C152.121 78.6486 150.665 80.9637 149.64 82.3197C148.614 83.6757 146.53 85.9909 145.008 87.4461C143.486 88.9013 141.203 90.7865 139.913 91.6464C138.623 92.4733 136.671 93.6308 135.513 94.1931C134.388 94.7553 132.171 95.6483 130.55 96.2106C128.962 96.7397 126.183 97.4012 124.363 97.6989C121.684 98.0957 117.449 98.195 102.594 98.195C88.0702 98.195 84.1662 98.0957 84.1662 97.765C84.1662 97.5666 84.3978 97.0043 84.6956 96.5413C85.0264 96.0783 85.7212 95.2183 86.2836 94.623C86.8461 93.9946 88.0371 93.1016 88.9634 92.6386C90.5184 91.8449 90.9816 91.7787 96.5728 91.5803C100.411 91.4811 102.793 91.2826 103.256 90.985C103.686 90.7865 104.149 90.2904 104.348 89.9266C104.546 89.5628 104.678 88.769 104.678 88.1737C104.678 87.2807 104.248 86.6523 101.767 84.1388C99.6827 82.0221 98.4917 80.5007 97.6315 78.847C97.0029 77.5572 96.242 75.6389 95.9442 74.5475C95.6464 73.456 95.4149 71.2401 95.4149 69.5865C95.4149 67.9328 95.6464 65.7169 95.9442 64.6254C96.242 63.534 97.0029 61.6158 97.6646 60.3259C98.3593 59.0691 99.7158 57.1509 100.708 56.0925C101.701 55.0011 103.355 53.612 104.348 52.9505C105.34 52.2891 107.358 51.363 108.814 50.8338C110.27 50.3377 112.652 49.8416 114.107 49.7093C116.258 49.5109 116.886 49.3455 117.482 48.6841C117.912 48.2872 118.342 47.5265 118.441 46.9973C118.574 46.4681 118.441 45.6744 118.111 45.0129C117.78 44.3514 117.118 43.7561 116.357 43.4254C115.298 42.9954 114.67 42.9624 112.288 43.26C110.733 43.4585 108.516 43.9215 107.325 44.3184C106.134 44.6822 103.984 45.6082 102.528 46.3689C100.51 47.4273 99.1203 48.4856 96.7051 50.9C94.4554 53.1159 93.099 54.7696 92.1395 56.5225C91.4117 57.8785 90.3861 60.1936 89.9229 61.6488C89.2281 63.7325 89.0296 65.1546 88.8973 68.4289C88.7649 71.3724 88.8642 73.2245 89.2281 74.8782C89.4928 76.1681 90.0221 78.0202 90.4192 79.0124C90.7831 80.0046 91.6102 81.7244 92.2719 82.8158C92.9005 83.9072 93.3967 84.8002 93.3636 84.8333C93.2975 84.8333 92.1395 85.0317 90.7831 85.2302C89.1619 85.4948 87.4416 86.057 85.8535 86.8839C84.2324 87.6776 82.7767 88.769 81.5195 90.092C80.4939 91.1834 79.2698 92.804 78.8066 93.73C78.3434 94.623 77.7479 96.0121 77.0532 98.195H46.715C30.0075 98.195 16.3438 98.0957 16.3438 97.9304C16.3438 97.7981 16.8069 96.9712 17.4024 96.0783C17.998 95.1853 19.0897 94.0277 19.8176 93.4985C20.5454 92.9694 21.9019 92.341 22.7952 92.0764C23.8869 91.7456 25.9051 91.5803 28.7503 91.5803C31.5294 91.5803 33.746 91.4149 35.0363 91.0842C36.1281 90.7865 37.9808 90.092 39.1718 89.5297C40.5613 88.8352 42.0832 87.6776 43.4727 86.3216C44.6638 85.0979 45.921 83.5434 46.2518 82.8158C46.6157 81.989 46.7812 81.1291 46.6488 80.5007C46.5496 79.9715 46.2187 79.2439 45.8879 78.9462C45.5571 78.6486 44.8954 78.2517 44.3991 78.0532C43.7043 77.7887 43.2081 77.7887 42.4141 78.1194C41.7855 78.384 40.7929 79.277 40.1313 80.203C39.4696 81.096 38.2124 82.3197 37.3191 82.915C36.4258 83.5104 35.0363 84.2049 34.2092 84.4364C33.3159 84.7341 30.7354 84.9325 22.7952 85.0648L21.3725 82.2866C20.6116 80.7653 19.7514 78.4832 19.4867 77.1933C19.2221 75.9035 18.9905 73.9521 18.9905 72.7946C18.9905 71.3724 19.1228 70.744 19.4206 70.744C19.6191 70.744 20.8763 70.9755 22.1335 71.2401C23.7215 71.5709 26.5006 71.7362 31.1654 71.7362C35.9957 71.7362 38.5763 71.6039 40.429 71.2071C41.8185 70.9094 44.0352 70.2479 45.2924 69.7188C46.5496 69.2226 48.5677 68.1643 49.7587 67.4036C50.9498 66.6429 52.7694 65.1877 53.8612 64.1624C54.9199 63.1371 56.4417 61.4173 57.2027 60.3259C57.9967 59.2345 59.1546 57.217 59.8163 55.861C60.478 54.505 61.3051 52.1898 61.7021 50.7346C62.2315 48.7171 62.3969 47.1296 62.3969 44.1199C62.3969 41.1764 62.1984 39.4897 61.7021 37.5052C61.3051 36.05 60.4118 33.6026 59.684 32.0481C58.9561 30.4937 58.4599 29.1377 58.5922 29.0385C58.7576 28.9062 62.2645 26.0949 66.4662 22.7876C70.6679 19.4802 75.2004 16.0406 76.5569 15.1476C77.9133 14.2216 80.527 12.7663 82.3466 11.8734C84.1662 11.0134 87.0777 9.8228 88.798 9.29363C90.5184 8.73138 93.1982 8.06991 94.7532 7.77225Z" fill="#B68FFF"/>
<path d="M141.633 16.7682C141.964 16.4706 142.592 16.0737 143.056 15.8753C143.519 15.6768 144.247 15.6107 144.71 15.7099C145.173 15.776 145.934 16.3052 146.43 16.8344C147.026 17.4628 147.356 18.1904 147.356 18.8188C147.356 19.381 147.191 20.1417 147.026 20.5717C146.827 20.9686 146.331 21.4977 145.868 21.7293C145.405 21.9277 144.577 22.1261 144.048 22.1261C143.519 22.1261 142.758 21.9938 142.394 21.7954C142.03 21.597 141.501 20.9686 141.203 20.4063C140.872 19.7448 140.74 18.918 140.872 18.3227C140.971 17.7604 141.302 17.0659 141.633 16.7682Z" fill="#151642"/>
</svg>
