<svg width="147" height="147" viewBox="0 0 147 147" fill="none" xmlns="http://www.w3.org/2000/svg">
<path d="M21.3593 4.76602C24.5183 2.81367 27.6198 0.947461 28.2516 0.631641C29.1131 0.172266 29.946 0.0287109 31.4967 0C33.2772 0 33.7942 0.114844 35.3449 0.91875C36.2926 1.43555 37.4988 2.32559 37.9582 2.87109C38.4465 3.4166 39.107 4.4502 39.4229 5.16797C39.8536 6.08672 40.0259 7.06289 40.0259 8.61328C40.0259 10.3646 39.8823 11.0537 39.2506 12.3457C38.8485 13.207 38.0731 14.298 37.5275 14.7861C37.0106 15.2455 33.9377 17.2553 30.7213 19.2363C26.2126 21.9926 24.3747 23.3133 22.7378 24.8924C21.0721 26.5576 20.3829 27.5338 19.3491 29.6297C18.4875 31.4098 17.8845 33.1324 17.5973 34.7402C17.2527 36.4342 17.1665 37.9271 17.3101 39.6211C17.425 41.1428 17.7983 42.9229 18.2865 44.3584C18.7173 45.6217 19.6937 47.5453 20.4116 48.665C21.1583 49.7561 23.226 52.1104 28.2516 57.1061L30.6065 55.326C31.8701 54.3498 33.9377 53.0004 35.2013 52.3687C36.4362 51.7084 38.4177 50.8184 39.5952 50.4164C40.7726 49.9857 43.0126 49.3828 44.5634 49.0957C46.3151 48.7225 48.5264 48.5215 50.508 48.5215C53.6382 48.5215 53.6669 48.5215 54.5285 49.3828C55.1603 50.0145 55.39 50.5025 55.39 51.3064C55.4187 52.0816 55.189 52.6271 54.672 53.1727C54.27 53.632 53.6669 54.034 53.3223 54.0914C52.949 54.1775 51.1685 54.2924 49.3592 54.3785C47.3203 54.4646 45.1951 54.723 43.7593 55.125C42.4957 55.4408 40.1695 56.3596 38.59 57.1348C37.0106 57.91 34.6557 59.3742 33.3634 60.4078C32.0424 61.4701 30.147 63.365 29.1131 64.657C28.0793 65.9777 26.6721 68.1885 25.9542 69.624C25.2362 71.0309 24.3173 73.3564 23.8865 74.792C23.1973 77.1463 23.1111 77.7779 23.1111 82.2568C23.1111 86.7357 23.1973 87.3387 23.8865 89.6356C24.3173 91.0424 29.2855 102.785 34.9716 115.763C41.4618 130.692 45.5398 139.679 46.028 140.167C46.43 140.626 47.2054 141.057 47.7223 141.143C48.2105 141.258 49.0433 141.229 49.5028 141.114C49.991 140.999 50.7951 140.483 51.3121 139.937C52.0013 139.191 52.231 138.703 52.231 137.87C52.2597 137.296 51.0536 130.807 49.589 123.457C47.0905 110.853 46.9757 110.049 47.349 109.13C47.5787 108.613 48.1244 107.982 48.5839 107.781C49.0146 107.551 49.6177 107.379 49.9336 107.379C50.2495 107.379 50.8526 107.551 51.3121 107.781C51.7428 107.982 52.231 108.527 52.4321 108.987C52.6331 109.446 52.949 110.623 53.15 111.628C53.351 112.604 53.5808 113.437 53.6669 113.437C53.7531 113.437 54.6146 112.834 55.6197 112.116C56.5961 111.398 57.9459 110.135 58.5777 109.303C59.2382 108.499 60.071 107.235 60.4156 106.518C60.789 105.8 61.3059 104.45 61.5931 103.503C61.909 102.412 62.11 100.833 62.11 99.1963C62.11 97.3588 61.9377 96.0381 61.4782 94.6025C61.1623 93.4828 60.3869 91.8176 59.8413 90.8701C59.2669 89.9227 58.3479 88.6594 57.8023 88.0564C57.2567 87.4822 56.7397 86.6496 56.6536 86.1902C56.5674 85.7596 56.6536 85.0418 56.8833 84.5824C57.0843 84.123 57.5151 83.5775 57.831 83.3478C58.1469 83.1469 58.9223 82.9746 59.5541 82.9746C60.5592 82.9746 60.8751 83.1469 62.0238 84.324C62.7418 85.0992 63.7756 86.3338 64.3213 87.1377C64.8382 87.9129 65.6136 89.3484 66.0443 90.2959C66.4464 91.2434 67.0207 92.8512 67.2505 93.8848C67.5089 94.9184 67.7961 96.5836 67.8823 97.6172C67.9971 98.6508 67.911 100.574 67.7387 101.924C67.5377 103.273 67.0494 105.34 66.6474 106.518C66.2166 107.695 65.4125 109.446 64.8669 110.365C64.3213 111.284 63.0864 112.891 62.11 113.954C61.1336 114.987 59.8987 116.164 59.3243 116.566C58.75 116.968 58.2618 117.342 58.2618 117.428C58.2618 117.514 60.0423 119.179 62.1961 121.16C64.3787 123.141 66.9346 125.438 67.8823 126.242C68.83 127.046 71.271 128.855 73.3387 130.204C75.3776 131.582 78.7663 133.535 80.8053 134.539C82.8443 135.516 86.233 136.922 88.272 137.612C90.3109 138.301 93.1827 139.162 94.5899 139.478C95.9971 139.822 98.4668 140.31 100.046 140.569C102.401 140.971 105.618 141.086 117.851 141.172C127.931 141.258 133.014 141.2 133.503 140.999C133.905 140.827 134.45 140.282 134.737 139.822C134.996 139.334 135.226 138.703 135.226 138.387C135.226 138.071 135.053 137.468 134.824 137.009C134.623 136.578 134.077 136.09 133.617 135.889C133.043 135.659 129.97 135.516 123.882 135.429C116.502 135.343 114.692 135.229 113.257 134.798C112.309 134.539 110.701 133.937 109.667 133.448C108.633 132.989 107.025 132.042 106.077 131.381C105.129 130.692 103.579 129.314 102.631 128.28C101.683 127.247 100.477 125.725 99.9888 124.864C99.4719 124.003 98.6965 122.481 98.2945 121.447C97.8637 120.414 97.3468 118.748 97.1458 117.715C96.916 116.681 96.7437 114.786 96.7437 113.466C96.7437 112.174 96.9447 110.106 97.1745 108.872C97.433 107.666 98.036 105.685 99.4719 102.326L97.7488 102.01C96.8012 101.866 95.394 101.407 94.5899 101.034C93.8145 100.661 92.4935 99.6844 91.7181 98.9092C90.4545 97.6459 89.3345 95.6648 82.9592 83.1182C78.9386 75.2227 74.8894 67.643 73.9992 66.2361C72.7643 64.3986 72.3335 63.4799 72.3335 62.7334C72.3335 62.0156 72.5633 61.4988 73.1664 60.8672C73.7981 60.2355 74.2864 60.0059 75.033 60.0059C75.751 60.0059 76.354 60.2355 76.9571 60.7811C77.4453 61.2404 78.4217 62.4176 79.0822 63.4512C79.7715 64.4848 82.9592 70.4854 86.1756 76.8018C89.4207 83.1182 92.8381 89.7504 93.7571 91.5592C95.0207 94.057 95.7099 95.0045 96.4566 95.5213C97.0022 95.8658 98.036 96.2391 100.046 96.5262L100.219 93.2818C100.333 90.985 100.563 89.6355 100.965 88.7168C101.252 87.999 101.884 87.1377 102.372 86.8219C102.832 86.4773 103.722 86.0467 104.354 85.8744C105.014 85.7021 105.933 85.6734 106.508 85.817C107.053 85.9318 108.547 86.5922 109.81 87.2525C111.074 87.9416 112.826 89.0613 115.267 91.0424H128.477L130.487 89.4633C131.607 88.602 133.474 87.4248 134.651 86.8506C136.145 86.1041 137.207 85.7596 138.097 85.7596C138.815 85.7596 139.878 85.9893 140.51 86.3051C141.142 86.5922 141.946 87.31 142.319 87.8555C142.664 88.401 143.094 89.5781 143.267 90.4395C143.439 91.3008 143.554 93.0234 143.554 94.2293C143.554 95.4639 143.41 97.3301 143.238 98.3924C142.951 100.345 142.951 100.345 143.956 102.067C144.53 103.015 145.306 104.766 145.708 105.943C146.11 107.121 146.569 108.872 146.713 109.819C146.885 110.767 147 112.403 147 113.466C147 114.557 146.799 116.423 146.541 117.629C146.282 118.863 145.708 120.758 145.277 121.878C144.817 122.998 143.812 124.778 143.037 125.897C142.262 127.017 140.768 128.711 137.81 131.496L138.729 132.558C139.217 133.161 139.907 134.224 140.223 134.941C140.653 135.889 140.826 136.836 140.826 138.387C140.826 139.937 140.653 140.885 140.223 141.832C139.907 142.55 139.189 143.612 138.643 144.244C138.097 144.847 136.891 145.708 134.221 146.971L119.431 147C106.048 147 104.268 146.943 100.764 146.426C98.6391 146.11 96.1694 145.708 95.3078 145.536C94.4463 145.363 92.1489 144.789 90.2248 144.244C88.2719 143.698 85.4863 142.808 84.0504 142.234C82.5858 141.66 80.0874 140.569 78.5079 139.822C76.9284 139.047 74.2864 137.612 72.6207 136.607C70.9551 135.63 68.3705 133.879 66.8771 132.731C65.3838 131.611 62.7992 129.486 61.191 127.993C59.5541 126.529 57.63 124.806 56.9408 124.175C56.2228 123.543 55.6197 123.084 55.5623 123.17C55.4762 123.256 56.0218 126.156 56.711 129.63C57.429 133.247 57.9746 136.75 57.9746 137.812C57.9746 139.277 57.8023 140.052 57.1418 141.401C56.6823 142.349 55.7633 143.67 55.0741 144.33C54.3849 144.99 53.0351 145.88 52.0874 146.282C50.5941 146.943 50.0772 147.029 48.2105 146.943C46.7746 146.856 45.6259 146.627 44.7644 146.196C44.0464 145.852 42.9552 145.134 42.3234 144.617C41.6916 144.071 40.7726 142.894 40.2557 141.947C39.7675 141.028 34.8854 129.974 29.4003 117.428C23.9152 104.881 19.148 93.7125 18.7747 92.5928C18.4014 91.473 17.8845 89.3484 17.5973 87.8555C17.2527 85.7883 17.1665 84.123 17.2814 80.9648C17.3963 78.2086 17.626 75.9691 18.6311 71.9209L13.2322 66.4658C9.55627 62.7334 7.345 60.2355 6.225 58.5703C5.33475 57.2209 4.24347 55.3547 3.75526 54.4072C3.29578 53.4598 2.54911 51.7084 2.11835 50.5312C1.7163 49.3541 1.11322 47.2869 0.797324 45.9375C0.481428 44.5881 0.165531 42.0041 0.0506597 40.1953C-0.0642118 38.1281 0.0219418 35.8312 0.251685 34.0225C0.45271 32.4434 0.912196 30.0029 1.31425 28.5674C1.68758 27.1318 2.49168 24.8924 3.06604 23.543C3.66911 22.1936 4.87526 20.0115 5.7368 18.6621C6.59833 17.3127 8.09166 15.3029 9.03935 14.2119C9.98704 13.0922 11.8537 11.3121 13.2034 10.2498C14.5245 9.1875 18.2004 6.71836 21.3593 4.76602Z" fill="#1A1B4A"/>
<path d="M106.364 98.6221C106.134 97.5023 105.933 95.55 105.933 94.258V94.2293C105.933 92.8512 106.048 91.875 106.221 91.875C106.393 91.875 107.254 92.3344 108.173 92.9086C109.064 93.4828 110.643 94.6887 111.648 95.5787C113.486 97.1865 113.486 97.1865 115.094 97.0717C115.985 97.0143 119.029 96.9568 121.872 96.9568C124.715 96.9568 127.759 97.0143 128.649 97.0717C130.229 97.1865 130.257 97.1865 132.095 95.5787C133.101 94.6887 134.651 93.5115 135.513 92.9086C136.374 92.3344 137.265 91.875 137.437 91.875C137.695 91.875 137.81 92.5066 137.81 94.0283C137.81 95.2055 137.609 97.1865 137.38 98.3924C137.15 99.627 136.949 100.919 136.949 101.263C136.949 101.637 137.523 102.785 138.241 103.847C138.959 104.938 139.792 106.431 140.079 107.235C140.395 108.011 140.797 109.504 140.998 110.537C141.199 111.657 141.285 113.265 141.17 114.557C141.084 115.734 140.711 117.543 140.337 118.576C139.964 119.61 139.275 121.074 138.815 121.878C138.356 122.653 137.265 124.031 136.403 124.921C135.513 125.783 134.134 126.874 133.359 127.333C132.555 127.792 131.09 128.51 130.056 128.883C128.42 129.486 127.587 129.601 123.164 129.716C120.005 129.802 117.392 129.716 116.128 129.515C114.98 129.314 113.113 128.682 111.734 128.022C110.011 127.189 108.863 126.386 107.427 124.95C106.192 123.744 105.101 122.28 104.44 121.017C103.866 119.897 103.177 118.174 102.947 117.141C102.688 116.107 102.487 114.384 102.487 113.265C102.487 112.145 102.688 110.451 102.918 109.446C103.148 108.47 103.693 106.977 104.096 106.144C104.526 105.34 105.302 103.991 105.847 103.216C106.393 102.412 106.824 101.522 106.795 101.206C106.795 100.89 106.594 99.7418 106.364 98.6221Z" fill="#6A3EEB"/>
<path d="M118.828 116.71C119.086 116.538 119.546 116.337 119.861 116.222C120.177 116.136 121.154 116.021 122.015 116.021C123.221 115.992 123.824 116.136 124.6 116.653C125.146 116.997 125.777 117.686 126.007 118.146C126.208 118.634 126.323 119.38 126.237 119.868C126.122 120.328 125.634 121.275 125.117 121.907C124.6 122.567 123.824 123.314 123.394 123.572C122.934 123.83 122.245 124.031 121.814 124.031C121.355 124.031 120.608 123.802 120.149 123.514C119.689 123.227 118.856 122.366 118.339 121.562C117.794 120.758 117.42 119.782 117.42 119.294C117.42 118.835 117.621 118.117 117.909 117.715C118.167 117.313 118.598 116.882 118.828 116.71Z" fill="#1A1B4A"/>
<path d="M120.522 119.179C120.493 118.863 120.666 118.547 120.895 118.49H120.867C121.096 118.404 121.556 118.318 121.872 118.289C122.187 118.289 122.618 118.461 122.819 118.691C123.077 118.949 123.135 119.38 123.02 119.782C122.905 120.155 122.589 120.672 122.331 120.959C122.073 121.246 121.814 121.476 121.728 121.447C121.642 121.447 121.355 121.074 121.068 120.586C120.809 120.127 120.551 119.466 120.522 119.179Z" fill="#6A3EEB"/>
<path d="M127.874 108.183C128.276 107.752 128.908 107.35 129.252 107.293C129.626 107.235 129.941 107.149 129.999 107.12C130.028 107.12 130.516 107.293 131.061 107.522C131.732 107.81 132.21 108.288 132.497 108.958C132.813 109.704 132.871 110.221 132.67 110.91C132.497 111.398 132.067 112.059 131.665 112.346C131.234 112.604 130.43 112.834 129.855 112.834C129.051 112.834 128.563 112.633 127.989 112.059C127.386 111.456 127.185 110.968 127.185 110.106C127.156 109.274 127.357 108.757 127.874 108.183Z" fill="#1A1B4A"/>
<path d="M111.217 108.901C111.476 108.355 112.079 107.781 112.625 107.551C113.113 107.321 113.859 107.207 114.262 107.293C114.664 107.379 115.324 107.81 115.784 108.269C116.329 108.843 116.559 109.417 116.559 110.106C116.559 110.824 116.329 111.341 115.726 111.973C115.066 112.662 114.635 112.834 113.716 112.834C112.854 112.834 112.337 112.633 111.821 112.116C111.418 111.714 111.016 111.054 110.93 110.623C110.815 110.135 110.93 109.446 111.217 108.901Z" fill="#1A1B4A"/>
<path d="M22.3644 10.8814C23.7141 10.0488 26.1551 8.55586 27.8208 7.55098C29.4577 6.54609 31.1233 5.74219 31.4679 5.74219C31.8413 5.74219 32.4731 5.91445 32.9038 6.14414C33.3633 6.34512 33.8802 6.86191 34.0525 7.29258C34.2536 7.69453 34.4259 8.29746 34.4259 8.61328C34.4259 8.9291 34.2536 9.53203 34.0813 9.93398C33.8228 10.4221 32.071 11.6566 28.9695 13.5516C26.3562 15.1594 23.2833 17.1117 22.1059 17.9156C20.9285 18.7195 19.1193 20.2986 18.0854 21.4184C17.0516 22.5668 15.587 24.5479 14.8116 25.8686C14.0649 27.1893 13.1172 29.2852 12.7439 30.5197C12.3418 31.7256 11.8823 33.6779 11.71 34.7977C11.509 35.9748 11.4516 38.0707 11.5377 39.6211C11.6526 41.1141 11.9111 43.1238 12.1695 44.0713C12.3993 45.0187 12.8875 46.5117 13.2321 47.373C13.5767 48.2344 14.3808 49.8422 15.0126 50.9619C15.8167 52.3113 17.5398 54.3498 24.3172 61.2979L21.0721 66.3223L17.1952 62.3602C15.0413 60.2068 12.6003 57.508 11.7675 56.417C10.9347 55.326 9.61363 53.1152 8.83825 51.5361C8.06287 49.957 7.11518 47.373 6.71313 45.7939C6.22493 43.9564 5.90903 41.7457 5.79416 39.6211C5.708 37.2955 5.79416 35.5154 6.11005 33.5918C6.3398 32.0988 6.88544 29.8307 7.3162 28.5674C7.74697 27.3041 8.40748 25.6389 8.80953 24.835C9.18287 24.0598 10.1018 22.4807 10.8198 21.3896C11.509 20.2986 13.0885 18.375 14.2946 17.1117C15.5008 15.8771 17.2526 14.3268 18.2003 13.6377C19.148 12.9486 21.0146 11.7141 22.3644 10.8814Z" fill="#6A3EEB"/>
<path d="M54.6723 53.1726C55.0743 52.742 55.3902 52.1965 55.3615 51.9381C55.3041 51.5361 55.4764 51.5074 56.7112 51.7084C57.4866 51.8519 59.0661 52.2539 62.3112 53.2588L62.2825 54.4646C62.2825 55.3547 62.4835 55.9289 63.0005 56.5605C63.6035 57.2783 63.9194 57.4218 65.0107 57.4218C66.0445 57.4218 66.4753 57.2496 67.7389 55.9863L69.0886 56.9625C69.864 57.508 71.0989 58.5129 71.8743 59.2019L71.9632 59.2799C73.2824 60.4368 73.2997 60.4519 72.822 61.1543C72.5348 61.5562 72.3338 62.3027 72.3338 62.7908C72.3338 63.4511 72.822 64.4847 73.9994 66.2361C74.8897 67.6429 78.9389 75.2226 82.9594 83.1181C89.3347 95.6648 90.4547 97.6459 91.7183 98.9091C92.4937 99.6843 93.786 100.661 94.5901 101.034C95.3655 101.407 96.8014 101.866 99.4722 102.326L98.5532 104.479C98.0363 105.685 97.4332 107.666 97.1747 108.872C96.945 110.106 96.7439 112.174 96.7439 113.466C96.7439 114.786 96.9163 116.681 97.146 117.715C97.347 118.748 97.8639 120.414 98.2947 121.447C98.6968 122.481 99.4722 124.003 99.9891 124.864C100.477 125.725 101.683 127.247 102.631 128.28C103.579 129.314 105.13 130.692 106.077 131.381C107.025 132.042 108.633 132.989 109.667 133.448C110.701 133.936 112.309 134.539 113.257 134.798C114.693 135.228 116.502 135.343 123.882 135.429C129.971 135.516 133.043 135.659 133.618 135.889C134.077 136.09 134.623 136.578 134.824 137.009C135.054 137.468 135.226 138.071 135.226 138.387C135.226 138.703 134.996 139.334 134.709 139.822C134.451 140.282 133.905 140.827 133.503 140.999C133.015 141.2 127.932 141.258 117.852 141.172C105.618 141.086 102.401 140.971 100.047 140.569C98.467 140.31 95.9973 139.822 94.5901 139.478C93.1829 139.162 90.3111 138.301 88.2722 137.611C86.2332 136.922 82.8445 135.516 80.8055 134.539C78.7666 133.535 75.3779 131.582 73.3389 130.204C71.2712 128.855 68.8302 127.046 67.8825 126.242C66.9348 125.438 64.3789 123.141 62.1964 121.16C60.0425 119.179 58.262 117.514 58.262 117.428C58.262 117.342 58.7502 116.968 59.3246 116.566C59.8989 116.164 61.1338 114.987 62.1102 113.954C63.0866 112.891 64.3215 111.284 64.8671 110.365C65.4128 109.446 66.2169 107.695 66.6476 106.518C67.0497 105.34 67.5379 103.273 67.7389 101.924C67.9112 100.574 67.9974 98.6507 67.8825 97.6172C67.7963 96.5836 67.5092 94.9183 67.2507 93.8847C67.021 92.8511 66.4466 91.2433 66.0445 90.2959C65.6138 89.3484 64.8384 87.9129 64.3215 87.1377C63.7758 86.3338 62.742 85.0992 62.024 84.324C60.8753 83.1468 60.5594 82.9746 59.5543 82.9746C58.9225 82.9746 58.1471 83.1468 57.8312 83.3478C57.5153 83.5775 57.0846 84.123 56.8835 84.5824C56.6538 85.0418 56.5676 85.7595 56.6538 86.1902C56.74 86.6496 57.2569 87.4822 57.8025 88.0564C58.3482 88.6593 59.2671 89.9226 59.8415 90.8701C60.3871 91.8175 61.1625 93.4828 61.4784 94.6025C61.9379 96.0381 62.1102 97.3588 62.1102 99.1963C62.1102 100.833 61.9092 102.412 61.5933 103.503C61.3061 104.45 60.7892 105.8 60.4158 106.518C60.0712 107.235 59.2384 108.499 58.5779 109.303C57.9461 110.135 56.5964 111.398 55.5912 112.116C54.6148 112.834 53.7533 113.437 53.6671 113.437C53.581 113.437 53.3512 112.604 53.1502 111.628C52.9492 110.623 52.6333 109.446 52.4323 108.987C52.2313 108.527 51.743 107.982 51.2836 107.781C50.8528 107.551 50.2497 107.379 49.9338 107.379C49.6179 107.379 49.0148 107.551 48.5554 107.781C48.1246 107.982 47.579 108.613 47.3492 109.13C46.9759 110.049 47.0908 110.853 49.5892 123.457C51.0538 130.807 52.26 137.296 52.2313 137.87C52.2313 138.703 52.0015 139.191 51.2836 139.937C50.7954 140.483 49.9625 140.999 49.5031 141.114C49.0148 141.229 48.2107 141.258 47.6938 141.143C47.2056 141.057 46.4302 140.626 46.0282 140.167C45.54 139.679 41.462 130.692 34.9718 115.762C29.2857 102.785 24.3175 91.0424 23.8867 89.6355C23.1975 87.3386 23.1113 86.7357 23.1113 82.2568C23.1113 77.7779 23.1975 77.1463 23.8867 74.792C24.3175 73.3851 25.2365 71.0308 25.9544 69.624C26.6723 68.2172 28.0795 65.9777 29.1134 64.657C30.1472 63.365 32.0426 61.4701 33.3349 60.4078C34.6559 59.3742 37.0108 57.9099 38.5903 57.1347C40.1697 56.3595 42.4959 55.4408 43.7595 55.125C45.1954 54.723 47.3205 54.4646 49.3595 54.3785C51.1687 54.2924 52.9492 54.1775 53.2938 54.0914C53.6671 54.034 54.2702 53.632 54.6723 53.1726Z" fill="#6A3EEB"/>
<path d="M63.0576 52.7708C63.5171 52.3688 64.1202 51.9668 64.4361 51.8807C64.752 51.8233 65.2689 51.8233 65.5848 51.8807C65.9007 51.9668 66.4176 52.1965 66.7335 52.3688C67.0494 52.5698 67.4802 53.1153 67.6812 53.5747C67.9109 54.034 67.9971 54.7518 67.9109 55.2112C67.8248 55.6418 67.4227 56.3022 67.0207 56.7042C66.475 57.2497 66.0443 57.4219 65.0104 57.4219C63.9191 57.4219 63.6032 57.2784 63.0002 56.5606C62.5215 55.9864 62.2822 55.3452 62.2822 54.637C62.2822 53.8043 62.4833 53.345 63.0576 52.7708Z" fill="#1A1B4A"/>
</svg>
