<svg width="182" height="194" viewBox="0 0 182 194" fill="none" xmlns="http://www.w3.org/2000/svg">
<path d="M9.11764 2.80391C10.1434 2.31133 12.9167 1.47773 15.1961 0.985156C17.4755 0.492578 20.7046 0.0378906 22.3002 0.0378906C25.1115 0 25.3014 0.0378906 26.0233 1.06094C26.4791 1.6293 26.8211 2.46289 26.7831 2.95547C26.7831 3.41016 26.4032 4.16797 25.9093 4.66055C25.2255 5.38047 24.5416 5.60781 22.0343 5.79727C20.3627 5.91094 17.6274 6.28984 15.9559 6.63086C14.2843 7.00977 12.3848 7.54023 11.7769 7.84336C11.1311 8.14648 10.1434 8.86641 9.57352 9.43477C8.96568 9.96523 8.24386 10.8746 7.93994 11.4809C7.63602 12.0492 7.14215 13.6406 6.80024 15.0426C6.49632 16.4824 6.07843 19.2484 5.88847 21.2188C5.69852 23.3785 5.69852 26.334 5.88847 28.6074C6.11642 30.6914 6.5723 33.6848 6.99019 35.2383C7.37009 36.7918 8.28185 39.5199 8.96568 41.3008C9.68749 43.0816 11.0931 45.8855 12.1569 47.5148C13.1826 49.182 14.2083 50.584 14.4363 50.6598C14.6262 50.7355 15.1581 49.9777 15.538 48.9926C15.9179 48.0074 17.1336 45.393 18.2353 43.1953C19.337 40.9977 21.1985 37.777 22.4142 35.9961C23.6299 34.2152 25.6813 31.4871 26.973 29.9336C28.2647 28.3801 30.696 25.8414 32.3296 24.2879C33.9632 22.7723 36.6985 20.4609 38.3701 19.2105C40.0416 17.9602 43.0429 16.0277 45.0183 14.8531C48.3995 12.8828 48.5894 12.7312 47.8676 12.2387C47.4497 11.9355 45.5502 10.9504 43.6887 10.041C41.7892 9.13164 38.712 7.91914 36.8505 7.38867C34.571 6.74453 33.2034 6.13828 32.7475 5.56992C32.3676 5.11523 32.0637 4.35742 32.1017 3.90273C32.1017 3.41016 32.5196 2.61445 33.0514 2.08398C33.5453 1.55352 34.4191 1.13672 34.9509 1.13672C35.4828 1.13672 37.5723 1.66719 39.5857 2.31133C41.6372 2.95547 44.8664 4.24375 46.7279 5.19102C48.5894 6.13828 51.2107 7.65391 54.8958 10.2305L56.6813 9.51055C57.7071 9.09375 59.9485 8.41172 61.734 7.95703C63.5195 7.50234 66.3308 6.89609 68.0024 6.59297C69.674 6.25195 73.8529 5.91094 77.31 5.79727C81.9068 5.6457 84.794 5.75937 88.1372 6.21406C90.6445 6.51719 94.3296 7.23711 96.3051 7.72969C98.2805 8.26016 100.864 9.01797 104.093 10.1168L106.562 8.41172C107.93 7.50234 110.323 6.10039 111.881 5.30469C113.439 4.50898 116.022 3.41016 117.58 2.87969C119.137 2.31133 122.404 1.43984 124.798 0.909375C128.141 0.227344 130.344 0 134.105 0C137.638 0 140.07 0.227344 142.653 0.757812C144.629 1.17461 146.87 1.70508 147.592 1.89453C148.314 2.12188 149.833 2.76602 150.897 3.41016C151.999 4.01641 153.556 5.34258 154.354 6.36562C155.152 7.35078 156.14 9.09375 156.595 10.2305C157.051 11.3672 157.659 13.7543 158.001 15.5352C158.343 17.316 158.723 20.3852 158.875 22.3555C158.989 24.4395 158.875 27.6602 158.609 29.9336C158.381 32.1312 157.735 35.5035 157.241 37.4359C156.747 39.3305 155.684 42.3996 154.886 44.2563C154.126 46.075 152.682 48.841 151.695 50.3945C150.707 51.948 149.073 54.2594 146.186 57.7832L146.946 61.5723C147.63 64.8309 147.744 66.8012 147.744 75.5918C147.782 84.7234 147.668 86.2012 146.946 89.4219C146.49 91.3922 145.616 94.575 144.97 96.4316C144.325 98.2883 142.919 101.547 141.893 103.631C140.83 105.715 138.854 108.973 137.524 110.83C136.195 112.687 133.573 115.794 131.712 117.65C129.888 119.507 127.077 122.008 125.519 123.182C123.962 124.319 121.72 125.873 120.505 126.593C119.327 127.312 118.339 128.032 118.339 128.26C118.339 128.487 120.049 132.125 122.1 136.406C124.19 140.688 125.937 144.401 125.975 144.666C126.089 145.045 126.925 144.591 128.559 143.34C129.926 142.355 131.826 140.498 132.852 139.248C133.839 137.998 135.245 135.876 135.967 134.512C136.651 133.148 137.79 130.344 138.474 128.26C139.158 126.176 140.412 123.107 141.209 121.439C142.045 119.772 143.679 116.968 144.856 115.188C146.034 113.407 148.618 110.338 150.631 108.367C152.606 106.359 155.684 103.782 157.469 102.608C159.255 101.433 162.142 99.766 163.928 98.8566C167.005 97.2652 167.309 97.1895 170.576 97.1895C173.045 97.1895 174.375 97.3789 175.325 97.8336C176.046 98.2125 177.414 99.1219 178.288 99.9176C179.2 100.713 180.339 102.191 180.833 103.252C181.289 104.313 181.783 105.904 181.935 106.852C182.087 107.912 181.973 109.352 181.593 110.754C181.289 111.929 180.605 113.596 180.073 114.43C179.541 115.263 178.554 116.362 177.87 116.855C177.224 117.347 175.211 118.484 173.425 119.393C170.994 120.644 169.398 121.856 166.929 124.281C164.877 126.289 163.168 128.411 162.294 129.965C161.572 131.329 160.318 134.246 159.597 136.52C158.837 138.755 157.659 141.825 156.937 143.34C156.216 144.818 155.266 146.523 154.848 147.129C154.24 147.887 153.708 148.152 152.72 148.152C151.885 148.152 151.087 147.849 150.631 147.395C150.213 146.978 149.871 146.22 149.871 145.689C149.871 145.159 150.479 143.568 151.201 142.09C151.923 140.612 153.214 137.429 154.088 135.004C154.924 132.541 156.14 129.51 156.747 128.26C157.393 127.009 158.875 124.736 160.053 123.182C161.268 121.553 163.548 119.318 165.257 117.954C166.929 116.627 169.74 114.846 171.488 113.975C173.805 112.762 174.869 112.005 175.439 111.02C175.894 110.262 176.236 109.049 176.236 108.178C176.198 107.344 175.932 106.094 175.591 105.45C175.211 104.768 174.375 103.858 173.691 103.441C172.969 103.025 171.792 102.684 170.766 102.684C169.474 102.684 168.182 103.1 165.637 104.389C163.776 105.336 161.04 106.965 159.559 108.064C158.077 109.163 155.646 111.361 154.126 112.914C152.568 114.468 150.403 117.12 149.301 118.787C148.162 120.454 146.718 122.955 146.11 124.395C145.464 125.797 144.325 128.752 143.565 131.026C142.805 133.261 141.855 135.762 141.437 136.596C140.981 137.429 139.766 139.362 138.702 140.915C137.638 142.469 135.739 144.666 134.485 145.803C133.231 146.94 131.256 148.493 130.116 149.251C128.977 149.971 127.989 150.577 127.951 150.615C127.913 150.615 128.065 151.373 128.293 152.32C128.483 153.268 128.787 155.92 129.167 162.513L131.826 161.149C133.307 160.429 135.587 159.103 136.955 158.193C138.322 157.284 140.678 155.389 142.235 153.95C144.515 151.866 145.312 151.373 146.224 151.411C147.022 151.449 147.706 151.828 148.276 152.548C148.921 153.343 149.111 153.912 148.959 154.594C148.807 155.124 147.554 156.64 146.148 158.004C144.743 159.368 142.425 161.338 140.943 162.361C139.5 163.422 136.119 165.355 128.521 169.182L127.609 172.781C127.115 174.752 126.165 177.745 125.519 179.412C124.874 181.079 123.734 183.353 122.974 184.489C122.176 185.626 120.619 187.407 119.441 188.468C118.263 189.529 116.288 190.893 115.072 191.499C113.819 192.105 111.805 192.901 110.551 193.318C108.424 193.962 106.296 194 50.5269 194L47.6777 193.053C46.1201 192.522 43.9926 191.613 42.9289 191.045C41.9031 190.476 39.9277 188.923 38.56 187.559C37.1924 186.195 35.5588 184.073 34.875 182.822C34.2291 181.572 33.1654 178.995 32.5576 177.139C31.9497 175.282 31.1139 172.289 30.734 170.508C30.2402 168.196 30.0502 165.62 30.0502 161.414C30.0122 157.246 30.2022 154.67 30.6581 152.51C31.038 150.843 31.7598 148.114 32.3296 146.447C32.8615 144.78 34.913 140.082 36.8884 136.027C38.8639 131.973 40.4595 128.411 40.4595 128.184C40.4595 127.919 39.3958 127.085 38.1041 126.327C36.7745 125.57 34.4951 124.054 33.0514 122.955C31.6078 121.856 28.7586 119.28 26.7831 117.234C24.8076 115.15 22.0723 111.853 20.7426 109.883C19.413 107.912 17.5894 104.843 16.7157 103.062C15.8419 101.282 14.5882 98.2883 13.9424 96.4316C13.2966 94.575 12.3848 91.2406 11.8909 89.043C11.1311 85.4812 11.0551 84.0793 11.0551 75.5918C11.0931 67.4453 11.2071 65.5508 12.7267 57.9727L10.3333 54.8656C9.00367 53.1227 7.25612 50.5082 6.45833 49.0684C5.62254 47.6285 4.40686 45.1277 3.72304 43.5742C3.0772 42.0207 2.08946 39.1031 1.5576 37.1328C1.06372 35.1625 0.455882 31.6387 0.227941 29.3652C-0.0759803 26.2961 -0.0759803 23.9848 0.227941 20.6504C0.455882 18.1496 0.987744 14.8152 1.36765 13.2617C1.78554 11.7082 2.43137 9.73789 2.84926 8.9043C3.22916 8.0707 4.40686 6.55508 5.3946 5.56992C6.38235 4.54688 8.05391 3.29648 9.11764 2.80391Z" fill="#161744"/>
<path d="M100.674 134.019C102.763 133.64 106.334 132.693 108.652 131.935L112.831 130.533L115.262 135.27C116.592 137.884 118.453 141.711 119.365 143.795C120.315 145.879 121.53 149.365 122.062 151.562C122.974 155.086 123.088 156.261 123.05 161.604C123.05 166.416 122.86 168.348 122.252 170.887C121.796 172.668 120.922 175.471 120.277 177.139C119.631 178.806 118.491 180.966 117.769 181.989C117.047 182.974 115.642 184.376 114.654 185.096C113.628 185.816 111.881 186.763 110.741 187.218C109.297 187.786 107.474 188.089 101.054 188.392L101.358 184.868C101.509 182.898 101.889 180.208 102.231 178.844C102.535 177.48 103.713 173.388 104.853 169.75C105.992 166.112 107.17 161.679 107.512 159.898C107.816 158.118 108.196 154.821 108.348 152.51C108.614 148.342 108.614 148.342 107.588 147.319C106.98 146.712 106.144 146.258 105.612 146.258C105.081 146.258 104.245 146.637 103.751 147.129C102.991 147.849 102.877 148.493 102.649 152.131C102.497 154.442 102.117 157.739 101.775 159.52C101.433 161.3 100.256 165.544 99.1541 168.992C98.0524 172.44 96.8367 176.684 96.4948 178.465C96.1529 180.246 95.735 183.125 95.3551 188.127L82.2485 188.316V148.152L81.2987 147.205C80.7668 146.675 79.9311 146.258 79.3992 146.258C78.8673 146.258 77.9936 146.675 76.5499 148.152V188.316H70.0916C65.1909 188.316 63.6333 188.203 63.6333 187.862C63.6333 187.596 63.4433 185.854 63.2534 183.959C63.0254 182.102 62.6075 179.374 62.3036 177.896C61.9997 176.419 60.784 172.251 59.6443 168.613C58.4666 164.976 57.2889 160.467 56.985 158.572C56.6811 156.716 56.3392 153.495 56.2252 151.487C56.0352 148.001 55.9593 147.736 55.0095 147.016C54.4017 146.561 53.7178 146.22 53.4899 146.258C53.224 146.258 52.6161 146.447 52.1603 146.637C51.6664 146.864 51.0585 147.432 50.8306 147.963C50.4507 148.683 50.4127 150.047 50.7166 153.95C50.9446 156.678 51.4384 160.391 51.8563 162.172C52.3122 163.953 53.4899 168.045 54.5156 171.266C55.5034 174.486 56.6051 178.579 56.909 180.359C57.2509 182.14 57.5928 184.641 57.9348 188.316H56.4152C55.0855 188.316 54.5916 188.051 52.5402 186.081C51.2105 184.868 49.6149 182.898 48.9311 181.648C48.2853 180.435 47.2215 177.896 46.5757 176.002C45.9679 174.145 45.1701 171.076 44.8282 169.182C44.5242 167.325 44.2583 163.688 44.2583 161.149C44.2583 157.966 44.5242 155.238 45.0561 152.623C45.474 150.464 46.4237 147.205 47.1835 145.311C47.9433 143.454 49.5389 139.892 50.7546 137.467C52.8821 133.186 53.034 132.996 54.0218 133.186C54.6296 133.261 56.6431 133.64 58.5046 134.019C61.4678 134.625 64.2411 134.701 79.3992 134.701C94.6712 134.701 97.3685 134.588 100.674 134.019Z" fill="#6A3EEB"/>
<path d="M38.1799 147.016C38.5978 145.879 40.4973 141.673 42.3968 137.695L45.8159 130.495L49.311 131.632C51.2485 132.276 52.8441 132.845 52.9201 132.92C52.9581 132.958 52.0083 135.004 50.7546 137.467C49.539 139.892 47.9434 143.454 47.1836 145.311C46.4238 147.205 45.474 150.464 45.0561 152.623C44.5243 155.238 44.2583 157.966 44.2583 161.149C44.2583 163.688 44.5243 167.325 44.8282 169.182C45.1701 171.076 45.9679 174.145 46.5757 176.002C47.2216 177.897 48.2853 180.435 48.9311 181.648C49.6149 182.898 51.2105 184.868 54.8956 188.316H53.4899C52.6921 188.316 51.2865 188.127 50.3367 187.9C49.387 187.672 47.7154 187.028 46.5757 186.498C45.474 185.929 43.6885 184.679 42.7007 183.694C41.675 182.671 40.3453 180.89 39.7375 179.715C39.1297 178.503 38.1799 176.078 37.648 174.297C37.0782 172.516 36.3564 169.371 36.0145 167.287C35.6346 164.673 35.5206 162.21 35.6725 159.33C35.7865 157.057 36.2044 153.798 36.6223 152.131C37.0402 150.464 37.724 148.152 38.1799 147.016Z" fill="#4821BB"/>
<path d="M33.2412 81.8438C34.077 81.427 35.6726 80.8586 36.7743 80.5555C37.838 80.2524 39.6616 79.9871 40.7633 79.9871C41.827 79.9492 43.6126 80.1008 44.6383 80.3281C45.702 80.5555 46.5378 80.8586 46.5378 81.086C46.5378 81.3133 46.8797 81.8059 47.2976 82.2227C47.7915 82.7153 48.5513 82.9805 49.501 82.9805C50.6027 82.9805 51.1726 83.2457 52.0844 84.193C52.7682 84.875 53.642 86.1254 54.0978 86.959C54.5157 87.7926 55.0096 89.1567 55.1236 89.9903C55.2755 90.9375 55.1236 92.3395 54.7437 93.7035C54.2878 95.2949 53.642 96.3938 52.3503 97.7957C51.2486 98.9703 49.577 100.183 48.0574 100.903C45.702 102.077 45.3981 102.115 41.0292 102.115C36.6983 102.115 36.3564 102.077 34.001 100.903C32.4814 100.183 30.8479 98.9703 29.7461 97.7957C28.4165 96.3938 27.7707 95.2949 27.3148 93.7035C26.8969 92.3016 26.7829 90.9754 26.9349 89.9903C27.0868 89.1567 27.5807 87.7168 28.0366 86.8074C28.4925 85.8981 29.5182 84.5719 30.316 83.8899C31.0758 83.1699 32.4055 82.2606 33.2412 81.8438Z" fill="#FFA2AE"/>
<path d="M47.1459 72.8636C47.4498 72.409 48.0577 71.9922 48.4756 71.9164C48.8555 71.8406 49.5773 71.8785 50.0332 71.9922C50.4891 72.1058 51.1729 72.5984 51.5528 73.1289C52.1226 73.8867 52.2746 74.7582 52.2746 77.4863C52.2746 80.3281 52.1226 81.0859 51.4768 81.9195C50.907 82.7152 50.4131 82.9804 49.3873 82.9804C48.5516 82.9804 47.7538 82.6773 47.2979 82.2226C46.6521 81.5785 46.5381 80.9722 46.5381 77.5621C46.5381 74.6445 46.69 73.5078 47.1459 72.8636Z" fill="#161744"/>
<path d="M56.7954 15.5731C58.353 14.9668 61.2023 14.0196 63.0638 13.4891C64.9253 12.9965 66.5969 12.5418 66.7489 12.5418C66.9388 12.5039 67.0528 12.5797 67.0528 12.6934C67.0528 12.8071 66.4069 13.1481 65.6092 13.4891C64.8493 13.8301 62.8359 14.7774 61.1643 15.611C59.4927 16.4446 56.6815 18.0739 54.8959 19.2106C53.1104 20.3852 50.2991 22.4692 48.6276 23.8332C46.956 25.2352 44.2587 27.8118 42.6251 29.5926C40.9915 31.3356 38.5602 34.2911 37.2305 36.1856C35.8629 38.0422 33.5835 41.9829 32.1018 44.9004C30.6582 47.818 28.9487 51.8344 28.3408 53.8047C27.695 55.775 26.7832 59.1094 26.3653 61.1934C25.6815 64.3004 25.4915 66.6118 25.3776 73.8868C25.2256 80.9723 25.3396 83.4731 25.7955 86.2012C26.1374 88.0579 26.5933 90.5586 26.8212 91.6954C27.0491 92.8321 27.581 94.5371 27.9989 95.4844C28.4548 96.4317 28.8727 97.4926 28.9107 97.8336C28.9866 98.2125 29.8604 100.107 30.8102 102.002C31.7979 103.934 33.2795 106.548 34.1153 107.799C34.9511 109.049 36.7746 111.398 38.1423 113.066C39.5099 114.695 42.0173 117.196 43.6888 118.598C45.3604 120 47.9437 121.97 49.3874 122.917C50.831 123.902 53.4523 125.38 55.1619 126.214C56.9094 127.009 58.315 127.767 58.315 127.881C58.315 127.995 57.7452 127.957 57.0614 127.843C56.4155 127.691 54.0601 127.009 51.8567 126.327C49.6533 125.645 46.4241 124.319 44.6386 123.448C42.8531 122.538 40.4597 121.174 39.32 120.416C38.1803 119.659 35.9388 117.954 34.3812 116.627C32.8236 115.301 30.4303 112.952 29.1006 111.398C27.733 109.845 25.7955 107.268 24.7697 105.715C23.744 104.161 22.3384 101.585 21.5786 100.031C20.8567 98.4778 19.755 95.7496 19.1472 93.9688C18.5773 92.1879 17.7795 89.3082 17.3996 87.5274C16.8678 84.9508 16.7158 82.6395 16.7158 75.7813C16.7538 69.1883 16.9058 66.3844 17.4376 63.4668C17.8175 61.3829 18.7293 57.8211 19.4511 55.5098C20.1729 53.1985 21.6166 49.561 22.6803 47.3633C23.706 45.1657 25.8335 41.4145 27.467 39.0274C29.5185 35.9204 31.6839 33.3438 34.9511 30.0852C37.4584 27.5844 40.9535 24.4774 42.7391 23.227C44.5246 21.9387 47.7538 19.9684 49.9572 18.8317C52.1606 17.6571 55.2378 16.2172 56.7954 15.5731Z" fill="#6A3EEB"/>
<path d="M69.712 12.1629C70.8517 11.9356 72.4093 11.7082 73.1311 11.5946C73.8529 11.5188 77.462 11.4809 81.109 11.5946C85.7438 11.6704 88.859 11.9356 91.3664 12.4661C93.3418 12.845 96.685 13.7543 98.7744 14.3985C100.864 15.0805 104.549 16.5961 106.942 17.7707C109.336 18.9454 112.869 20.9914 114.73 22.2418C116.592 23.5301 119.441 25.7278 120.999 27.0918C122.556 28.4938 125.026 30.9188 126.431 32.5102C127.875 34.1016 130.23 37.2086 131.712 39.4063C133.194 41.6039 135.169 45.0141 136.119 46.9844C137.069 48.9547 138.474 52.5543 139.272 54.9414C140.032 57.3286 140.982 60.8524 141.323 62.709C141.741 64.8688 142.045 68.9231 142.159 73.8868C142.311 79.8735 142.235 82.5258 141.779 85.4434C141.437 87.5274 140.716 90.786 140.184 92.6426C139.614 94.4993 138.436 97.6821 137.486 99.6524C136.537 101.623 134.789 104.692 133.611 106.473C132.434 108.254 129.888 111.323 127.989 113.293C126.089 115.263 123.012 117.991 121.151 119.318C119.289 120.644 116.06 122.538 113.971 123.561C111.881 124.547 108.88 125.797 107.322 126.327C105.765 126.82 103.029 127.578 101.244 127.957C98.3565 128.563 95.9632 128.639 60.0245 128.639L56.0355 126.668C53.8321 125.607 50.8309 123.902 49.3872 122.917C47.9436 121.97 45.3603 120 43.6887 118.598C42.0171 117.196 39.5098 114.695 38.1421 113.066C36.7745 111.398 34.951 109.049 34.1152 107.799C33.2414 106.548 31.6838 103.745 30.6201 101.547C29.5564 99.3493 28.7586 97.4926 28.8725 97.3789C28.9485 97.2653 29.7843 97.8715 30.6581 98.6672C31.5698 99.5008 33.2414 100.6 34.3811 101.13C36.2426 102.002 36.9645 102.115 41.0294 102.115C45.3983 102.115 45.7022 102.077 48.0576 100.903C49.5772 100.183 51.2488 98.9704 52.3505 97.7957C53.6421 96.3938 54.288 95.295 54.7438 93.7036C55.1617 92.3016 55.2757 90.9754 55.1237 89.9903C54.9718 89.1567 54.4779 87.7547 54.022 86.8454C53.5662 85.936 52.6544 84.6477 50.7549 82.7911L51.5147 81.8438C52.1225 81.0481 52.2745 80.3282 52.2365 77.4106C52.2365 74.3036 52.1225 73.7731 51.4007 72.9016C50.7549 72.1438 50.185 71.9164 49.1973 71.9164C48.2855 71.9543 47.6397 72.2196 47.1838 72.8258C46.6519 73.5079 46.5 74.3793 46.538 80.7071L45.1323 80.4418C44.3345 80.2524 42.2451 80.1387 40.4595 80.1766C38.0282 80.2145 36.6605 80.4418 34.951 81.1239C33.6973 81.5786 31.9877 82.5258 31.1899 83.17C30.3542 83.7762 29.2145 84.9887 28.6066 85.8223C28.0368 86.6559 27.4669 87.9063 27.3529 88.5883C27.239 89.2325 26.973 89.8008 26.7831 89.8008C26.5931 89.8008 26.3272 89.4977 26.2512 89.1567C26.1373 88.7778 25.8713 87.1106 25.6434 85.4434C25.3395 83.5489 25.2635 79.1914 25.3775 73.6973C25.4914 66.6496 25.6814 64.2625 26.3652 61.1934C26.8211 59.1094 27.6949 55.775 28.3407 53.8047C28.9485 51.8344 30.6581 47.818 32.1017 44.9004C33.5833 41.9829 35.8627 38.0801 37.2304 36.1856C38.56 34.2911 40.9914 31.3356 42.625 29.5926C44.2586 27.8118 46.9559 25.2352 48.6274 23.8332C50.299 22.4692 53.1103 20.3852 54.8958 19.2106C56.6813 18.0739 59.3407 16.5203 60.7843 15.8004C62.2279 15.0805 64.3933 14.0196 65.5331 13.4891C66.6728 12.9586 68.5723 12.3524 69.712 12.1629Z" fill="#8F6DF4"/>
<path d="M112.185 81.1997C112.147 80.9344 112.831 80.5934 113.78 80.4039C114.73 80.1766 116.402 80.025 117.503 79.9872C118.567 79.9493 120.391 80.1387 121.454 80.3661C122.556 80.5934 124.342 81.2375 125.367 81.7301C126.431 82.2606 127.913 83.2836 128.71 84.0793C129.508 84.8372 130.534 86.1254 130.952 86.959C131.37 87.7926 131.826 89.4219 131.94 90.5586C132.13 92.3395 131.978 92.9836 130.99 95.1055C130.268 96.6211 129.242 98.0231 128.369 98.7809C127.533 99.425 125.861 100.448 124.608 101.016C122.784 101.85 121.644 102.115 118.909 102.229C116.44 102.343 114.844 102.229 113.21 101.774C111.957 101.395 110.247 100.675 109.411 100.145C108.576 99.6145 107.398 98.743 106.828 98.1747C106.22 97.6442 105.309 96.3938 104.815 95.4086C104.207 94.1582 103.903 92.9079 103.865 91.4301C103.827 90.0282 104.093 88.6262 104.549 87.5274C104.967 86.5801 105.916 85.1782 106.676 84.4204C107.816 83.2836 108.386 82.9805 109.525 82.9805C110.323 82.9805 111.235 82.6774 111.615 82.2985C111.995 81.9575 112.223 81.4649 112.185 81.1997Z" fill="#FFA2AE"/>
<path d="M62.8356 81.8059C62.7976 80.8965 63.0635 80.1008 63.6334 79.4187C64.2032 78.6988 64.8111 78.4336 65.7608 78.4336C66.7486 78.4336 67.2425 78.6988 67.8123 79.4945C68.2682 80.0629 68.6101 80.9723 68.5721 81.5785C68.5721 82.1848 69.028 83.0941 69.6738 83.852C70.6236 84.875 71.0415 85.0645 72.5611 85.0645C74.0807 85.0645 74.4986 84.875 75.4483 83.852C76.0942 83.0941 76.5501 82.1848 76.5501 81.5785C76.5121 80.9723 76.854 80.0629 77.3099 79.4945C77.8797 78.6988 78.3736 78.4336 79.3993 78.4336C80.2351 78.4336 81.0329 78.7367 81.4888 79.1914C81.9067 79.6082 82.2486 80.4039 82.2486 81.0102C82.2486 81.5785 82.5905 82.6016 83.0084 83.2836C83.4263 83.9277 84.1861 84.6477 84.7179 84.875C85.2498 85.1023 86.1236 85.2539 86.6554 85.2539C87.2633 85.2539 88.0991 84.7992 88.8589 84.0414C89.6946 83.1699 90.1885 82.2605 90.3405 81.1996C90.5304 80.1387 90.9103 79.3809 91.4422 79.002C91.9361 78.6988 92.7719 78.4336 93.3417 78.4336C93.9495 78.4336 94.7473 78.7746 95.1652 79.1914C95.6971 79.7219 95.925 80.4797 95.925 81.768C95.963 82.9805 95.6211 84.193 94.8613 85.6328C94.1015 87.1484 93.2657 88.0578 91.9361 88.9672C90.8723 89.6492 89.3527 90.407 88.517 90.6344C87.6812 90.8238 86.2375 90.9375 85.2878 90.8238C84.338 90.7102 82.8944 90.2934 82.0586 89.8387C81.2228 89.384 80.2731 88.8535 79.9692 88.6262C79.5133 88.2852 79.0574 88.4367 77.8797 89.1945C77.0439 89.7629 75.6763 90.407 74.8405 90.6344C74.0047 90.8238 72.5611 90.9375 71.6113 90.8238C70.6616 90.7102 69.218 90.2934 68.3822 89.8766C67.5464 89.4598 66.3307 88.5504 65.6469 87.8305C65.001 87.1484 64.0893 85.8223 63.6714 84.875C63.2535 83.9277 62.8736 82.5637 62.8356 81.8059Z" fill="#161744"/>
<path d="M106.866 77.5242C106.828 73.9625 106.904 73.2805 107.512 72.6742C107.892 72.2953 108.766 71.9922 109.563 71.9922C110.475 71.9543 111.197 72.2195 111.691 72.7879C112.337 73.4699 112.451 74.1141 112.451 77.4863C112.451 80.8586 112.337 81.5027 111.691 82.1848C111.184 82.7405 110.488 83.0057 109.601 82.9805C108.88 82.9805 107.968 82.6773 107.588 82.2984C107.018 81.768 106.904 80.9344 106.866 77.5242Z" fill="#161744"/>
<path d="M102.459 65.134C102.953 64.8688 105.461 64.3004 108.082 63.8457C110.703 63.3531 113.363 62.9742 113.97 62.9363C114.654 62.9363 115.452 63.2395 115.984 63.7699C116.478 64.2625 116.858 65.0582 116.858 65.7402C116.858 66.4223 116.516 67.1801 116.022 67.6348C115.414 68.2031 113.704 68.6578 109.639 69.3777C105.043 70.2113 103.903 70.2871 102.953 69.9082C102.345 69.6809 101.662 69.0746 101.472 68.5441C101.282 68.0516 101.244 67.1801 101.396 66.6117C101.51 66.0055 102.003 65.3613 102.459 65.134Z" fill="#161744"/>
<path d="M41.979 65.7402C42.017 65.2098 42.4349 64.3383 42.9288 63.8457C43.4226 63.3152 44.1824 62.8984 44.6383 62.8984C45.0562 62.8984 47.8295 63.3531 50.7927 63.8836C54.2498 64.4898 56.4533 65.0582 56.9091 65.475C57.289 65.8539 57.593 66.6496 57.593 67.4453C57.593 68.2031 57.289 69.0367 56.9091 69.4156C56.5292 69.7945 55.8074 70.0977 55.2756 70.1734C54.7437 70.2113 51.9324 69.8324 49.0072 69.3398C44.7143 68.582 43.5366 68.241 42.8148 67.559C42.3589 67.0664 41.979 66.2707 41.979 65.7402Z" fill="#161744"/>
<path d="M122.898 7.16132C124.456 6.78241 126.773 6.28983 128.027 6.06249C129.28 5.87303 132.623 5.79725 135.435 5.87303C138.892 5.98671 141.627 6.28983 143.793 6.8203C145.578 7.2371 147.592 7.99491 148.275 8.4496C148.959 8.90428 149.909 9.92733 150.441 10.723C150.973 11.4808 151.657 13.1101 151.96 14.2848C152.264 15.4973 152.682 18.1117 152.948 20.082C153.176 22.166 153.29 25.1973 153.138 27.2812C152.986 29.2515 152.568 32.3207 152.188 34.1015C151.771 35.8824 151.011 38.5348 150.441 39.9746C149.909 41.4144 148.807 43.8015 148.047 45.2793C147.288 46.7191 146.11 48.6515 145.426 49.6367C144.362 51.1523 144.172 51.266 143.945 50.584C143.793 50.1672 142.995 48.1969 142.121 46.2265C141.285 44.2562 139.462 40.8082 138.094 38.5726C136.726 36.3371 134.561 33.1543 133.269 31.5629C131.978 29.9336 129.242 26.9781 127.191 25.0078C125.139 22.9996 122.024 20.3094 120.239 19.0211C118.453 17.6949 115.49 15.7246 110.323 12.6933L112.147 11.5945C113.135 10.9883 115.338 9.88944 117.01 9.20741C118.681 8.48749 121.34 7.57811 122.898 7.16132Z" fill="#4821BB"/>
<path d="M25.5675 5.0774C26.0233 4.77428 26.5172 4.13014 26.6312 3.59967C26.8211 2.72819 26.9731 2.69029 28.6067 2.87975C29.5944 2.99342 30.7721 3.14498 31.266 3.25865C31.7599 3.33444 32.1018 3.67545 32.1018 4.09225C32.0638 4.43326 32.4057 5.11529 32.7856 5.56998C33.2415 6.06256 34.7991 6.78248 36.8885 7.38873C38.75 7.9192 41.8272 9.1317 43.6888 10.0411C45.5503 10.9505 47.4498 11.9356 47.8677 12.2387C48.5895 12.7313 48.3995 12.8829 45.0184 14.8532C43.0429 16.0278 40.0417 17.9602 38.3701 19.2106C36.6986 20.461 33.9633 22.7723 32.3297 24.288C30.6961 25.8415 28.2648 28.3801 26.9731 29.9337C25.6814 31.4872 23.63 34.2153 22.4143 35.9962C21.1986 37.777 19.3371 40.9977 18.2354 43.1954C17.1336 45.393 15.918 48.0075 15.5381 48.9926C15.1582 49.9778 14.6643 50.7356 14.4363 50.6598C14.2464 50.584 13.1827 49.1821 12.1569 47.5149C11.0932 45.8856 9.68757 43.0817 8.96576 41.3008C8.28194 39.52 7.37017 36.7919 6.99027 35.2383C6.57238 33.6848 6.1165 30.6915 5.88856 28.6075C5.69861 26.334 5.69861 23.3786 5.88856 21.2188C6.07851 19.2485 6.4964 16.4825 6.80032 15.0805C7.14223 13.6407 7.6361 12.0493 7.94003 11.443C8.24395 10.8747 8.96576 9.96529 9.5736 9.43483C10.1435 8.86647 11.1692 8.14654 11.777 7.84342C12.4229 7.54029 14.2464 7.00983 15.88 6.66881C17.4756 6.32779 20.1349 5.94889 21.7684 5.83522C23.364 5.68365 25.0736 5.34264 25.5675 5.0774Z" fill="#4821BB"/>
<path d="M159.559 108.064C161.04 107.003 163.776 105.336 165.637 104.389C168.22 103.1 169.474 102.684 170.766 102.684C171.792 102.684 172.969 103.025 173.729 103.441C174.375 103.858 175.211 104.768 175.591 105.412C175.932 106.094 176.198 107.344 176.236 108.178C176.236 109.049 175.894 110.262 175.439 111.02C174.869 112.005 173.805 112.762 171.488 113.975C169.74 114.846 166.929 116.627 165.257 117.954C163.548 119.318 161.268 121.553 160.053 123.182C158.875 124.736 157.393 127.009 156.747 128.26C156.14 129.51 154.924 132.541 154.088 134.966C153.214 137.429 151.923 140.612 151.201 142.09C150.479 143.568 149.871 145.121 149.871 145.576C149.871 146.068 150.137 146.826 150.441 147.281C150.973 148.077 150.935 148.266 149.985 149.706C149.377 150.577 148.769 151.411 148.542 151.6C148.314 151.79 147.744 151.79 147.136 151.562C146.427 151.31 145.756 151.31 145.122 151.562C144.591 151.79 144.059 152.169 143.907 152.396C143.717 152.661 142.311 153.95 140.754 155.276C139.196 156.564 137.79 157.625 137.638 157.625C137.448 157.625 137.334 157.057 137.334 156.413C137.334 155.73 137.069 153.722 136.765 151.941C136.461 150.161 135.967 147.963 135.663 147.016C135.131 145.348 135.169 145.273 136.043 144.363C136.575 143.833 137.828 142.241 138.816 140.764C139.842 139.286 140.982 137.429 141.437 136.596C141.855 135.762 142.805 133.261 143.565 130.988C144.325 128.752 145.464 125.797 146.11 124.395C146.718 122.955 148.162 120.454 149.301 118.787C150.403 117.12 152.569 114.468 154.126 112.914C155.646 111.361 158.077 109.163 159.559 108.064Z" fill="#6A3EEB"/>
<path d="M129.926 149.365C130.952 148.721 132.51 147.584 133.345 146.864C134.181 146.106 135.017 145.538 135.207 145.5C135.397 145.5 135.777 146.561 136.043 147.849C136.309 149.175 136.688 151.6 136.954 153.268C137.182 154.935 137.41 156.678 137.448 157.132C137.524 157.777 136.954 158.269 134.675 159.595C133.117 160.505 131.218 161.528 128.976 162.551V159.406C128.938 157.701 128.711 155.011 128.445 153.457C128.141 151.904 127.951 150.615 127.989 150.577C127.989 150.577 128.862 150.009 129.926 149.365Z" fill="#4821BB"/>
</svg>
