<svg width="33" height="28" viewBox="0 0 33 28" fill="none" xmlns="http://www.w3.org/2000/svg">
<path d="M4.15031 0.479452C4.32441 0.377169 4.67906 0.230137 4.92409 0.153425C5.18846 0.0703196 5.556 0.00639269 5.81392 0.00639269C6.0525 0 6.58769 0.0575342 7.00682 0.134247C7.4195 0.204566 8.05141 0.338813 8.40605 0.428311C8.7607 0.517808 9.31524 0.690411 9.63119 0.811872C9.94715 0.933333 10.5146 1.18904 10.8886 1.38082C11.2626 1.5726 11.8429 1.9242 12.1782 2.16073C12.5135 2.39726 13.1067 2.90228 14.2093 3.97626H18.7875L19.4968 3.28585C19.8901 2.90228 20.4833 2.39726 20.8186 2.16073C21.1539 1.9242 21.7665 1.55982 22.1727 1.35525C22.579 1.14429 23.1593 0.888584 23.4623 0.779909C23.7654 0.671233 24.2297 0.524201 24.494 0.447489C24.7584 0.377169 25.3774 0.242922 25.8675 0.159817C26.3511 0.0703196 26.9314 0 27.1571 0C27.3957 0 27.7632 0.0639269 28.0727 0.159817C28.3564 0.242922 28.7627 0.421918 28.9755 0.562557C29.1883 0.696804 29.5171 0.978082 29.7106 1.18904C29.8975 1.39361 30.1361 1.73881 30.2328 1.94977C30.336 2.16073 30.5037 2.65297 30.6133 3.03653C30.7229 3.42648 30.8583 4.00183 30.9099 4.31507C30.9615 4.6347 31.0389 5.29315 31.0775 5.78539C31.1162 6.27763 31.1291 7.05114 31.1033 7.51142C31.0775 7.97169 31.0195 8.68767 30.9679 9.10959C30.9228 9.53151 30.8519 10.0237 30.8196 10.1963C30.7616 10.5096 30.768 10.5224 31.0904 11.0594C31.271 11.3598 31.574 11.9288 31.761 12.3251C31.948 12.7151 32.1028 13.105 32.1028 13.1881C32.1028 13.2648 32.0641 13.3863 32.019 13.4566C31.9674 13.5269 31.8513 13.6037 31.761 13.6356C31.6514 13.6612 31.5225 13.6484 31.4257 13.6037C31.3161 13.5461 31.1227 13.2201 30.7616 12.4977C30.4327 11.8457 30.0394 11.1872 29.6783 10.6822C29.3624 10.2411 28.8143 9.58265 28.4596 9.21826C28.105 8.84749 27.5956 8.37443 27.3312 8.16347C27.0668 7.95251 26.6026 7.6137 26.2995 7.42192C25.9964 7.22374 25.4613 6.9105 25.1066 6.73151C24.752 6.55251 24.1652 6.28402 23.8041 6.14338C23.4366 5.99635 22.8562 5.79817 22.5145 5.69589C22.1663 5.59361 21.5215 5.43379 21.0766 5.34429C20.6316 5.25479 20.2254 5.17808 20.1738 5.18447C20.1029 5.18447 20.1803 5.39543 20.464 5.96438C20.6768 6.39269 20.9476 7.03196 21.0637 7.38356C21.1797 7.73516 21.3345 8.3105 21.4119 8.6621C21.5279 9.19269 21.5537 9.51872 21.5537 10.5799C21.5602 11.6539 21.5344 11.9735 21.4183 12.5616C21.3345 12.9516 21.1733 13.5781 21.0508 13.968C20.9282 14.358 20.7993 14.8438 20.7606 15.0548C20.7219 15.2658 20.6897 15.6877 20.6897 16.0009C20.6897 16.3078 20.7348 16.7808 20.7928 17.0557C20.8509 17.3242 20.9798 17.7461 21.083 17.9954C21.1797 18.2447 21.3861 18.6283 21.5344 18.8584C21.6762 19.0886 21.9793 19.4594 22.1921 19.6767C22.4113 19.9005 22.7917 20.2201 23.0432 20.3927C23.2947 20.5589 23.7719 20.8338 24.1072 21C24.4425 21.1662 25.055 21.4155 25.4613 21.5498C25.8675 21.684 26.4801 21.8438 26.8154 21.9014C27.2345 21.9781 27.7826 22.0164 28.5563 22.0164C29.1754 22.0228 29.9362 21.9845 30.8132 21.863L31.0969 21.2749C31.2581 20.9489 31.458 20.4502 31.5547 20.169C31.6514 19.8877 31.7868 19.3826 31.8642 19.0502C31.9609 18.5836 31.9932 18.2 31.9996 17.3881C32.0061 16.6018 31.9738 16.1543 31.8771 15.6301C31.7739 15.0548 31.7675 14.895 31.832 14.7543C31.8771 14.6457 31.9803 14.5626 32.0899 14.537C32.1866 14.5114 32.3349 14.5178 32.4252 14.5498C32.5155 14.5817 32.6186 14.684 32.6638 14.7671C32.7025 14.8566 32.7992 15.2849 32.8766 15.726C32.9991 16.41 33.0184 16.6721 32.9862 17.5479C32.9604 18.232 32.9088 18.7817 32.8121 19.21C32.7347 19.5616 32.5799 20.137 32.4639 20.4886C32.3414 20.8402 32.0899 21.4411 31.89 21.8311C31.6966 22.221 31.3677 22.7644 31.1678 23.0457C30.9615 23.3269 30.6068 23.768 30.3683 24.0301C30.1361 24.2922 29.7234 24.6822 29.4591 24.8995C29.1947 25.1169 28.7433 25.4493 28.4596 25.6347C28.1759 25.8137 27.6794 26.0886 27.3634 26.242C27.0475 26.3954 26.551 26.6 26.2673 26.6895C25.9836 26.7854 25.3581 26.9644 24.8809 27.0858C24.4038 27.2009 23.5204 27.3863 22.9143 27.4886C22.3081 27.5909 21.3409 27.7187 20.7541 27.7699C20.1674 27.8274 19.3356 27.8977 18.9035 27.9361C18.4651 27.968 17.4011 28 16.5306 28C15.6602 28 14.5962 27.968 14.1578 27.9361C13.7257 27.8977 13.01 27.8402 12.5651 27.8018C12.1202 27.7635 11.3528 27.674 10.8563 27.61C10.3598 27.5397 9.53447 27.3927 9.01862 27.284C8.50278 27.1817 7.98693 27.0539 7.87086 27.0027C7.7548 26.9516 7.63873 26.8365 7.5936 26.7406C7.54846 26.6128 7.54846 26.5169 7.5936 26.421C7.63228 26.3379 7.72901 26.2292 7.80638 26.1717C7.94179 26.0822 8.01272 26.0886 8.66398 26.2356C9.05731 26.3187 9.53447 26.421 9.72791 26.4594C9.92136 26.4977 10.3856 26.5744 10.7596 26.6256C11.1336 26.6831 11.8429 26.7662 12.3394 26.8237C12.8359 26.8749 13.9966 26.9452 14.9186 26.9836C16.0986 27.0283 17.0658 27.0283 18.1943 26.9836C19.0712 26.9452 20.2125 26.8685 20.7348 26.8174C21.2635 26.7662 22.1405 26.6447 22.6886 26.5553C23.2367 26.4658 24.0943 26.2868 24.5908 26.1653C25.0873 26.0438 25.7385 25.8521 26.0416 25.7498C26.3446 25.6411 26.8218 25.4429 27.1055 25.2959C27.3892 25.1553 27.7955 24.9251 28.0083 24.7845C28.221 24.6438 28.6144 24.3498 28.8787 24.126C29.1431 23.9087 29.4913 23.5763 29.6525 23.3909C29.8137 23.1991 29.9427 23.0393 29.9427 23.0329C29.9427 23.0201 29.2914 23.0009 28.4919 22.9881C27.3054 22.969 26.925 22.9434 26.3962 22.8283C26.0416 22.7516 25.4484 22.5854 25.0744 22.4639C24.7004 22.3425 24.1072 22.0995 23.7525 21.9269C23.3979 21.7543 22.8756 21.4603 22.5919 21.2749C22.3081 21.0895 21.889 20.7635 21.6633 20.5525C21.4376 20.3416 21.1152 19.9836 20.9476 19.7534C20.7735 19.5233 20.522 19.1078 20.3802 18.8265C20.2383 18.5452 20.0642 18.1297 19.9933 17.8995C19.9223 17.6694 19.8256 17.3114 19.7805 17.1005C19.7354 16.8895 19.7031 16.3845 19.7031 15.9817C19.7031 15.579 19.7418 15.0612 19.7805 14.8311C19.8256 14.6009 19.961 14.1151 20.0771 13.7443C20.1932 13.3735 20.335 12.8493 20.3931 12.5808C20.4511 12.3059 20.5285 11.7881 20.5672 11.4301C20.6058 11.0658 20.6187 10.484 20.5929 10.1324C20.5672 9.78082 20.4962 9.21827 20.4317 8.88585C20.3673 8.55342 20.2254 8.01005 20.1158 7.69041C20.0062 7.36438 19.7676 6.80183 19.587 6.44384C19.4001 6.07945 19.1421 5.61279 19.0067 5.40183C18.7746 5.03105 18.7552 5.01827 18.4199 4.97352C18.2329 4.94795 17.3689 4.92237 16.4984 4.92237C15.6279 4.92237 14.7639 4.94795 14.5769 4.97352C14.2416 5.01827 14.2222 5.03105 13.9901 5.40183C13.8547 5.61279 13.5968 6.07945 13.4098 6.44384C13.2292 6.80183 12.9906 7.36438 12.881 7.69041C12.7714 8.01005 12.6296 8.55342 12.5586 8.88585C12.4941 9.21827 12.4232 9.78082 12.4039 10.1324C12.3781 10.484 12.391 11.0658 12.4297 11.4301C12.4684 11.7881 12.5457 12.3059 12.6038 12.5808C12.6618 12.8493 12.8037 13.3735 12.9197 13.7443C13.0358 14.1151 13.1712 14.6009 13.2163 14.8311C13.255 15.0612 13.2937 15.579 13.2937 15.9817C13.2937 16.3845 13.2615 16.8895 13.2163 17.1005C13.1712 17.3114 13.0745 17.6694 13.0035 17.8995C12.9326 18.1297 12.7585 18.5452 12.6167 18.8265C12.4748 19.1078 12.2169 19.5233 12.0492 19.7534C11.8816 19.9836 11.5592 20.3416 11.3335 20.5525C11.1078 20.7635 10.6887 21.0895 10.405 21.2749C10.1212 21.4603 9.59895 21.7543 9.24431 21.9269C8.88966 22.0995 8.29644 22.3425 7.92245 22.4639C7.54846 22.5854 6.95523 22.7516 6.60059 22.8283C6.07829 22.937 5.69141 22.969 4.5372 22.9881C3.75698 23.0009 3.11217 23.0265 3.10572 23.0457C3.09283 23.0648 3.20889 23.2247 3.3572 23.4037C3.51195 23.5826 3.8537 23.9087 4.11807 24.126C4.38245 24.3434 4.74354 24.6247 4.92409 24.7461C5.09818 24.8676 5.54955 25.1233 5.91709 25.3151C6.45873 25.5963 6.60059 25.705 6.64573 25.8457C6.67797 25.9543 6.66507 26.0822 6.61349 26.1909C6.5748 26.2868 6.45873 26.3954 6.36201 26.4338C6.2137 26.4849 6.10409 26.4658 5.7172 26.2868C5.45928 26.1717 5.00146 25.9288 4.7113 25.7434C4.41469 25.558 3.90529 25.1936 3.58288 24.9251C3.25403 24.663 2.80911 24.2411 2.59632 23.9982C2.37709 23.7553 2.03534 23.3269 1.829 23.0457C1.62911 22.7644 1.30026 22.221 1.10682 21.8311C0.906924 21.4411 0.655449 20.8402 0.532935 20.4886C0.416869 20.137 0.255667 19.5616 0.184738 19.21C0.0901661 18.7839 0.0321333 18.2405 0.0106397 17.5799C-0.0151527 16.8256 0.00419159 16.4292 0.0880168 15.9178C0.14605 15.547 0.268563 14.9717 0.358837 14.6393C0.44911 14.3068 0.649001 13.6995 0.810203 13.2968C0.971405 12.8941 1.21643 12.3315 1.35829 12.0502C1.50015 11.769 1.75807 11.3087 1.92572 11.0274C2.22878 10.5288 2.23523 10.5096 2.1772 10.1963C2.14496 10.0237 2.06758 9.51872 2.00955 9.07763C1.94507 8.55982 1.90638 7.79269 1.90638 6.90411C1.90638 5.94521 1.93862 5.30594 2.00955 4.79452C2.07403 4.39178 2.19009 3.77169 2.27392 3.42009C2.36419 3.06849 2.50605 2.57626 2.60277 2.33333C2.69305 2.09041 2.85425 1.75799 2.95742 1.59817C3.06059 1.43836 3.29272 1.16347 3.48616 0.984475C3.67316 0.805479 3.96977 0.581735 4.15031 0.479452Z" fill="black"/>
<path d="M4.44033 18.9544C4.63377 18.8904 4.95618 18.8009 5.14962 18.7562C5.34306 18.7178 5.78153 18.6795 6.11683 18.6731C6.45214 18.6731 6.85836 18.6987 7.01957 18.737C7.18077 18.7754 7.37421 18.8649 7.45804 18.9416C7.53541 19.0183 7.60634 19.1525 7.60634 19.242C7.60634 19.3315 7.54831 19.4722 7.47738 19.5617C7.37421 19.6959 7.31618 19.7151 7.07115 19.6959C6.92285 19.6767 6.45858 19.664 6.05235 19.664C5.3882 19.6704 5.25279 19.6895 4.73049 19.8685C4.40809 19.9772 4.07924 20.0731 3.98896 20.0731C3.89869 20.0731 3.76328 20.0092 3.67946 19.9261C3.60208 19.8494 3.5376 19.7215 3.5376 19.6448C3.5376 19.5617 3.55694 19.453 3.58273 19.3955C3.61497 19.3379 3.73749 19.2357 3.86 19.1781C3.98252 19.1142 4.24689 19.0183 4.44033 18.9544Z" fill="black"/>
<path d="M3.58298 16.2567C3.61522 16.1672 3.6926 16.0521 3.76353 16.001C3.8538 15.9434 4.11817 15.9178 4.64691 15.9178C5.07894 15.9178 5.60123 15.9626 5.85916 16.0137C6.10418 16.0649 6.49107 16.1799 6.7103 16.2694C6.93599 16.3653 7.21325 16.506 7.32287 16.5891C7.43894 16.6786 7.555 16.8128 7.57435 16.8895C7.59369 16.9726 7.57435 17.1197 7.52276 17.2156C7.47763 17.3115 7.35511 17.4265 7.2455 17.4649C7.0714 17.5288 7.00692 17.5096 6.63293 17.3051C6.4008 17.1772 6.02681 17.0302 5.79467 16.979C5.54965 16.9215 5.07249 16.8768 4.64691 16.8768C4.25358 16.8768 3.87959 16.8576 3.82156 16.8256C3.76353 16.8 3.67325 16.7041 3.62812 16.6019C3.57008 16.4932 3.55719 16.3653 3.58298 16.2567Z" fill="black"/>
<path d="M3.87942 9.94065C4.11155 9.65937 4.55002 9.18631 4.86598 8.89225C5.17548 8.59818 5.43341 8.36805 5.43986 8.38723C5.4463 8.40001 5.38827 8.68768 5.31089 9.0201C5.22707 9.35252 5.11745 9.8959 5.05942 10.2283C5.00783 10.5607 4.93046 11.0977 4.89177 11.411C4.85953 11.7242 4.82729 12.5041 4.82729 13.137C4.82729 13.7699 4.85953 14.5498 4.89177 14.863C4.92401 15.1763 4.96915 15.547 5.02073 15.9178H4.45975C4.08576 15.9178 3.84718 15.9498 3.76335 16.0009C3.69242 16.0521 3.61505 16.1671 3.58925 16.2566C3.55701 16.3653 3.56991 16.4932 3.62794 16.6082C3.67308 16.7041 3.76335 16.8 3.82138 16.832C3.87942 16.8575 4.21472 16.8767 5.21417 16.8767L5.25286 17.0557C5.27865 17.1516 5.38827 17.548 5.69778 18.6539L5.31089 18.7242C5.09811 18.769 4.73701 18.8585 4.50488 18.9352C4.27275 19.0055 3.98259 19.1142 3.86007 19.1781C3.73756 19.2356 3.61505 19.3379 3.58925 19.3954C3.55701 19.453 3.53767 19.5617 3.53767 19.6448C3.53767 19.7215 3.60215 19.8493 3.68598 19.9324C3.76335 20.0091 3.89876 20.0731 3.98904 20.0731C4.07931 20.0731 4.39527 19.9836 4.69833 19.8813C5.00139 19.779 5.43341 19.6767 6.08466 19.6192L6.58762 20.6612C6.85844 21.2365 7.07767 21.7096 7.07122 21.716C7.05833 21.716 6.8262 21.7671 6.55538 21.8247C6.27811 21.8822 5.75581 21.9589 5.39472 21.9973C5.02718 22.042 4.38237 22.0548 3.95679 22.0356C3.53122 22.0164 2.95734 21.9589 2.17067 21.8311L1.88696 21.2557C1.73865 20.9425 1.52586 20.4183 1.42269 20.105C1.31308 19.7918 1.18412 19.2868 1.12608 18.9863C1.06805 18.6859 0.997121 18.1105 0.977777 17.7078C0.958432 17.2731 0.971328 16.6977 1.02291 16.3014C1.0616 15.9306 1.16477 15.368 1.2486 15.0548C1.32597 14.7416 1.50007 14.1918 1.63548 13.8402C1.76444 13.4886 2.04816 12.8557 2.26095 12.4338C2.47373 12.0119 2.82838 11.3918 3.05406 11.0594C3.27975 10.727 3.65373 10.2219 3.87942 9.94065Z" fill="#6A3EEB"/>
<path d="M10.5982 5.6639C10.9141 5.5744 11.5138 5.42737 11.92 5.34427C12.3263 5.25477 12.7196 5.18445 12.7905 5.18445C12.9066 5.18445 12.8744 5.26755 12.5326 5.96436C12.3198 6.39267 12.049 7.03194 11.9329 7.38354C11.8169 7.73513 11.6621 8.31048 11.5847 8.66207C11.4687 9.19267 11.4429 9.5123 11.4364 10.5799C11.4364 11.6602 11.4622 11.9671 11.5783 12.5616C11.6621 12.9516 11.8233 13.5781 11.9458 13.968C12.0684 14.358 12.1973 14.8438 12.236 15.0548C12.2747 15.2657 12.3069 15.6876 12.3069 16.0009C12.3069 16.3077 12.2618 16.7808 12.2038 17.0557C12.1457 17.3242 12.0168 17.7461 11.9136 17.9954C11.8169 18.2447 11.6105 18.6283 11.4622 18.8584C11.3204 19.0886 11.0173 19.4593 10.8045 19.6767C10.5853 19.9004 10.1984 20.2201 9.95338 20.3927C9.70835 20.5589 9.23764 20.8274 8.92169 20.9808C8.60573 21.1406 8.08988 21.3644 7.78037 21.473C7.46442 21.5817 7.1807 21.6712 7.14846 21.6712C7.11622 21.6712 6.88409 21.2749 6.63906 20.7954C6.40048 20.3096 6.1748 19.8429 6.09742 19.5936L6.54234 19.6447C6.78737 19.6767 7.07108 19.7023 7.1807 19.7023C7.30966 19.7023 7.41283 19.6532 7.49021 19.5552C7.55469 19.4721 7.60628 19.3315 7.60628 19.242C7.60628 19.1525 7.53535 19.0182 7.45797 18.9479C7.37414 18.8712 7.23873 18.7881 7.14846 18.7561C7.05819 18.7306 6.6971 18.6922 5.70409 18.6347L5.61382 18.347C5.56868 18.1872 5.45906 17.7972 5.37524 17.484C5.29141 17.1707 5.22693 16.9023 5.23338 16.8895C5.23983 16.8767 5.46551 16.915 5.72988 16.9726C6.0007 17.0301 6.40048 17.1771 6.63261 17.305C7.0324 17.5223 7.06464 17.5287 7.26453 17.4456C7.38059 17.3945 7.50311 17.2858 7.54179 17.1963C7.58048 17.1068 7.59338 16.9726 7.57404 16.8959C7.55469 16.8128 7.43863 16.6785 7.32256 16.589C7.21294 16.5059 6.93567 16.3653 6.71644 16.2694C6.49076 16.1799 6.10387 16.0648 5.85884 16.0137C5.61382 15.9625 5.32365 15.9178 5.21403 15.9178C5.03994 15.9178 5.02059 15.8922 4.98835 15.6813C4.96901 15.547 4.92387 15.1762 4.89163 14.863C4.85939 14.5497 4.82715 13.7698 4.82715 13.137C4.82715 12.5041 4.85939 11.7242 4.89163 11.4109C4.93032 11.0977 5.00125 10.5735 5.05283 10.2602C5.11086 9.94701 5.23338 9.37166 5.5042 8.2913L5.89108 7.99084C6.10387 7.81824 6.53589 7.51778 6.8583 7.31961C7.1807 7.12143 7.69655 6.82737 8.01895 6.66755C8.33491 6.50774 8.91524 6.25203 9.30857 6.0986C9.70191 5.95157 10.2822 5.7534 10.5982 5.6639Z" fill="#9874FF"/>
<path d="M9.73426 16.8349C9.74068 16.1861 9.741 16.154 9.92122 15.9753C10.0244 15.873 10.1598 15.7899 10.2243 15.7899C10.2888 15.7835 10.4177 15.841 10.695 16.0456V17.7077L10.5209 17.8356C10.4177 17.9123 10.3017 17.9698 10.263 17.9634C10.2178 17.9634 10.1082 17.9251 10.0179 17.8867C9.92767 17.842 9.83095 17.7397 9.79226 17.663C9.76002 17.5799 9.72778 17.2091 9.73423 16.8383L9.73426 16.8349Z" fill="black"/>
<path d="M24.623 5.35709C24.623 5.33791 24.8423 5.10138 25.1067 4.83289C25.371 4.5644 25.6225 4.34705 25.6547 4.34705C25.6934 4.34705 25.932 4.44933 26.1835 4.57718C26.4414 4.70504 26.8992 4.95435 27.2023 5.13335C27.5053 5.31874 28.0341 5.67033 28.3823 5.92604C28.724 6.18175 29.2463 6.62284 29.5365 6.90412C29.8331 7.1854 30.0975 7.38997 30.1233 7.3644C30.1555 7.33883 30.162 7.42193 30.1426 7.54339C30.1233 7.66485 30.091 8.04202 30.0717 8.37444C30.0523 8.70686 30.0137 9.07125 29.9427 9.38449L29.4914 8.86668C29.2399 8.57901 28.7498 8.09316 28.3952 7.77992C28.0405 7.46668 27.3699 6.96166 26.9121 6.65481C26.4543 6.35435 25.745 5.94522 25.3517 5.75344C24.9519 5.56166 24.623 5.38266 24.623 5.35709Z" fill="#FD8B9B"/>
<path d="M5.56879 5.26759C5.78158 5.13335 6.24584 4.87125 6.60048 4.68586C6.95513 4.50047 7.28398 4.34705 7.32267 4.34705C7.36781 4.34705 7.62573 4.57079 7.8901 4.84568C8.16092 5.11417 8.38016 5.3507 8.37371 5.36988C8.37371 5.38906 8.05775 5.55527 7.67732 5.73426C7.29688 5.91965 6.66496 6.27764 6.27808 6.52695C5.89119 6.78266 5.38179 7.13426 5.14966 7.31965C4.91753 7.49864 4.49841 7.86942 4.21469 8.13152C3.93097 8.40001 3.55698 8.78997 3.05403 9.39727L3.0089 9.18632C2.9831 9.07764 2.94442 8.70686 2.92507 8.37444C2.90573 8.04202 2.87349 7.66485 2.85414 7.54339C2.8348 7.42193 2.84125 7.33883 2.87349 7.3644C2.89928 7.38997 3.1701 7.17901 3.47316 6.89134C3.77622 6.60367 4.27917 6.17536 4.60158 5.94522C4.92398 5.70869 5.356 5.40823 5.56879 5.26759Z" fill="#FD8B9B"/>
<path d="M27.3957 3.42008C27.5891 3.35616 27.9824 3.26666 28.2662 3.22191C28.5499 3.18355 28.9174 3.1452 29.0915 3.1388C29.2592 3.13241 29.4591 3.15798 29.5429 3.18995C29.6589 3.23469 29.7105 3.34337 29.8266 3.90593C29.9104 4.27031 30.0007 4.77533 30.0329 5.01826C30.0716 5.26118 30.1168 5.8557 30.1426 6.32876C30.1683 6.80182 30.1683 7.24931 30.149 7.31963C30.1103 7.43469 30.0394 7.38355 29.5687 6.93606C29.2785 6.65479 28.8078 6.24565 28.5241 6.03469C28.2404 5.81734 27.789 5.5041 27.5246 5.3315C27.2603 5.16529 26.7315 4.86483 25.6611 4.31506L25.9642 4.11689C26.1318 4.00821 26.4414 3.82921 26.6541 3.72693C26.8669 3.61826 27.2022 3.48401 27.3957 3.42008Z" fill="#FDB2BD"/>
<path d="M3.19597 3.71414C3.2798 3.36893 3.34428 3.22829 3.441 3.18994C3.51193 3.16437 3.68603 3.13879 3.82788 3.13879C3.96974 3.1324 4.36307 3.17715 4.69838 3.22829C5.03368 3.27943 5.47215 3.37532 5.66559 3.43925C5.85903 3.50957 6.19433 3.65021 6.40712 3.75889C6.61991 3.86756 6.91652 4.04016 7.33564 4.31505L6.79401 4.58354C6.49095 4.73697 6.00734 5.00546 5.71717 5.18446C5.42056 5.36345 4.92406 5.70866 4.60165 5.93879C4.27925 6.17532 3.76985 6.60363 3.45389 6.89131C2.98963 7.32601 2.88646 7.39633 2.84777 7.30044C2.82843 7.2429 2.82843 6.78902 2.85422 6.29679C2.88001 5.80455 2.94449 5.12692 2.99608 4.7945C3.04766 4.46208 3.13794 3.97624 3.19597 3.71414Z" fill="#FDB2BD"/>
<path d="M20.3029 3.81649C20.4963 3.64388 20.8252 3.36261 21.0315 3.1964C21.3088 2.97265 21.4378 2.90872 21.5151 2.94708C21.5796 2.97265 21.9407 3.06854 22.334 3.16443C22.7776 3.27256 23.398 3.44571 23.83 3.58635C24.2685 3.7206 24.6231 3.85484 24.6231 3.88681C24.6231 3.91238 24.507 4.04662 24.3587 4.18726C24.2169 4.3279 23.9976 4.57083 23.6623 5.01831L23.1916 4.87128C22.9337 4.78818 22.3856 4.64114 21.9794 4.54525C21.5732 4.44297 20.9477 4.31512 19.9482 4.13612L20.3029 3.81649Z" fill="#2D20BD"/>
<path d="M10.5081 3.20909C11.0304 3.08123 11.4753 2.95338 11.5011 2.92781C11.5269 2.90224 11.7074 3.01091 11.9073 3.16434C12.1137 3.31776 12.449 3.59904 13.0486 4.13603L12.4038 4.25109C12.0492 4.31502 11.4237 4.44288 11.0175 4.54516C10.6113 4.64105 10.0632 4.78808 9.33453 5.01822L9.19268 4.82644C9.1153 4.71776 8.89606 4.46845 8.69617 4.26388C8.50273 4.06571 8.35442 3.88671 8.37377 3.87393C8.39311 3.86114 8.67038 3.75886 8.98634 3.64379C9.30229 3.53511 9.99224 3.33694 10.5081 3.20909Z" fill="#6A3EEB"/>
<path d="M25.5903 1.1762C25.8547 1.12506 26.2738 1.05474 26.5253 1.02277C26.7767 0.997203 27.1507 0.984418 27.3635 0.997203C27.6279 1.01638 27.8987 1.09949 28.2018 1.24013C28.5113 1.38716 28.7563 1.56615 29.285 2.1415L28.7112 2.18624C28.3952 2.21182 27.918 2.27574 27.6537 2.33967C27.3893 2.3972 26.9508 2.53145 26.6865 2.63373C26.4221 2.73602 26.0159 2.93419 25.7837 3.06844C25.5516 3.20908 25.2034 3.44561 24.6553 3.87392L24.0427 3.65656C23.7074 3.5415 23.011 3.33693 22.4952 3.20268C21.9793 3.07483 21.5473 2.94058 21.528 2.90223C21.5086 2.87026 21.7408 2.69766 22.0438 2.51227C22.3469 2.33328 22.895 2.052 23.269 1.89218C23.643 1.73236 24.2104 1.53419 24.5263 1.4383C24.8423 1.3488 25.3259 1.23373 25.5903 1.1762Z" fill="#3E2FE9"/>
<path d="M4.79491 1.22101C4.969 1.1379 5.23338 1.0484 5.37523 1.02283C5.51709 0.99087 5.8395 0.984477 6.08452 0.997263C6.32955 1.01644 6.78092 1.07397 7.08398 1.12512C7.38704 1.17626 7.88999 1.28493 8.21239 1.36804C8.52835 1.45114 9.02485 1.61096 9.30857 1.71964C9.59229 1.82831 10.0437 2.02649 10.308 2.16073C10.5724 2.29498 10.9593 2.51233 11.1592 2.64018C11.3655 2.76804 11.5138 2.89589 11.4945 2.92146C11.4687 2.95343 11.0302 3.07489 10.5079 3.20913C9.99207 3.33699 9.28923 3.54155 8.34136 3.87397L7.98671 3.59909C7.79327 3.44566 7.44507 3.20913 7.21294 3.0685C6.98081 2.93425 6.57458 2.73608 6.31021 2.63379C6.04584 2.53151 5.60737 2.39726 5.34299 2.33973C5.07862 2.2758 4.60146 2.21187 3.69873 2.14155L4.08562 1.7516C4.2984 1.54064 4.61436 1.30411 4.79491 1.22101Z" fill="#9874FF"/>
<path d="M13.9902 5.38269C14.2159 5.0247 14.2675 4.98634 14.4867 4.96716H14.4803C14.6157 4.95438 15.4797 4.94159 16.4018 4.9352C17.3239 4.92881 18.2331 4.94798 18.4201 4.97356C18.7554 5.0183 18.7747 5.03109 19.0068 5.40187C19.1422 5.61282 19.4002 6.07949 19.5872 6.44387C19.7677 6.80187 20.0063 7.36442 20.1159 7.68406C20.2255 8.01008 20.3674 8.55346 20.4319 8.88588C20.4963 9.2183 20.5673 9.78086 20.5931 10.1325C20.6189 10.4841 20.606 11.0658 20.5673 11.4302C20.5286 11.7882 20.4512 12.306 20.3932 12.5745C20.3351 12.8494 20.1933 13.3736 20.0772 13.7443C19.9612 14.1151 19.8257 14.601 19.7806 14.8311C19.7419 15.0612 19.7032 15.579 19.7032 15.9818C19.7032 16.3845 19.7355 16.8895 19.7806 17.1005C19.8257 17.3115 19.9225 17.6694 19.9934 17.8996C20.0643 18.1297 20.2384 18.5452 20.3803 18.8265C20.5221 19.1078 20.7736 19.5233 20.9477 19.7535C21.1154 19.9836 21.4378 20.3416 21.6635 20.5526C21.8891 20.7635 22.3083 21.0895 22.592 21.2749C22.8757 21.4603 23.398 21.7544 23.7526 21.927C24.1073 22.0996 24.7005 22.3425 25.0745 22.464C25.4485 22.5854 26.0417 22.7516 26.3964 22.8284C26.9186 22.937 27.3055 22.969 28.4597 22.9882C29.24 23.001 29.8848 23.0265 29.8912 23.0457C29.9041 23.0649 29.788 23.2247 29.6333 23.4037C29.485 23.5827 29.1432 23.9087 28.8789 24.1261C28.6145 24.3498 28.2212 24.6439 28.0084 24.7845C27.7956 24.9252 27.3894 25.1553 27.1056 25.2959C26.8219 25.443 26.3448 25.6411 26.0417 25.7498C25.7386 25.8521 25.0874 26.0439 24.5909 26.1653C24.0944 26.2868 23.2368 26.4658 22.6887 26.5553C22.1406 26.6448 21.2637 26.7662 20.7349 26.8174C20.2126 26.8685 19.0713 26.9452 18.1879 26.9836C17.0466 27.0283 16.1116 27.0283 14.8865 26.9836C13.9451 26.9452 12.7973 26.8685 12.3395 26.8174C11.8752 26.7726 11.4884 26.7087 11.469 26.6768C11.4497 26.6512 11.1918 26.421 10.8887 26.1653C10.5856 25.916 10.0504 25.411 9.69579 25.053C9.34115 24.6886 8.87044 24.1708 8.65765 23.9087C8.44486 23.6466 8.13536 23.2375 7.96771 22.9946C7.70333 22.6238 7.67754 22.5599 7.77426 22.5279C7.83874 22.5023 8.18049 22.3745 8.53514 22.2338C8.88978 22.0996 9.43787 21.8375 9.76027 21.6585C10.0762 21.4795 10.4825 21.2302 10.663 21.1087C10.8371 20.9809 11.1531 20.7188 11.3594 20.5206C11.5722 20.3288 11.8817 19.9836 12.0493 19.7535C12.217 19.5233 12.4749 19.1078 12.6168 18.8265C12.7586 18.5452 12.9327 18.1297 13.0037 17.8996C13.0746 17.6694 13.1713 17.3115 13.2165 17.1005C13.2616 16.8895 13.2938 16.3845 13.2938 15.9818C13.2938 15.579 13.2551 15.0612 13.2165 14.8311C13.1713 14.601 13.0359 14.1151 12.9198 13.7443C12.8038 13.3736 12.6619 12.8494 12.6039 12.5745C12.5459 12.306 12.4685 11.7882 12.4298 11.4238C12.3911 11.0658 12.3782 10.4841 12.404 10.1325C12.4233 9.78086 12.4943 9.2183 12.5587 8.88588C12.6297 8.55346 12.7715 8.01008 12.8812 7.68406C12.9908 7.36442 13.2293 6.80187 13.4099 6.43748C13.5969 6.07949 13.8548 5.60643 13.9902 5.38269Z" fill="#E9E1FF"/>
<path d="M13.8029 18.7945C13.7706 18.5452 13.79 18.4813 13.9383 18.3343V18.3279C14.035 18.232 14.1769 18.1553 14.2736 18.1553C14.3639 18.1553 14.5057 18.2256 14.596 18.3151C14.6992 18.4174 14.7572 18.5452 14.7572 18.6667C14.7572 18.7945 14.8217 18.9224 14.9506 19.0502C15.0989 19.1973 15.2021 19.242 15.402 19.242C15.5954 19.242 15.7051 19.2037 15.8211 19.0822C15.9114 18.9927 16.0017 18.8009 16.0275 18.6603C16.0597 18.4877 16.1371 18.3471 16.2403 18.2703C16.3305 18.2064 16.453 18.1489 16.5111 18.1553C16.5756 18.1553 16.6723 18.1745 16.7303 18.2C16.7883 18.232 16.8786 18.3279 16.9238 18.4238C16.9753 18.526 17.014 18.6667 17.014 18.7434C17.014 18.8265 17.0914 18.9671 17.1881 19.063C17.3235 19.1973 17.4267 19.242 17.6137 19.242C17.8007 19.242 17.9103 19.1973 18.0393 19.063C18.1489 18.9544 18.2327 18.7881 18.2585 18.6155C18.2907 18.4429 18.3552 18.3151 18.4455 18.2512C18.5293 18.2 18.6518 18.1553 18.7228 18.1553C18.7937 18.1489 18.9291 18.2064 19.0258 18.2831C19.1806 18.3918 19.2064 18.4557 19.2064 18.7114C19.2064 18.884 19.1483 19.1334 19.0839 19.274C19.0194 19.4146 18.8711 19.6256 18.7486 19.7471C18.626 19.8685 18.4133 20.0155 18.2714 20.0795C18.1102 20.1562 17.8587 20.2009 17.6073 20.2009C17.2848 20.2009 17.143 20.1626 16.5304 19.8302L16.1435 20.0155C15.8534 20.1562 15.6664 20.2009 15.3827 20.2009C15.1828 20.2009 14.9184 20.1626 14.8023 20.1178C14.6927 20.0667 14.4864 19.9324 14.3445 19.811C14.2091 19.6895 14.0415 19.4786 13.9705 19.3379C13.8996 19.1973 13.8222 18.9544 13.8029 18.7945Z" fill="black"/>
<path d="M21.0635 7.38358C20.9474 7.03198 20.6766 6.39271 20.4638 5.9644V5.95801C20.1737 5.38267 20.0963 5.1781 20.1737 5.1781C20.2253 5.1781 20.6315 5.25481 21.0764 5.34431C21.5213 5.43381 22.1661 5.59363 22.5143 5.69591C22.8561 5.79819 23.4364 5.99637 23.7975 6.1434C24.165 6.28404 24.7518 6.55253 25.1065 6.73153C25.4611 6.91052 25.9963 7.22376 26.2994 7.42194C26.6024 7.61372 27.0667 7.95253 27.3311 8.16349C27.5954 8.37445 28.1048 8.84751 28.4595 9.21828C28.8141 9.58267 29.3622 10.2411 29.6782 10.6822C30.0393 11.1872 30.4326 11.8457 30.7614 12.4977C31.1225 13.2201 31.316 13.5461 31.4256 13.5973C31.5159 13.642 31.6384 13.6676 31.7029 13.6484C31.7867 13.6228 31.8383 13.6804 31.9221 13.8849C31.9801 14.0384 32.0446 14.2238 32.064 14.3005C32.0897 14.4028 32.0575 14.4923 31.9414 14.6073C31.8447 14.7032 31.7802 14.8375 31.7802 14.9397C31.7802 15.042 31.8318 15.3489 31.8899 15.6302C31.9672 15.9945 31.993 16.4676 31.9995 17.2923C31.9995 18.2256 31.9737 18.558 31.8641 19.0502C31.7867 19.3827 31.6513 19.8877 31.5546 20.169C31.4578 20.4502 31.2579 20.9489 30.813 21.863L30.252 21.9397C29.9361 21.9845 29.1752 22.0229 28.5562 22.0165C27.7824 22.0165 27.2343 21.9781 26.8152 21.9014C26.4799 21.8439 25.8673 21.684 25.4611 21.5498C25.0549 21.4155 24.4423 21.1662 24.107 21C23.7717 20.8338 23.2946 20.5589 23.0431 20.3927C22.7916 20.2201 22.4112 19.9005 22.1919 19.6767C21.9791 19.4594 21.6761 19.0886 21.5342 18.8585C21.3859 18.6283 21.1796 18.2448 21.0829 17.9955C20.9797 17.7461 20.8507 17.3242 20.7927 17.0493C20.7347 16.7808 20.6895 16.3078 20.6895 15.9945C20.6895 15.6877 20.7218 15.2658 20.7605 15.0548C20.7991 14.8439 20.9281 14.358 21.0506 13.9681C21.1731 13.5781 21.3343 12.9516 21.4182 12.5617C21.5342 11.9735 21.56 11.6539 21.5536 10.5799C21.5536 9.51874 21.5278 9.19271 21.4117 8.66212C21.3343 8.31052 21.1796 7.73518 21.0635 7.38358Z" fill="#3E2FE9"/>
<path d="M25.5384 18.9415C25.6223 18.8648 25.8028 18.7689 25.9447 18.7369C26.0865 18.6986 26.5508 18.6794 26.9764 18.6922C27.4019 18.705 27.9113 18.7625 28.1048 18.8136C28.2982 18.8712 28.6335 18.9798 28.8463 19.0566C29.0591 19.1397 29.2848 19.2547 29.3428 19.3187C29.4073 19.3826 29.4589 19.5104 29.4589 19.6063C29.4589 19.7086 29.3944 19.8493 29.3106 19.9324C29.2332 20.0091 29.1042 20.073 29.0204 20.073C28.943 20.073 28.6077 19.9835 28.2853 19.8748C27.7501 19.6958 27.6018 19.6703 26.9441 19.6703C26.5379 19.6703 26.0736 19.6767 25.9253 19.6958C25.6803 19.715 25.6223 19.6958 25.5191 19.5616C25.4482 19.4721 25.3901 19.3314 25.3901 19.2419C25.3901 19.1525 25.4611 19.0182 25.5384 18.9415Z" fill="black"/>
<path d="M26.2993 16.2694C26.5315 16.1735 26.8926 16.0584 27.1053 16.0137C27.3181 15.9689 27.8533 15.9306 28.2982 15.9242C28.8786 15.9178 29.1429 15.9434 29.2332 16.0009C29.3041 16.052 29.3815 16.1671 29.4138 16.2566C29.4396 16.3653 29.4267 16.4931 29.3686 16.6018C29.3235 16.7041 29.2332 16.8 29.1752 16.8255C29.1172 16.8575 28.7561 16.8767 28.3627 16.8767C27.9694 16.8767 27.4987 16.9087 27.3181 16.947C27.1311 16.9854 26.7314 17.1324 26.4283 17.273C25.9576 17.4904 25.8544 17.5224 25.719 17.4648C25.6287 17.4265 25.5191 17.3114 25.474 17.2155C25.4224 17.1196 25.4031 16.9726 25.4224 16.8959C25.4417 16.8128 25.5578 16.6785 25.6674 16.589C25.7835 16.5059 26.0672 16.3589 26.2993 16.2694Z" fill="black"/>
<path d="M22.2886 16.052L22.4691 15.9242C22.5658 15.8475 22.6948 15.7899 22.7657 15.7899C22.8302 15.7899 22.9721 15.8794 23.0752 15.9817C23.2687 16.1735 23.2687 16.1863 23.2687 16.8447C23.2687 17.2155 23.2364 17.5799 23.2042 17.6566C23.1655 17.7397 23.0688 17.842 22.9785 17.8803C22.8882 17.9251 22.7786 17.9634 22.7335 17.9634C22.6948 17.9698 22.5787 17.9123 22.4756 17.8356C22.3015 17.7077 22.3015 17.7077 22.2886 16.052Z" fill="black"/>
<path d="M5.98794 22.9177C6.36193 22.8666 6.87133 22.7643 7.11636 22.7004C7.36138 22.6301 7.58707 22.5725 7.61931 22.5725C7.6451 22.5662 7.79985 22.7579 7.9675 22.9945C8.13516 23.2374 8.44466 23.6465 8.65745 23.9086C8.87024 24.1707 9.34095 24.6885 9.69559 25.0529C10.0502 25.4109 10.5854 25.9159 10.8885 26.1652C11.1916 26.4146 11.4495 26.6319 11.4688 26.6383C11.4882 26.6511 11.4882 26.6703 11.4688 26.6894C11.4495 26.7086 11.0432 26.6639 10.5661 26.5935C10.0889 26.5232 9.37964 26.389 8.9863 26.2995C8.59297 26.2164 8.19964 26.1269 8.10291 26.1141C7.9675 26.0885 7.87723 26.1269 7.53548 26.4657L7.20018 26.3634C7.01319 26.3123 6.80685 26.2483 6.74237 26.2228C6.67789 26.1972 6.64565 26.1397 6.66499 26.0821C6.68433 26.031 6.67144 25.9095 6.63275 25.8072C6.58117 25.673 6.42641 25.5643 5.97504 25.3406C5.64619 25.1744 5.20127 24.9251 4.98849 24.7844C4.7757 24.6438 4.38237 24.3497 4.11799 24.126C3.85362 23.9086 3.51187 23.5826 3.36357 23.4036C3.20881 23.2246 3.07985 23.0584 3.06696 23.0392C3.06051 23.0136 3.56346 23.0009 4.18248 23.0072C4.94335 23.0136 5.53013 22.9881 5.98794 22.9177Z" fill="#B9A0FF"/>
</svg>
