<svg width="39" height="52" viewBox="0 0 39 52" fill="none" xmlns="http://www.w3.org/2000/svg">
<path d="M0 8C0 3.58172 3.58172 0 8 0H31C35.4183 0 39 3.58172 39 8V31C39 35.4183 35.4183 39 31 39H29.25H25.7401C24.9168 39 24.1776 39.5045 23.8776 40.2712L20.4312 49.0785C20.0996 49.926 18.9004 49.926 18.5688 49.0785L15.1224 40.2712C14.8224 39.5045 14.0832 39 13.2599 39H9.75H8C3.58172 39 0 35.4183 0 31V8Z" fill="#3DD8CB"/>
<path d="M10.0043 8.32049C10.1115 8.26393 10.307 8.17596 10.4457 8.11311C10.6034 8.04399 10.8745 8.00628 11.1709 8C11.4358 8 11.7952 8.04399 11.9907 8.10055C12.1799 8.1571 12.5205 8.29536 12.7475 8.40847C12.9745 8.52158 13.3844 8.78552 13.6619 8.9929C13.9394 9.20027 14.4061 9.60874 14.6961 9.89781C14.9862 10.1806 15.3961 10.6268 15.6106 10.8781C15.8439 11.1609 15.97 11.362 15.9322 11.3872C15.8943 11.4186 15.5979 11.5191 15.27 11.6071C14.9421 11.7014 14.3997 11.8773 14.0718 12.003C13.7439 12.1224 13.1763 12.3738 12.8106 12.5623C12.4448 12.7445 11.9277 13.0462 11.6628 13.2284C11.3979 13.4107 11.0007 13.7186 10.7799 13.9071C10.5592 14.0956 10.1871 14.4664 9.9475 14.724C9.70786 14.9817 9.3547 15.4404 9.15921 15.7358C8.96371 16.0374 8.77452 16.3328 8.73669 16.3956C8.69254 16.4648 8.64209 16.5025 8.62317 16.4836C8.59795 16.4648 8.5538 16.3139 8.51597 16.138C8.48443 15.9683 8.41506 15.4719 8.36461 15.0383C8.31416 14.6046 8.27002 13.7626 8.27002 13.1719C8.27002 12.5749 8.30155 11.8648 8.33939 11.6008C8.37723 11.3306 8.45921 10.8844 8.52858 10.6079C8.59795 10.3314 8.75561 9.89781 8.87543 9.65273C9.00155 9.37623 9.23488 9.04317 9.4493 8.81066C9.6511 8.59699 9.89705 8.37705 10.0043 8.32049Z" fill="white"/>
<path d="M27.221 8.42111C27.4292 8.31428 27.7571 8.17603 27.9463 8.11319C28.1985 8.0315 28.4445 8.00636 28.8607 8.01893C29.3463 8.0315 29.485 8.06292 29.8003 8.22002C30.0274 8.33314 30.3174 8.55937 30.5382 8.80445C30.7652 9.04325 30.9922 9.37002 31.1247 9.65281C31.2445 9.89789 31.4021 10.3315 31.4715 10.608C31.5409 10.8845 31.6228 11.3307 31.6607 11.6009C31.6985 11.8648 31.7301 12.5749 31.7301 13.1719C31.7301 13.7626 31.6859 14.6047 31.6355 15.0383C31.585 15.4719 31.5156 15.9684 31.4841 16.1381C31.4463 16.314 31.4021 16.4648 31.3769 16.4837C31.358 16.5025 31.3075 16.4648 31.2634 16.3957C31.2256 16.3329 31.0237 16.0249 30.8219 15.7044C30.576 15.3274 30.1913 14.8749 29.6868 14.3722C29.176 13.8695 28.7156 13.4736 28.2931 13.1971C27.9463 12.9708 27.3093 12.6126 26.8742 12.4116C26.4391 12.2042 25.7328 11.9214 25.2976 11.7831C24.8625 11.6449 24.4147 11.5129 24.3075 11.4941C24.194 11.4752 24.0868 11.4249 24.0679 11.3935C24.049 11.3621 24.2129 11.1107 24.4274 10.8468C24.6481 10.5829 25.0391 10.1493 25.2976 9.88532C25.5625 9.62767 26.0165 9.23177 26.3066 9.01183C26.603 8.79188 27.0129 8.52795 27.221 8.42111Z" fill="white"/>
<path fill-rule="evenodd" clip-rule="evenodd" d="M20.3153 11.4249C21.1351 11.4375 21.9297 11.4877 22.3333 11.5506C22.6991 11.6071 23.3234 11.7203 23.7207 11.8082C24.118 11.8962 24.818 12.091 25.2658 12.2356C25.7135 12.3864 26.3946 12.6566 26.7793 12.8451C27.164 13.0274 27.7126 13.3416 28.009 13.5364C28.3054 13.7375 28.7279 14.0517 28.955 14.2465C29.182 14.435 29.5414 14.7995 29.7622 15.0509C29.9829 15.3022 30.2856 15.6918 30.4306 15.9181C30.582 16.1443 30.8342 16.5842 30.9856 16.8921C31.1432 17.2 31.364 17.7279 31.4712 18.0547C31.5784 18.3815 31.7234 18.9093 31.7865 19.2172C31.8559 19.5252 31.9441 20.0782 31.9883 20.4427C32.0324 20.8386 32.0514 21.6618 32.0135 23.8989H32.8775C33.6658 23.8989 33.7604 23.9115 33.8739 24.0246C33.9432 24.0938 34 24.2132 34 24.2886C34 24.3703 33.9622 24.4897 33.9117 24.5588C33.8297 24.6719 33.7288 24.6845 31.8306 24.7473L31.7676 25.0741C31.7108 25.3569 31.7108 25.4071 31.7928 25.4323C31.8432 25.4448 32.1018 25.5077 32.3604 25.5642C32.6189 25.6271 32.8838 25.7213 32.9468 25.7779C33.0099 25.8345 33.0604 25.9664 33.0541 26.0795C33.0541 26.2241 33.0099 26.3183 32.909 26.3875C32.7829 26.4754 32.7198 26.4754 31.4459 26.1864L31.1496 26.7834C30.9856 27.1164 30.6577 27.6254 30.4243 27.9208C30.1847 28.2162 29.7622 28.6372 29.4847 28.8634C29.2009 29.0897 28.6649 29.429 28.2865 29.6301C27.9081 29.8249 27.3027 30.0826 26.9369 30.2019C26.5712 30.3213 26.0036 30.4785 25.6757 30.5476C25.3477 30.623 24.7487 30.7235 24.3514 30.7738C23.9541 30.8304 23.2288 30.8995 22.7432 30.9372C22.2577 30.9686 21.0279 31 20.0126 31C19.0036 31 17.755 30.9686 17.2378 30.9309C16.727 30.8995 15.9261 30.8115 15.4595 30.7487C14.9928 30.6795 14.2802 30.5413 13.8829 30.4407C13.4856 30.3402 12.9306 30.1705 12.6532 30.0574C12.3757 29.9506 11.8964 29.7244 11.5874 29.5672C11.2784 29.4039 10.7991 29.0897 10.5153 28.8634C10.2378 28.6372 9.81532 28.2162 9.57568 27.9208C9.34234 27.6254 9.01441 27.1164 8.55405 26.1864L7.95496 26.3309C7.62703 26.4126 7.31802 26.4754 7.27387 26.4754C7.23604 26.4754 7.14144 26.4189 7.07207 26.3498C7.0027 26.2806 6.94595 26.1487 6.94595 26.0481C6.93964 25.9539 6.99009 25.8345 7.05315 25.7779C7.11622 25.7213 7.32432 25.6397 7.51351 25.5957C7.7027 25.558 7.96126 25.4951 8.3018 25.4071L8.16937 24.7473L7.17297 24.7159C6.27117 24.6845 6.17027 24.6719 6.08829 24.5588C6.03784 24.4897 6 24.3703 6 24.2886C6 24.2132 6.05676 24.0938 6.12613 24.0246C6.23964 23.9115 6.33423 23.8989 7.98649 23.8989L7.96126 22.4976C7.94865 21.6744 7.96757 20.8323 8.01171 20.4427C8.05586 20.0782 8.16306 19.456 8.25135 19.0601C8.33964 18.6642 8.4973 18.1112 8.5982 17.8347C8.6991 17.5582 8.93243 17.0492 9.10901 16.7036C9.28559 16.358 9.6009 15.8489 9.80901 15.5724C10.0171 15.2959 10.4018 14.856 10.6667 14.5984C10.9315 14.3407 11.4171 13.9386 11.745 13.706C12.073 13.4735 12.6468 13.1279 13.0315 12.9394C13.4162 12.7446 14.009 12.4932 14.3559 12.3675C14.7027 12.2418 15.2955 12.0596 15.6802 11.959C16.0649 11.8585 16.7018 11.714 17.0991 11.6448C17.4964 11.5757 18.0829 11.494 18.3919 11.4626C18.7009 11.4312 19.5712 11.4123 20.3153 11.4249ZM15.5856 16.4648C15.4658 16.5339 15.2829 16.691 15.182 16.8041C15.0811 16.9235 14.9297 17.156 14.8477 17.332C14.7595 17.5017 14.709 17.7028 14.7216 17.7719C14.7405 17.841 14.8288 17.9353 14.9171 17.973C15.0306 18.0295 15.1189 18.0358 15.2072 17.9918C15.2766 17.9541 15.3775 17.8222 15.4342 17.6902C15.4847 17.5645 15.6171 17.3634 15.7306 17.244C15.8441 17.1309 16.027 16.9927 16.1342 16.9487C16.2477 16.8984 16.4432 16.8607 16.5631 16.8607C16.6829 16.8607 16.8784 16.8984 16.9856 16.9487C17.0991 16.9927 17.2694 17.1121 17.364 17.2126C17.4523 17.3131 17.5973 17.5205 17.6793 17.6776C17.7991 17.9039 17.8622 17.9667 18.0135 17.9793C18.1333 17.9918 18.2468 17.9541 18.3162 17.885C18.3793 17.8222 18.4297 17.7342 18.4234 17.6902C18.4234 17.6525 18.3541 17.4703 18.2658 17.3006C18.1775 17.1246 18.0261 16.8921 17.9252 16.779C17.8306 16.6722 17.591 16.4962 17.4081 16.3957C17.1559 16.2574 16.9604 16.2071 16.6577 16.1883C16.4243 16.1757 16.1532 16.2009 16.027 16.2511C15.9072 16.2951 15.7054 16.3894 15.5856 16.4648ZM22.491 16.4271C22.3901 16.4836 22.2072 16.6345 22.0937 16.7601C21.9865 16.8858 21.8225 17.1246 21.7342 17.3006C21.6459 17.4703 21.5766 17.6525 21.5766 17.6902C21.5703 17.7342 21.6207 17.8222 21.6838 17.885C21.7532 17.9541 21.8667 17.9918 21.9865 17.9793C22.1378 17.9667 22.2009 17.9101 22.2892 17.7091C22.3586 17.5708 22.4973 17.3634 22.6045 17.244C22.718 17.1309 22.9009 16.9927 23.0081 16.9487C23.1216 16.8984 23.3171 16.8607 23.4369 16.8607C23.5568 16.8607 23.7523 16.8984 23.8595 16.9487C23.973 16.9927 24.1496 17.1121 24.2505 17.2126C24.345 17.3131 24.4964 17.5268 24.5784 17.6902C24.7045 17.9416 24.7613 17.9918 24.9 17.9918C25.0009 17.9981 25.127 17.9478 25.1838 17.885C25.2468 17.8222 25.2973 17.7342 25.2973 17.6902C25.2973 17.6525 25.2216 17.4577 25.1207 17.2629C25.0198 17.0492 24.8243 16.7916 24.6351 16.6282C24.4586 16.4774 24.1937 16.314 24.036 16.2574C23.8784 16.2071 23.5946 16.1694 23.4054 16.1757C23.2162 16.1757 22.9703 16.2134 22.8694 16.2511C22.7685 16.2951 22.5919 16.3705 22.491 16.4271ZM13.7441 23.3899C13.7505 23.4842 13.8955 23.7921 14.0721 24.0875C14.2486 24.3828 14.5135 24.7724 14.6586 24.961C14.8036 25.1495 15.0937 25.4763 15.3018 25.6899C15.5099 25.8973 15.8757 26.2178 16.1216 26.4063C16.3613 26.5886 16.8721 26.8902 17.2568 27.0787C17.6351 27.261 18.1901 27.4746 18.4865 27.5563C18.9342 27.6757 19.1802 27.7009 20 27.7009C20.8766 27.7009 21.0405 27.682 21.6081 27.5249C21.955 27.4244 22.4658 27.2358 22.7432 27.1039C23.0207 26.9656 23.4432 26.7205 23.6892 26.5509C23.9351 26.3812 24.3261 26.067 24.5658 25.8407C24.8054 25.6208 25.1459 25.2563 25.3225 25.0301C25.4991 24.8101 25.7766 24.3954 25.9468 24.1189C26.1108 23.8424 26.2496 23.5596 26.2496 23.4905C26.2496 23.4213 26.1991 23.3145 26.136 23.258C26.073 23.1951 25.9595 23.1448 25.8775 23.1448C25.7766 23.1448 25.6883 23.2265 25.5622 23.4339C25.4676 23.591 25.2468 23.9366 25.0766 24.2006C24.9 24.4645 24.5342 24.9107 24.2568 25.1872C23.9793 25.47 23.5694 25.8219 23.3423 25.9727C23.1153 26.1235 22.7054 26.356 22.4279 26.4817C22.1505 26.6137 21.6964 26.7834 21.4189 26.8588C21.0216 26.9656 20.7252 26.997 20.0631 26.997C19.4577 27.0033 19.0919 26.9719 18.7829 26.8965C18.5496 26.8399 18.1396 26.708 17.8685 26.6011C17.6036 26.5006 17.1559 26.2744 16.8784 26.0921C16.6009 25.9162 16.1658 25.5642 15.9135 25.3192C15.655 25.0741 15.3144 24.6907 15.1441 24.4645C14.9802 24.2383 14.7532 23.8864 14.6396 23.679C14.5198 23.4716 14.3874 23.2517 14.3306 23.1888C14.2739 23.126 14.1604 23.0757 14.0658 23.082C13.9775 23.082 13.8703 23.1134 13.8198 23.1574C13.7694 23.2014 13.7378 23.3019 13.7441 23.3899Z" fill="white"/>
</svg>
