<svg width="39" height="52" viewBox="0 0 39 52" fill="none" xmlns="http://www.w3.org/2000/svg">
<path d="M0 8C0 3.58172 3.58172 0 8 0H31C35.4183 0 39 3.58172 39 8V31C39 35.4183 35.4183 39 31 39H29.25H25.7401C24.9168 39 24.1776 39.5045 23.8776 40.2712L20.4312 49.0785C20.0996 49.926 18.9004 49.926 18.5688 49.0785L15.1224 40.2712C14.8224 39.5045 14.0832 39 13.2599 39H9.75H8C3.58172 39 0 35.4183 0 31V8Z" fill="#F87380"/>
<path d="M10.0047 8.32049C10.1119 8.26393 10.3074 8.17596 10.4462 8.11311C10.6038 8.04399 10.875 8.00628 11.1714 8C11.4363 8 11.7957 8.04399 11.9912 8.10055C12.1804 8.1571 12.521 8.29536 12.748 8.40847C12.975 8.52158 13.3849 8.78552 13.6624 8.9929C13.9399 9.20027 14.4065 9.60874 14.6966 9.89781C14.9867 10.1806 15.3966 10.6268 15.611 10.8781C15.8444 11.1609 15.9705 11.362 15.9327 11.3872C15.8948 11.4186 15.5984 11.5191 15.2705 11.6071C14.9426 11.7014 14.4002 11.8773 14.0723 12.003C13.7444 12.1224 13.1768 12.3738 12.811 12.5623C12.4453 12.7445 11.9282 13.0462 11.6633 13.2284C11.3984 13.4107 11.0011 13.7186 10.7804 13.9071C10.5597 14.0956 10.1876 14.4664 9.94799 14.724C9.70835 14.9817 9.35519 15.4404 9.1597 15.7358C8.9642 16.0374 8.77501 16.3328 8.73717 16.3956C8.69303 16.4648 8.64258 16.5025 8.62366 16.4836C8.59844 16.4648 8.55429 16.3139 8.51645 16.138C8.48492 15.9683 8.41555 15.4719 8.3651 15.0383C8.31465 14.6046 8.27051 13.7626 8.27051 13.1719C8.27051 12.5749 8.30204 11.8648 8.33988 11.6008C8.37772 11.3306 8.4597 10.8844 8.52907 10.6079C8.59844 10.3314 8.75609 9.89781 8.87591 9.65273C9.00204 9.37623 9.23537 9.04317 9.44979 8.81066C9.65159 8.59699 9.89753 8.37705 10.0047 8.32049Z" fill="white"/>
<path d="M27.2206 8.42111C27.4287 8.31428 27.7566 8.17603 27.9458 8.11319C28.198 8.0315 28.444 8.00636 28.8602 8.01893C29.3458 8.0315 29.4845 8.06292 29.7998 8.22002C30.0269 8.33314 30.317 8.55937 30.5377 8.80445C30.7647 9.04325 30.9917 9.37002 31.1242 9.65281C31.244 9.89789 31.4016 10.3315 31.471 10.608C31.5404 10.8845 31.6224 11.3307 31.6602 11.6009C31.698 11.8648 31.7296 12.5749 31.7296 13.1719C31.7296 13.7626 31.6854 14.6047 31.635 15.0383C31.5845 15.4719 31.5152 15.9684 31.4836 16.1381C31.4458 16.314 31.4016 16.4648 31.3764 16.4837C31.3575 16.5025 31.307 16.4648 31.2629 16.3957C31.2251 16.3329 31.0233 16.0249 30.8215 15.7044C30.5755 15.3274 30.1908 14.8749 29.6863 14.3722C29.1755 13.8695 28.7152 13.4736 28.2926 13.1971C27.9458 12.9708 27.3088 12.6126 26.8737 12.4116C26.4386 12.2042 25.7323 11.9214 25.2971 11.7831C24.862 11.6449 24.4143 11.5129 24.307 11.4941C24.1935 11.4752 24.0863 11.4249 24.0674 11.3935C24.0485 11.3621 24.2124 11.1107 24.4269 10.8468C24.6476 10.5829 25.0386 10.1493 25.2971 9.88532C25.562 9.62767 26.0161 9.23177 26.3061 9.01183C26.6025 8.79188 27.0124 8.52795 27.2206 8.42111Z" fill="white"/>
<path fill-rule="evenodd" clip-rule="evenodd" d="M20.3153 11.4248C21.1351 11.4374 21.9297 11.4877 22.3333 11.5505C22.6991 11.6071 23.3234 11.7202 23.7207 11.8082C24.118 11.8961 24.818 12.091 25.2658 12.2355C25.7135 12.3863 26.3946 12.6565 26.7793 12.8451C27.164 13.0273 27.7126 13.3415 28.009 13.5363C28.3054 13.7374 28.7279 14.0516 28.955 14.2464C29.182 14.4349 29.5414 14.7994 29.7622 15.0508C29.9829 15.3022 30.2856 15.6918 30.4306 15.918C30.582 16.1442 30.8342 16.5841 30.9856 16.892C31.1432 17.2 31.364 17.7278 31.4712 18.0546C31.5784 18.3814 31.7234 18.9093 31.7865 19.2172C31.8559 19.5251 31.9441 20.0781 31.9883 20.4426C32.0324 20.8385 32.0514 21.6617 32.0135 23.8989H32.8775C33.6658 23.8989 33.7604 23.9114 33.8739 24.0246C33.9432 24.0937 34 24.2131 34 24.2885C34 24.3702 33.9622 24.4896 33.9117 24.5587C33.8297 24.6718 33.7288 24.6844 31.8306 24.7472L31.7676 25.074C31.7108 25.3568 31.7108 25.4071 31.7928 25.4322C31.8432 25.4448 32.1018 25.5076 32.3604 25.5642C32.6189 25.627 32.8838 25.7213 32.9468 25.7778C33.0099 25.8344 33.0604 25.9664 33.0541 26.0795C33.0541 26.224 33.0099 26.3183 32.909 26.3874C32.7829 26.4754 32.7198 26.4754 31.4459 26.1863L31.1495 26.7833C30.9856 27.1164 30.6577 27.6254 30.4243 27.9207C30.1847 28.2161 29.7622 28.6371 29.4847 28.8634C29.2009 29.0896 28.6649 29.4289 28.2865 29.63C27.9081 29.8248 27.3027 30.0825 26.9369 30.2019C26.5712 30.3213 26.0036 30.4784 25.6757 30.5475C25.3477 30.6229 24.7486 30.7235 24.3514 30.7737C23.9541 30.8303 23.2288 30.8994 22.7432 30.9371C22.2577 30.9686 21.0279 31 20.0126 31C19.0036 31 17.755 30.9686 17.2378 30.9308C16.727 30.8994 15.9261 30.8114 15.4595 30.7486C14.9928 30.6795 14.2802 30.5412 13.8829 30.4407C13.4856 30.3401 12.9306 30.1705 12.6532 30.0574C12.3757 29.9505 11.8964 29.7243 11.5874 29.5672C11.2784 29.4038 10.7991 29.0896 10.5153 28.8634C10.2378 28.6371 9.81532 28.2161 9.57568 27.9207C9.34234 27.6254 9.01441 27.1164 8.55405 26.1863L7.95495 26.3308C7.62703 26.4125 7.31802 26.4754 7.27387 26.4754C7.23604 26.4754 7.14144 26.4188 7.07207 26.3497C7.0027 26.2806 6.94595 26.1486 6.94595 26.0481C6.93964 25.9538 6.99009 25.8344 7.05315 25.7778C7.11622 25.7213 7.32432 25.6396 7.51351 25.5956C7.7027 25.5579 7.96126 25.4951 8.3018 25.4071L8.16937 24.7472L7.17297 24.7158C6.27117 24.6844 6.17027 24.6718 6.08829 24.5587C6.03784 24.4896 6 24.3702 6 24.2885C6 24.2131 6.05676 24.0937 6.12613 24.0246C6.23964 23.9114 6.33423 23.8989 7.98649 23.8989L7.96126 22.4975C7.94865 21.6743 7.96757 20.8322 8.01171 20.4426C8.05586 20.0781 8.16306 19.456 8.25135 19.0601C8.33964 18.6642 8.4973 18.1112 8.5982 17.8347C8.6991 17.5582 8.93243 17.0492 9.10901 16.7035C9.28559 16.3579 9.6009 15.8489 9.80901 15.5724C10.0171 15.2959 10.4018 14.856 10.6667 14.5983C10.9315 14.3407 11.4171 13.9385 11.745 13.706C12.073 13.4735 12.6468 13.1278 13.0315 12.9393C13.4162 12.7445 14.009 12.4931 14.3559 12.3675C14.7027 12.2418 15.2955 12.0595 15.6802 11.959C16.0649 11.8584 16.7018 11.7139 17.0991 11.6448C17.4964 11.5757 18.0829 11.494 18.3919 11.4625C18.7009 11.4311 19.5712 11.4123 20.3153 11.4248ZM14.9928 16.4836C14.8541 16.5716 14.6775 16.7224 14.6018 16.8292C14.5198 16.936 14.4 17.1434 14.3306 17.3005C14.2486 17.4828 14.1982 17.7216 14.1982 17.9604C14.1982 18.1677 14.2423 18.4819 14.3054 18.6516C14.3748 18.859 14.5198 19.0726 14.7279 19.2863C14.9423 19.4937 15.1568 19.6382 15.3649 19.7073C15.5351 19.7702 15.8505 19.8142 16.0586 19.8142C16.3486 19.8142 16.5252 19.7765 16.8153 19.6319C17.0234 19.5314 17.2757 19.3554 17.3766 19.236C17.4775 19.1229 17.6162 18.9155 17.6919 18.7773C17.7928 18.5762 17.8243 18.4128 17.8243 17.9918C17.8243 17.5582 17.7928 17.4073 17.6793 17.1874C17.6036 17.0429 17.4396 16.8229 17.3198 16.7035C17.2 16.5841 16.9793 16.4207 16.8279 16.3453C16.6577 16.2573 16.4117 16.2071 16.1216 16.1882C15.8568 16.1757 15.5919 16.2008 15.4595 16.2511C15.3396 16.2951 15.1252 16.4019 14.9928 16.4836ZM22.8757 16.5276C22.7432 16.6281 22.5541 16.8292 22.4532 16.9863C22.3459 17.1434 22.2324 17.3822 22.1946 17.5205C22.1631 17.6587 22.1441 17.9415 22.1568 18.1489C22.1757 18.3563 22.245 18.639 22.3144 18.7773C22.3838 18.9155 22.5225 19.1229 22.6234 19.236C22.7243 19.3554 22.9766 19.5314 23.1847 19.6319C23.4748 19.7765 23.6514 19.8142 23.9414 19.8142C24.1495 19.8142 24.4586 19.7702 24.6351 19.7073C24.8432 19.6382 25.0577 19.4937 25.2721 19.2863C25.4802 19.0726 25.6252 18.859 25.6946 18.6516C25.7577 18.4819 25.8018 18.1677 25.8018 17.9604C25.8018 17.6713 25.764 17.4953 25.6189 17.2063C25.518 16.9989 25.3414 16.7475 25.2216 16.647C25.1081 16.5464 24.9 16.4082 24.7613 16.339C24.6036 16.2573 24.3514 16.2071 24.0676 16.1882C23.7775 16.1757 23.5378 16.2008 23.3739 16.2636C23.2351 16.3139 23.0144 16.4333 22.8757 16.5276ZM17.5721 22.5981C17.3261 22.6798 16.9162 22.8557 16.6577 22.9877C16.3991 23.1196 16.0144 23.3396 15.8063 23.4841C15.5982 23.6224 15.245 23.8989 15.018 24.0937C14.791 24.2822 14.4315 24.6655 14.2171 24.942C13.9964 25.2123 13.7189 25.6082 13.5928 25.8155C13.4667 26.0229 13.2964 26.3434 13.2144 26.5257C13.1324 26.7016 13.0631 26.9027 13.0631 26.9655C13.0568 27.0221 13.1072 27.1227 13.1703 27.1792C13.2333 27.242 13.3405 27.2923 13.4099 27.2923C13.4793 27.2986 13.5676 27.2609 13.6117 27.2169C13.6495 27.1729 13.7946 26.909 13.9333 26.6325C14.0721 26.356 14.3559 25.9035 14.5577 25.627C14.7658 25.3505 15.1441 24.9295 15.4027 24.697C15.6613 24.4582 16.027 24.1628 16.2162 24.0371C16.4054 23.9114 16.7459 23.7166 16.973 23.6035C17.2 23.4904 17.6414 23.3145 17.9504 23.2139C18.2595 23.1134 18.7577 22.994 19.0541 22.95C19.382 22.906 19.8802 22.8871 20.3468 22.9123C20.8387 22.9311 21.318 23.0002 21.7027 23.1008C22.0306 23.1825 22.5414 23.3647 22.8378 23.503C23.1342 23.6349 23.5883 23.8926 23.8468 24.0686C24.1054 24.2508 24.5279 24.6027 24.7865 24.8541C25.0387 25.1054 25.373 25.4825 25.518 25.6899C25.6694 25.8972 25.909 26.2931 26.0541 26.5696C26.1991 26.8461 26.3505 27.1101 26.3883 27.1541C26.4324 27.1981 26.5207 27.2358 26.5901 27.2358C26.6595 27.2358 26.7667 27.1855 26.8234 27.1227C26.8865 27.0598 26.9369 26.953 26.9369 26.8839C26.9369 26.8147 26.7982 26.5005 26.6342 26.1926C26.4703 25.8847 26.1739 25.4134 25.9784 25.1557C25.7892 24.8981 25.4234 24.4959 25.1775 24.2634C24.9315 24.0246 24.5216 23.6915 24.2694 23.5218C24.0234 23.3459 23.5883 23.0945 23.3108 22.9563C23.0333 22.8243 22.5793 22.6358 22.3018 22.5478C22.0243 22.4598 21.5577 22.3467 21.2613 22.2964C20.9649 22.2399 20.3784 22.2022 19.9369 22.2084C19.4387 22.2084 18.9405 22.2587 18.5811 22.3278C18.2721 22.3907 17.8117 22.5164 17.5721 22.5981Z" fill="white"/>
</svg>
