<svg width="202" height="214" viewBox="0 0 202 214" fill="none" xmlns="http://www.w3.org/2000/svg">
<path d="M24.0842 64.3702C24.5015 63.576 25.4614 62.4894 26.2544 61.9878C27.2143 61.3609 28.3411 61.0265 29.5097 61.0265C30.5114 61.0265 31.8469 61.3191 32.5564 61.6534C33.2659 61.9878 34.184 62.9073 34.6431 63.6178C35.1439 64.5374 35.4361 65.7494 35.4778 67.1705C35.4778 69.0095 35.2692 69.6365 34.3092 70.6814C33.6832 71.4337 32.6816 72.2696 32.0138 72.5622C31.3878 72.8966 30.3444 73.1473 29.6349 73.1473C28.9254 73.1473 27.7569 72.8966 27.0056 72.604C26.2961 72.3114 25.211 71.3919 24.6685 70.5978C24.0842 69.8037 23.5834 68.4244 23.4999 67.5049C23.3747 66.46 23.6251 65.2897 24.0842 64.3702Z" fill="#68D5DB"/>
<path d="M76.4613 15.3852C76.7117 14.8419 77.2125 14.2149 77.5881 13.9224C77.9637 13.6298 78.8819 13.379 79.5914 13.379C80.5096 13.379 81.3164 13.7273 82.012 14.4239C82.7215 15.1345 83.0554 15.9286 83.0554 16.9317C83.0554 17.9348 82.7215 18.7289 82.012 19.4395C81.386 20.1082 80.5513 20.4844 79.7166 20.4844C78.8819 20.4844 78.0472 20.0664 77.2125 19.2305C76.503 18.5617 75.9604 17.6004 75.9604 17.1407C75.9604 16.6809 76.1691 15.8868 76.4613 15.3852Z" fill="#68D5DB"/>
<path d="M109.515 7.94553C111.101 3.68234 111.727 2.47025 112.979 1.38355V1.34176C114.231 0.255061 114.857 0.00428495 116.401 0.00428495C117.987 -0.0375111 118.572 0.213265 119.824 1.34176C121.034 2.47025 121.368 3.18078 121.785 5.43777C122.036 6.94243 122.453 9.82635 122.703 11.9162C122.912 13.9642 123.121 17.8512 123.121 20.4843C123.121 23.619 123.329 25.9178 123.747 27.0463C124.081 28.0494 124.498 29.9302 124.623 31.2259C124.79 32.6052 124.665 34.8622 124.415 36.3668C123.997 38.6238 123.997 39.5433 124.54 41.8003C124.915 43.305 125.207 45.562 125.207 49.1146L126.96 49.6998C127.962 49.9923 129.005 50.3267 129.298 50.4103C129.548 50.4939 130.675 49.7416 131.802 48.7385C132.887 47.7354 135.182 45.8545 136.893 44.5589C138.604 43.2214 141.609 41.3406 143.529 40.4211C146.743 38.8328 147.327 38.6656 150.29 38.6656C153.212 38.6656 153.712 38.791 155.34 39.9195C156.634 40.7972 157.51 41.9675 158.512 43.8901C159.221 45.3948 160.056 47.7354 160.348 49.1146C160.64 50.4939 160.849 54.7153 160.849 58.5187C160.849 62.3222 160.599 67.3795 159.806 74.1923L162.477 79.4168C163.979 82.3007 165.69 86.1459 166.316 87.9849C166.942 89.824 167.861 93.0423 168.32 95.0903C169.154 98.5593 169.238 100.064 169.238 114.107C169.238 126.813 169.363 130.032 169.989 133.334C170.406 135.507 171.658 140.606 172.785 144.619C173.912 148.631 175.248 154.106 175.749 156.739C176.375 160.25 176.667 163.887 176.834 170.114C176.917 174.837 176.834 180.187 176.291 185.37L178.42 187.46C179.63 188.588 181.132 190.594 181.758 191.848C182.635 193.604 182.969 194.899 183.136 197.282C183.261 199.706 183.094 200.918 182.468 202.715C181.925 204.136 180.757 205.975 179.379 207.48C178.169 208.817 176.333 210.406 175.289 210.991C174.246 211.618 171.992 212.537 167.151 214H41.9462L37.7727 212.955C35.4356 212.328 31.7629 210.991 29.4258 209.82C27.0886 208.692 23.7915 206.602 21.9135 205.097C20.0771 203.593 17.5313 201.127 16.2792 199.539C15.0272 197.95 13.1909 195.275 12.1892 193.52C11.2293 191.806 9.85206 188.63 9.1843 186.498C8.47481 184.408 7.72358 180.898 7.47317 178.808C7.22276 176.676 7.09756 171.744 7.18103 167.815C7.30623 161.253 7.3897 160.543 8.39134 158.411C8.97563 157.157 10.1859 155.277 11.1041 154.315C12.0223 153.27 13.9004 151.933 15.4445 151.181C17.7817 150.01 18.5747 149.843 21.4961 149.843C24.4176 149.843 25.2105 150.01 27.5477 151.181C29.0919 151.933 30.9699 153.27 31.8881 154.315C32.8063 155.277 34.0166 157.157 34.6009 158.411C35.6025 160.543 35.686 161.295 35.8947 169.069C36.0616 174.085 36.3538 177.888 36.6459 178.557C36.938 179.226 37.5223 180.229 37.9814 180.856C38.4405 181.524 39.3169 182.402 41.1115 183.781L40.9446 175.171C40.8611 168.86 40.9863 165.182 41.4872 161.337C41.8628 158.453 42.5723 154.524 43.0314 152.56C43.4487 150.595 44.659 146.207 45.7024 142.738C46.7458 139.31 47.9561 134.211 48.4569 131.453C49.2499 127.022 49.3751 125.058 49.3333 114.316C49.2916 105.665 49.4168 101.067 49.8759 98.225C50.168 96.0516 50.961 92.5407 51.5453 90.4927C52.1296 88.4447 53.4651 84.8502 56.3865 78.3719L55.677 73.5653C55.3014 70.9322 54.9258 65.1643 54.8006 60.8175C54.6337 54.6735 54.7171 52.1239 55.218 49.5326C55.5518 47.6936 56.1779 45.4784 56.5117 44.6425C56.8874 43.7647 57.7638 42.3855 58.515 41.5495C59.2663 40.7554 60.6018 39.7105 61.5617 39.209C62.8972 38.4984 63.7736 38.373 65.9438 38.5402C67.5715 38.6656 69.5748 39.1672 70.952 39.7523C72.2041 40.3375 74.6665 41.7585 76.3776 42.9288C78.0887 44.0991 81.0936 46.4397 86.6026 51.3298L90.7761 50.0759C93.0716 49.3654 95.1583 48.7803 95.367 48.7385C95.6174 48.6549 96.3686 47.61 97.0781 46.3561C98.1215 44.5171 98.4136 43.4722 98.6223 40.7554C98.7475 38.9164 99.2066 36.1997 99.7074 34.695C100.167 33.1903 101.293 30.9334 102.212 29.6795C103.213 28.342 104.006 26.6702 104.173 25.7088C104.34 24.7893 105.175 21.6128 106.009 18.6035C106.886 15.5942 108.472 10.8295 109.515 7.94553Z" fill="#161740"/>
<path d="M18.6168 187.669C18.0326 186.415 17.5317 185.119 17.5317 184.868V184.826C17.5317 184.45 19.1177 184.325 24.0007 184.325C27.5481 184.325 30.4696 184.45 30.4696 184.617C30.4278 184.826 31.2625 185.871 32.2224 187C33.2241 188.128 35.0604 189.758 36.3125 190.552C37.5645 191.388 39.6513 192.391 43.1987 193.52L43.783 195.902C44.0752 197.24 44.9099 199.915 45.5776 201.879C46.2454 203.844 46.6627 205.515 46.5375 205.641C46.4123 205.766 44.7429 205.599 42.8649 205.348C40.9868 205.056 38.3992 204.471 37.1472 204.053C35.8951 203.593 34.017 202.84 32.9737 202.297C31.9303 201.796 30.2609 200.751 29.2175 200.082C28.1742 199.371 26.4213 197.909 25.2944 196.864C24.1676 195.819 22.4565 193.854 21.4966 192.475C20.4949 191.096 19.2011 188.922 18.6168 187.669Z" fill="#C1A2FB"/>
<path d="M49.8759 183.155C49.5421 180.605 49.3751 178.223 49.5421 177.972V177.93C49.709 177.596 50.0846 177.846 50.6272 178.682C51.0862 179.351 52.547 180.939 53.799 182.193C55.0928 183.405 57.1796 185.035 58.4316 185.788C59.6836 186.582 62.2295 187.71 67.4046 189.549L82.2205 189.8C90.4006 189.967 98.3302 190.302 99.9579 190.552C101.586 190.845 103.631 191.43 104.549 191.848C105.467 192.266 106.844 193.311 107.595 194.105C108.305 194.941 109.056 196.111 109.181 196.738C109.348 197.407 109.348 198.535 109.181 199.246C109.056 200.04 108.263 201.336 107.387 202.214C106.51 203.091 104.883 204.178 103.714 204.596C101.752 205.348 100.041 205.39 56.1362 205.724L55.5519 204.512C55.2597 203.885 54.425 201.754 53.7573 199.789C53.0895 197.825 52.0462 194.356 51.5036 192.057C50.961 189.758 50.2098 185.746 49.8759 183.155Z" fill="#8045ED"/>
<path d="M15.737 176.718C15.57 175.255 15.4448 173.667 15.4448 173.165V173.123C15.4448 172.204 15.4866 172.204 27.548 172.204V174.795C27.548 176.258 27.6314 177.846 27.9653 179.309H16.0708L15.737 176.718Z" fill="#C1A2FB"/>
<path d="M17.0307 160.292C17.7402 159.456 18.8254 158.662 19.6601 158.453C20.453 158.244 21.6216 158.161 22.3311 158.286C23.0406 158.369 24.0422 158.787 24.5848 159.164C25.1273 159.54 25.9203 160.334 26.3794 160.919C26.9637 161.671 27.2141 162.716 27.3393 166.979H21.4964C15.9874 166.979 15.6535 166.938 15.5283 166.144C15.4448 165.684 15.4866 164.514 15.6118 163.51C15.7787 162.507 16.363 161.128 17.0307 160.292Z" fill="#C1A2FB"/>
<path d="M103.297 62.6147L109.974 59.9398C113.647 58.4769 116.777 57.3066 116.944 57.2648C117.153 57.2648 117.278 58.4769 117.278 59.9816C117.278 61.8206 117.069 62.9073 116.652 63.3253C116.318 63.6596 115.317 64.0776 114.482 64.203C113.605 64.3702 111.477 64.3702 109.766 64.2866C108.055 64.1612 105.884 63.7432 103.297 62.6147Z" fill="#E4717C"/>
<path d="M102.17 56.7215C102.128 56.1782 102.254 55.6348 102.421 55.4676C102.588 55.3423 103.172 55.4258 103.714 55.6766C104.257 55.9274 104.758 56.2618 104.758 56.3872C104.758 56.5125 104.215 56.8887 103.506 57.1813C102.337 57.641 102.254 57.641 102.17 56.7215Z" fill="#E4717C"/>
<path d="M143.279 50.2849C143.53 49.9924 144.99 49.1146 146.493 48.3205C147.995 47.4846 149.539 46.8159 149.957 46.8159C150.332 46.8159 150.917 47.3174 151.25 47.9861C151.584 48.6131 152.085 50.8283 152.336 52.8763C152.628 55.1751 152.711 58.5187 152.544 61.4445C152.377 64.0776 152.002 68.299 151.668 70.8486C151.376 73.3981 151.084 75.6133 151.084 75.8641C151.084 76.1149 151.751 77.4106 152.586 78.7898C153.421 80.1691 154.798 82.7187 155.674 84.4323C156.551 86.1459 157.845 89.2806 158.554 91.3286C159.222 93.3766 160.098 96.9711 160.474 99.2699C161.058 102.739 161.1 105.33 160.85 114.525C160.683 122.258 160.724 126.855 161.1 129.781C161.35 132.08 161.935 135.758 162.394 137.931C162.853 140.105 163.854 144.075 164.647 146.708C165.399 149.342 166.359 152.811 166.734 154.441C167.068 156.071 167.652 159.498 167.986 162.089C168.32 164.639 168.612 169.445 168.612 172.747C168.612 176.007 168.487 179.518 168.111 182.444L166.15 182.277C164.94 182.193 163.729 182.36 162.895 182.82C162.143 183.196 161.35 183.865 161.1 184.325C160.85 184.785 160.683 185.829 160.683 186.624C160.683 187.71 161.016 188.421 161.935 189.34C162.895 190.302 163.562 190.594 164.731 190.594C165.607 190.594 167.36 190.887 168.612 191.263C170.115 191.723 171.534 192.559 172.744 193.687C174.288 195.15 174.58 195.693 174.747 197.491C174.914 199.204 174.789 199.831 173.954 201.043C173.453 201.837 172.327 202.924 171.534 203.426C170.741 203.969 169.405 204.638 168.612 204.888C167.611 205.223 159.347 205.432 141.401 205.515C127.211 205.599 115.609 205.557 115.609 205.432C115.609 205.306 116.026 204.429 116.527 203.467C117.278 202.005 117.487 201.001 117.487 198.118C117.487 195.192 117.278 194.189 116.444 192.475C115.901 191.347 115.4 190.26 115.317 190.093C115.233 189.884 122.078 189.758 130.55 189.758C143.196 189.758 146.159 189.675 147.661 189.131C148.621 188.797 149.998 188.086 150.708 187.585C151.417 187.042 152.669 185.579 153.546 184.325C154.381 183.071 155.549 180.605 156.092 178.891C157.093 175.84 157.135 175.422 157.135 163.845C157.135 153.438 157.01 151.264 156.217 146.708C155.674 143.824 154.339 138.015 153.17 133.752C152.043 129.488 150.791 123.971 150.416 121.422C149.873 117.744 149.748 114.902 149.957 107.002C150.124 101.276 150.04 95.8008 149.79 93.8364C149.539 91.9974 148.997 89.0717 148.579 87.358C148.162 85.6444 147.119 82.6351 146.284 80.6706C145.491 78.7062 144.03 75.8223 141.401 71.2665L141.902 67.7139C142.194 65.7495 142.486 61.1519 142.57 57.4738C142.695 52.8763 142.903 50.6193 143.279 50.2849Z" fill="#8045ED"/>
<path d="M63.3564 51.4134C63.6068 50.1595 63.9824 48.6131 64.2328 47.9861C64.4833 47.3174 64.9841 46.8159 65.4014 46.8159C65.8188 46.8159 67.0708 47.2756 68.2394 47.819C69.3662 48.3205 71.6617 49.7834 73.3311 51.0373C74.9587 52.2911 78.0889 54.9243 80.3008 56.9723C83.3057 59.689 84.5995 60.6085 85.4342 60.6085C86.102 60.6085 87.7296 60.1906 89.1069 59.6054C90.4841 59.0621 92.0283 58.5187 92.5291 58.3516C93.4056 58.1008 93.4891 58.2262 93.4891 59.9816C93.4891 61.0265 93.6977 62.6566 93.9064 63.6597C94.1568 64.621 95.0332 66.2092 95.9097 67.2541C96.8279 68.3408 98.539 69.5947 100.167 70.3888C101.669 71.1412 104.257 72.0189 106.01 72.3114C107.804 72.604 110.851 72.7712 113.104 72.6458C116.193 72.5204 117.57 72.2278 119.365 71.3919C120.617 70.8068 122.286 69.7201 123.037 68.926C123.83 68.09 124.665 66.6272 124.999 65.4151C125.333 64.2866 125.667 62.2386 125.708 60.9011C125.792 59.6054 126.001 58.5187 126.251 58.5187C126.501 58.5187 127.503 58.8113 128.546 59.1875C129.59 59.5636 130.884 59.7726 131.468 59.6472C132.052 59.5219 134.014 58.059 135.85 56.4289C137.686 54.7571 139.898 52.8763 142.319 50.9955L142.611 52.124C142.736 52.7927 142.736 55.8438 142.611 58.9367C142.444 62.0296 142.11 66.0838 141.401 71.2665L143.112 74.1923C144.03 75.7805 145.491 78.7062 146.284 80.6706C147.118 82.6351 148.162 85.6444 148.579 87.358C148.997 89.0717 149.539 91.9974 149.79 93.8364C150.04 95.8008 150.123 101.276 149.956 107.002C149.748 114.902 149.873 117.744 150.416 121.422C150.791 123.971 152.043 129.488 153.17 133.752C154.339 138.015 155.674 143.824 156.217 146.708C157.01 151.264 157.135 153.438 157.135 163.845C157.135 175.422 157.093 175.84 156.091 178.891C155.549 180.605 154.38 183.071 153.546 184.325C152.669 185.579 151.417 187.042 150.708 187.585C149.998 188.086 148.621 188.797 147.661 189.131C146.159 189.675 143.195 189.758 114.983 189.758L113.104 187.836C112.019 186.707 110.016 185.286 108.305 184.45C106.677 183.698 104.173 182.862 102.671 182.611C101.168 182.319 99.2485 182.235 98.372 182.402C97.3704 182.569 96.5357 183.029 95.9931 183.823C95.4923 184.45 95.1167 185.579 95.1585 186.415C95.1585 187.209 95.4506 188.295 96.4105 189.758H82.9301C71.1191 189.758 69.1158 189.675 66.3613 188.964C64.6502 188.546 62.1878 187.71 60.9358 187.125C59.6837 186.54 57.4301 185.161 55.9693 184.032C54.4669 182.946 52.5053 181.107 51.6289 179.936C50.7107 178.808 49.7926 177.888 49.6256 177.972C49.4169 178.014 49.25 175.506 49.25 172.413C49.25 169.32 49.5421 164.555 49.876 161.88C50.2516 159.164 50.9611 155.235 51.5037 153.187C52.0462 151.139 53.2566 146.792 54.1747 143.574C55.1346 140.355 56.178 136.009 56.5536 133.961C56.8875 131.913 57.3883 128.026 57.597 125.392C57.8474 122.676 57.9309 116.824 57.7639 112.018C57.5553 105.163 57.6387 102.655 58.1813 99.3953C58.5569 97.1383 59.3499 93.7528 59.9341 91.872C60.5184 89.9494 61.9374 86.4803 65.1093 79.8347L64.2328 74.1087C63.7738 70.9322 63.2729 65.0389 63.1477 61.0265C63.0225 56.6379 63.106 52.7927 63.3564 51.4134Z" fill="#C1A2FB"/>
<path d="M57.6807 153.521C58.1815 152.769 59.0997 152.016 59.8092 151.807C60.5187 151.64 61.5621 151.557 62.1046 151.682C62.6889 151.807 63.6071 152.434 64.1496 153.103C64.7339 153.772 65.1095 154.775 65.1095 155.611C65.1095 156.321 64.7757 158.537 64.4418 160.501C64.0244 162.758 63.7323 166.687 63.6488 178.557L62.4802 179.56C61.6873 180.271 60.8526 180.563 59.684 180.563C58.4319 180.563 57.7224 180.271 56.8043 179.435C55.7192 178.39 55.594 177.888 55.3018 174.503C55.1349 172.455 55.0931 169.153 55.2601 167.188C55.3853 165.224 55.8026 161.671 56.1783 159.247C56.5956 156.363 57.0964 154.399 57.6807 153.521Z" fill="white"/>
<path d="M95.284 150.052C95.117 149.342 95.3257 148.715 95.9517 148.088V148.046C96.4108 147.544 97.1203 147.126 97.4542 147.126C97.7881 147.126 98.4558 147.294 98.9149 147.544C99.374 147.795 100.125 149.007 100.626 150.345C101.21 151.933 101.502 153.855 101.544 155.904C101.586 157.993 101.336 159.832 100.793 161.337C100.334 162.674 99.3323 164.388 98.3306 165.475C97.3707 166.478 95.8683 167.69 94.9501 168.15C93.698 168.818 92.5295 169.069 90.1506 169.069C87.6047 169.069 86.6031 168.86 84.5998 167.899C83.306 167.272 81.3028 165.893 80.2177 164.764C79.0908 163.678 77.797 162.006 77.2962 161.003C76.7954 160.041 76.378 158.913 76.378 158.495C76.3363 158.119 76.6702 157.45 77.0875 157.032C77.5466 156.572 78.2978 156.321 79.0491 156.405C80.0507 156.489 80.635 157.032 81.9705 159.038C83.0974 160.626 84.4329 161.964 85.7684 162.758C87.0205 163.552 88.6064 164.096 89.7332 164.179C91.194 164.305 91.9452 164.096 93.072 163.343C93.865 162.8 94.9501 161.713 95.4509 160.919C95.9935 160.125 96.4943 158.62 96.6195 157.575C96.7864 156.447 96.5778 154.817 96.2021 153.396C95.8265 152.142 95.4092 150.637 95.284 150.052Z" fill="#161740"/>
<path d="M148.12 145.204C148.079 144.66 148.454 144.033 149.039 143.615C149.581 143.281 150.291 142.989 150.541 142.989C150.833 142.989 151.543 143.406 152.085 143.908C152.628 144.451 153.379 145.789 153.755 146.959C154.13 148.129 154.422 150.428 154.422 152.184C154.422 153.897 154.172 156.154 153.796 157.199C153.463 158.244 152.377 160 151.417 161.128C150.416 162.257 148.872 163.552 147.953 164.054C146.66 164.722 145.533 164.931 142.945 164.931C140.358 164.89 139.189 164.681 137.728 164.012C136.685 163.51 135.016 162.34 133.972 161.462C132.929 160.585 131.468 158.913 130.759 157.784C130.007 156.656 129.381 155.277 129.381 154.691C129.381 154.106 129.715 153.312 130.133 152.894C130.508 152.476 131.218 152.142 131.677 152.184C132.136 152.184 132.804 152.393 133.179 152.685C133.555 152.978 134.306 153.981 134.849 154.859C135.391 155.778 136.518 157.074 137.353 157.784C138.188 158.495 139.607 159.331 140.483 159.582C141.359 159.874 142.695 160.125 143.363 160.125C144.03 160.125 145.241 159.707 146.034 159.205C146.827 158.662 147.87 157.701 148.329 157.074C148.955 156.238 149.247 155.068 149.372 153.103C149.484 151.236 149.303 149.606 148.83 148.213C148.454 147.043 148.12 145.705 148.12 145.204Z" fill="#161740"/>
<path d="M62.4799 138.6C63.3563 136.803 64.5249 134.964 65.0675 134.546C65.61 134.086 66.6951 133.752 67.4881 133.752C68.4063 133.752 69.2827 134.128 70.2009 134.964C71.3277 135.967 71.5781 136.468 71.5364 137.806C71.4946 138.725 70.8269 140.69 69.9505 142.445C69.1158 144.075 68.0306 145.747 67.4881 146.081C66.9873 146.416 65.9439 146.708 65.1927 146.708C64.3997 146.708 63.3563 146.29 62.6051 145.663C61.8539 145.037 61.2696 144.075 61.1026 143.281C60.9357 142.236 61.2696 141.108 62.4799 138.6Z" fill="white"/>
<path d="M130.341 94.4633C130.633 93.6274 131.468 92.6243 132.302 92.0392C133.471 91.245 134.139 91.0779 135.641 91.245C137.102 91.4122 137.811 91.7884 138.855 92.9587C139.898 94.0872 140.232 94.8395 140.232 96.0516C140.232 96.8875 139.856 98.225 139.397 98.9773C138.938 99.7296 137.853 100.607 137.018 100.984C135.961 101.401 135.015 101.513 134.18 101.318C133.513 101.151 132.428 100.566 131.802 100.022C131.134 99.4789 130.466 98.3504 130.257 97.5144C129.965 96.4277 130.007 95.4664 130.341 94.4633Z" fill="#161740"/>
<path d="M78.6729 93.2512C79.2572 92.4989 80.1336 91.7048 80.6762 91.5376C81.177 91.3286 82.0952 91.1614 82.763 91.1614C83.389 91.1196 84.3906 91.3704 85.0584 91.7048C85.6844 91.9974 86.5191 92.7497 86.9364 93.3766C87.3121 93.9618 87.6459 95.2575 87.6877 96.2606C87.6877 97.3891 87.4373 98.3922 86.8947 99.0609C86.4774 99.646 85.4757 100.482 84.6828 100.9C83.6811 101.443 82.8464 101.61 81.9283 101.401C81.177 101.276 79.9667 100.649 79.2572 100.022C78.2138 99.0609 77.9217 98.4758 77.7965 96.7621C77.6713 95.0067 77.7965 94.4215 78.6729 93.2512Z" fill="#161740"/>
<path d="M106.385 91.7884C106.594 90.6599 107.053 89.615 107.345 89.406C107.637 89.197 108.346 89.0298 108.931 89.0298C109.515 89.0298 110.225 89.197 110.517 89.3642C110.809 89.5314 111.226 90.6181 111.435 91.7466C111.685 92.9169 112.186 94.2961 112.603 94.8813C113.021 95.4664 114.022 96.2606 114.815 96.6367C115.608 97.0129 117.027 97.5144 118.029 97.7652C119.281 98.0996 119.865 98.4757 120.032 99.1863C120.157 99.6878 120.199 100.482 120.074 100.942C119.949 101.401 119.406 101.987 118.864 102.237C118.321 102.488 117.737 103.24 117.57 103.909C117.361 104.578 116.777 105.832 116.193 106.71C115.65 107.545 114.315 108.758 113.229 109.385C111.685 110.262 110.684 110.555 108.931 110.555C107.178 110.555 106.176 110.262 104.674 109.385C103.547 108.758 102.211 107.545 101.669 106.71C101.085 105.832 100.5 104.578 100.292 103.909C100.125 103.24 99.5404 102.488 98.9978 102.237C98.4553 101.987 97.9545 101.401 97.8293 100.942C97.7041 100.482 97.7041 99.6878 97.8293 99.1863C97.9962 98.4757 98.5805 98.0996 99.8743 97.7652C100.834 97.5144 102.253 97.0129 103.046 96.6367C103.839 96.2606 104.841 95.4664 105.258 94.8813C105.675 94.2961 106.176 92.9169 106.385 91.7884Z" fill="#161740"/>
<path d="M105.926 100.942C106.302 100.858 107.095 100.273 107.637 99.6878C108.18 99.1027 108.764 98.6429 108.889 98.6429C109.014 98.6847 109.766 99.2281 110.517 99.8968C111.226 100.607 112.061 101.151 112.27 101.151C112.52 101.151 112.687 101.569 112.687 102.112C112.687 102.614 112.353 103.449 111.936 103.909C111.56 104.411 110.809 105.038 110.308 105.289C109.64 105.581 108.889 105.623 108.013 105.372C107.262 105.121 106.302 104.494 105.926 103.909C105.509 103.282 105.175 102.446 105.175 101.987C105.175 101.527 105.509 101.067 105.926 100.942Z" fill="#D789B9"/>
<path d="M106.093 48.1533C106.636 47.6099 109.098 46.2725 111.602 45.144L116.151 43.1796L116.527 44.4752C116.777 45.1858 116.861 46.8994 116.736 48.2787C116.61 49.658 116.36 51.1208 116.151 51.5388C115.943 52.0403 113.814 53.0852 110.517 54.3809C105.425 56.3453 105.133 56.3871 103.923 55.802C103.255 55.4676 102.671 54.9243 102.671 54.6317C102.671 54.3809 103.213 53.0016 103.881 51.6224C104.591 50.2431 105.592 48.6548 106.093 48.1533Z" fill="#F6E06E"/>
<path d="M109.808 33.6919C110.601 32.7724 112.145 31.6021 113.313 31.1005C114.482 30.5572 115.567 30.1392 115.776 30.1392C115.984 30.0974 116.235 30.8079 116.36 31.6439C116.485 32.5216 116.318 34.277 115.4 37.8297L112.187 39.3761C110.392 40.2538 108.43 41.0898 106.719 41.5913L107.053 39.7105C107.22 38.6656 107.596 37.2445 107.846 36.5758C108.138 35.8653 109.015 34.5696 109.808 33.6919Z" fill="#F6E06E"/>
<path d="M113.271 25.4163C112.979 25.3327 113.021 24.6639 113.397 23.3265C113.73 22.198 114.148 21.3203 114.356 21.3203C114.607 21.3203 114.69 22.1144 114.565 23.1175C114.482 24.0788 114.231 25.0401 114.064 25.2073C113.856 25.4163 113.522 25.4999 113.271 25.4163Z" fill="#F6E06E"/>
<path d="M12.5233 7.3186C13.4832 4.56007 14.61 2.0523 14.9856 1.80153C15.3195 1.50895 15.7369 1.25818 15.8621 1.25818C15.9873 1.25818 16.3212 1.42536 16.6133 1.59255C16.9055 1.75973 18.0323 4.43468 21.1624 13.17L24.0421 14.5075C25.6281 15.2599 27.9652 16.3883 29.2173 17.0153C31.2205 18.0602 31.5127 18.3528 31.5127 19.4395C31.5127 20.6097 31.2623 20.8187 28.1739 22.2398C26.3375 23.1175 24.0004 24.246 22.9988 24.7476C21.1624 25.7089 21.1207 25.7925 19.2843 30.9334C18.2827 33.8173 17.2393 36.4086 16.9472 36.7012C16.6968 37.0356 16.029 37.2028 15.4865 37.1192C14.6518 36.9938 14.2344 36.2833 12.4815 31.3513C11.3547 28.2584 10.3113 25.5835 10.1444 25.4163C9.93571 25.2909 8.0159 24.3714 5.84569 23.4101C3.67547 22.4488 1.46352 21.4039 0.962698 21.0695C0.336673 20.6933 0.00279378 20.0664 0.00279378 19.3559C-0.0389412 18.2692 0.336673 18.0184 4.59364 16.0122C7.09774 14.8001 9.39316 13.797 9.60183 13.797C9.81051 13.797 10.1861 13.4626 10.3948 13.0865C10.6035 12.6685 11.5634 10.0771 12.5233 7.3186Z" fill="#DB97FF"/>
<path d="M187.601 19.8574C188.227 18.0184 188.937 16.1794 189.146 15.7614C189.396 15.3016 189.939 15.0509 190.439 15.1345C191.107 15.218 191.608 16.1376 192.777 19.4394C194.07 22.9503 194.488 23.7026 195.531 24.246C196.241 24.5804 197.952 25.3745 199.412 26.0432C201.583 27.0045 202 27.3389 202 28.2166C202 29.1361 201.499 29.5123 194.279 32.8978L192.818 36.9938C192.025 39.2508 191.191 41.257 190.94 41.4242C190.732 41.6331 190.231 41.7167 189.897 41.5914C189.563 41.5078 188.645 39.6687 187.894 37.5371C187.142 35.4055 186.391 33.4411 186.224 33.1903C186.057 32.9396 184.346 31.9783 182.385 31.1005C180.423 30.181 178.712 29.2197 178.545 28.9272C178.336 28.6346 178.378 28.0912 178.587 27.6733C178.795 27.2971 180.465 26.3358 182.259 25.5417C184.054 24.7475 185.723 23.9116 185.974 23.6608C186.224 23.4101 186.934 21.6964 187.601 19.8574Z" fill="#DB97FF"/>
</svg>
