<svg width="168" height="211" viewBox="0 0 168 211" fill="none" xmlns="http://www.w3.org/2000/svg">
<path d="M25.9542 4.98643C26.6155 3.58528 27.7727 2.18414 28.8472 1.35993C30.3351 0.247261 31.0376 0 32.7734 0C34.4266 0 35.3358 0.247261 36.7823 1.15388C37.8155 1.81325 39.6339 3.42044 40.8738 4.78038C42.0723 6.0991 44.1387 8.98381 45.3786 11.1267C46.6598 13.2697 48.2716 16.278 50.214 20.6051H77.2841L78.5653 17.8028C79.2679 16.278 80.797 13.3521 82.0369 11.3328C83.2354 9.27228 85.0539 6.59362 86.0458 5.35732C87.0376 4.12101 88.9387 2.39019 90.2199 1.52477C92.1624 0.288471 92.9476 0 94.6421 0C96.2125 0 97.1218 0.288471 98.4856 1.19509C99.4775 1.85446 100.676 3.21439 101.337 4.36827C101.957 5.48095 102.825 7.78871 103.28 9.47833C103.693 11.1679 104.272 15.0829 104.52 18.1325C104.768 21.182 104.974 24.9321 104.974 26.4569C104.974 29.0943 105.098 29.5064 107.082 32.8445C108.239 34.8638 110.471 38.9848 112 42.0343C113.529 45.0839 115.472 49.4522 116.339 51.7187C117.166 53.9853 118.199 57.1172 118.613 58.7244C119.274 61.2795 119.48 61.6091 120.307 61.5679C120.844 61.5679 122.167 61.4443 123.283 61.2795C124.936 61.0322 125.39 61.1146 126.3 61.8976C127.044 62.5158 127.415 63.2988 127.457 64.123C127.498 64.906 127.168 65.7714 126.672 66.3071C126.093 66.9252 124.936 67.3373 120.059 68.1203L118.819 75.4557L121.712 77.0217C123.655 78.0932 124.77 78.9998 125.142 79.7828C125.638 80.7719 125.597 81.184 125.101 82.2142C124.77 82.8736 124.192 83.5741 123.82 83.739C123.448 83.945 122.745 84.0687 122.249 84.0687C121.712 84.0687 120.39 83.4917 119.232 82.8324C118.117 82.173 117.001 81.5961 116.753 81.5961C116.546 81.5548 115.678 82.6263 114.852 83.945C114.025 85.2637 112.041 87.5303 110.471 89.0139C108.942 90.4974 106.503 92.3107 105.057 93.0113C103.61 93.7943 102.577 94.5772 102.66 94.8657C102.742 95.1542 104.106 100.017 105.718 105.704C107.33 111.35 109.603 119.633 110.76 124.042C111.959 128.452 113.818 135.87 114.893 140.527C116.009 145.183 117.455 151.736 118.158 155.156C118.819 158.535 119.522 162.368 119.687 163.604C119.852 164.841 120.059 166.118 120.224 166.406C120.39 166.736 121.382 166.036 123.2 164.346C124.688 162.904 126.92 160.555 128.159 159.112C129.978 156.969 130.639 156.475 131.672 156.434C132.458 156.392 133.325 156.722 133.863 157.217C134.483 157.752 134.731 158.535 134.731 159.483C134.689 160.596 134.193 161.544 132.334 163.769C131.052 165.335 128.697 167.808 127.085 169.291C125.473 170.734 123.531 172.423 122.704 173.041C121.216 174.113 121.175 174.154 120.762 178.234C120.514 180.5 120.018 183.179 119.646 184.209C119.315 185.24 119.108 186.105 119.232 186.146C119.356 186.229 120.886 185.404 122.663 184.333C124.399 183.261 126.796 181.737 127.911 180.954C129.069 180.171 131.259 178.44 132.871 177.162C134.483 175.885 136.962 173.659 138.45 172.217C139.938 170.775 142.211 168.385 143.492 166.901C144.732 165.417 147.046 162.368 148.617 160.101C150.146 157.835 152.461 153.755 153.783 151.035C155.106 148.315 156.841 144.153 157.627 141.763C158.412 139.373 159.528 135.128 160.106 132.285C160.685 129.441 161.387 124.825 161.635 121.982C161.925 118.85 162.007 113.369 161.883 107.971C161.759 103.108 161.429 97.1735 161.181 94.7833C160.726 90.7447 160.768 90.3738 161.511 89.426C162.007 88.7666 162.793 88.3545 163.702 88.2721C164.735 88.1897 165.355 88.3957 166.016 89.0963C166.719 89.8381 167.008 90.9508 167.463 94.5772C167.793 97.3795 168 103.891 168 111.679C167.959 122.724 167.876 124.867 167.091 129.4C166.595 132.243 165.686 136.406 165.107 138.672C164.487 140.939 163.371 144.565 162.545 146.708C161.718 148.851 160.354 152.107 159.445 153.92C158.536 155.733 157.089 158.412 156.221 159.895C155.354 161.379 153.287 164.428 151.593 166.695C149.898 168.962 147.046 172.382 145.228 174.278C143.451 176.173 140.186 179.223 138.037 181.036C135.888 182.808 131.962 185.693 129.358 187.424C126.754 189.154 122.167 191.792 119.232 193.275C116.298 194.759 111.545 196.82 108.694 197.891C105.842 198.921 101.585 200.24 99.1882 200.817C96.7911 201.394 93.7742 202.094 92.493 202.301C90.3439 202.713 90.0546 202.877 89.5587 204.073C89.2694 204.814 88.4428 206.257 87.7815 207.287C87.079 208.317 85.8804 209.553 85.0952 210.048C84.186 210.625 83.0288 210.996 81.8303 210.996C80.2598 211.037 79.6812 210.79 78.1107 209.43C77.0775 208.564 75.7963 206.998 74.3085 204.196H53.3137L52.1151 206.257C51.4952 207.369 50.1727 208.935 49.2635 209.636C47.8583 210.749 47.1557 210.996 45.5852 210.996C43.8494 211.037 43.3535 210.79 41.7417 209.43C40.6672 208.482 39.386 206.792 38.6834 205.391L38.6831 205.391C38.022 204.072 37.4435 202.919 37.4435 202.877C37.4022 202.836 35.4598 202.424 33.0627 201.93C30.6657 201.435 27.3181 200.57 25.6236 199.993C23.9292 199.416 21.6148 198.509 20.4576 197.932C19.3417 197.355 17.2753 196.119 15.9114 195.13C14.5476 194.182 12.7705 192.575 11.9439 191.586C11.076 190.597 9.79483 188.578 9.09225 187.094C8.34834 185.61 7.48044 183.138 7.14982 181.531C6.6952 179.429 6.57122 177.245 6.77786 173.495C6.90184 170.651 7.48044 165.541 8.05904 162.162C8.63764 158.741 9.75351 153.096 10.5387 149.593C11.2827 146.09 13.1424 138.342 14.6303 132.367C16.1181 126.433 17.6472 120.911 17.9779 120.128C18.3911 119.138 18.9697 118.603 19.755 118.438C20.3749 118.273 21.3255 118.314 21.9041 118.52C22.4827 118.726 23.1439 119.386 23.4332 119.921C23.8878 120.828 23.5159 122.683 20.7055 133.933C18.8871 141.062 16.6553 150.623 15.7461 155.156C14.8369 159.689 13.8037 165.582 13.4317 168.22C13.1011 170.898 12.8118 174.072 12.8118 175.225C12.8118 176.421 13.0184 178.522 13.2664 179.882C13.5144 181.242 14.1343 183.261 14.6716 184.415C15.2089 185.569 16.6554 187.424 17.9365 188.619C19.3417 189.937 21.6148 191.462 23.6812 192.451C25.541 193.358 28.8472 194.553 30.9963 195.089C33.1454 195.624 34.9638 196.037 35.0465 196.037C35.1292 195.995 34.7159 193.44 34.1373 190.391C33.5587 187.341 32.7734 182.932 32.4428 180.583C32.1122 178.275 31.4509 173.165 30.9963 169.25C30.5417 165.376 29.7978 157.34 29.3432 151.447C28.8886 145.554 28.3513 137.683 28.1446 133.933C27.8967 128.782 27.8967 126.886 28.31 126.103C28.5993 125.526 29.1365 124.949 29.5085 124.743C29.8804 124.578 30.583 124.455 31.1203 124.455C31.6162 124.455 32.4428 124.867 32.9801 125.361C33.724 126.103 33.972 126.886 34.0959 128.988C34.2199 130.471 34.5919 136.406 34.9638 142.175C35.2945 147.944 36.0384 157.134 36.5756 162.574C37.1542 168.014 37.9808 175.143 38.4354 178.44C38.9314 181.737 39.7579 186.723 40.3365 189.567C40.9565 192.41 41.783 195.913 42.2376 197.397C42.6922 198.88 43.5188 201.064 44.0561 202.218C44.5934 203.413 45.2959 204.402 45.5852 204.402C45.8332 204.443 46.5771 203.372 47.197 202.053C47.817 200.735 48.6849 198.18 49.1395 196.366C49.5941 194.553 50.338 190.762 50.7926 187.918C51.2472 185.075 51.9085 180.088 52.2391 176.791C52.5697 173.495 53.0657 167.684 53.3137 163.81C53.5616 159.937 53.8923 151.736 54.3469 134.263L55.5041 133.274C56.124 132.738 56.9919 132.285 57.4465 132.285C57.9011 132.285 58.769 132.738 60.5461 134.263L60.4221 141.639C60.3808 145.678 60.1328 152.766 59.8849 157.423C59.6782 162.079 59.1823 168.92 58.8517 172.67C58.521 176.421 57.9838 181.695 57.6118 184.415C57.2812 187.135 56.6199 191.215 56.1653 193.482C55.752 195.748 55.4627 197.685 55.628 197.809C55.752 197.932 59.4716 198.015 63.8524 198.015C68.2332 198.015 71.9528 197.932 72.0354 197.809C72.1594 197.685 71.9114 196.037 71.4568 194.1C71.0435 192.163 70.341 187.63 69.845 184.003C69.3904 180.377 68.7705 173.989 68.3985 169.786C68.0679 165.582 67.6133 157.588 67.3653 151.983C67.1587 146.337 66.952 140.156 66.952 138.178C66.9107 135.293 67.076 134.345 67.6546 133.644C68.0679 133.109 68.9771 132.573 69.6384 132.449C70.6303 132.202 71.1262 132.367 71.9528 133.15C73.0273 134.139 73.0273 134.139 73.3166 143.411C73.4406 148.521 73.7712 156.022 74.0192 160.101C74.2258 164.181 74.6804 170.569 75.0524 174.319C75.383 178.069 76.0443 183.632 76.4989 186.682C76.9948 189.731 77.8214 194.017 78.3587 196.16C78.9373 198.303 79.8465 201.064 80.3838 202.259C80.9624 203.413 81.5823 204.402 81.8303 204.402C82.0782 204.402 82.6155 203.784 83.0701 203.083C83.5247 202.342 84.3513 200.281 84.9299 198.509C85.5085 196.778 86.5004 192.616 87.2029 189.278C87.8642 185.899 88.7734 180.583 89.228 177.41C89.6827 174.236 90.4266 167.849 90.8812 163.192C91.3358 158.535 91.997 150.87 92.369 146.09C92.6996 141.31 93.1129 134.922 93.2369 131.872C93.5262 126.845 93.6502 126.227 94.4768 125.402C95.014 124.867 95.8406 124.455 96.3779 124.455C96.9151 124.413 97.8657 124.867 99.7255 126.309L99.4362 132.491C99.2709 135.87 98.8989 142.463 98.5683 147.12C98.1963 151.777 97.5764 159.277 97.1218 163.81C96.6258 168.343 95.7993 175.39 95.2207 179.47C94.6421 183.55 93.6915 188.907 93.1542 191.421C92.617 193.935 92.2037 195.995 92.2863 195.995C92.3277 196.037 93.8568 195.707 95.6753 195.295C97.4937 194.841 100.18 194.058 101.668 193.482C103.156 192.946 105.511 191.71 106.958 190.803C108.363 189.896 110.264 188.165 111.215 187.012C112.207 185.693 113.199 183.756 113.694 182.149C114.273 180.212 114.48 178.275 114.48 175.143C114.48 172.753 114.19 168.879 113.818 166.489C113.488 164.099 112.62 159.401 111.959 155.98C111.256 152.601 109.52 144.895 108.032 138.878C106.545 132.861 104.313 124.166 103.073 119.509C101.833 114.853 99.6015 106.94 98.1136 101.871C96.6672 96.8438 95.4686 92.3519 95.4686 91.8986C95.4686 91.4453 95.9232 90.6211 96.5018 90.0441C97.0391 89.4672 97.8243 89.0139 98.2376 89.0139C98.6509 89.0139 100.304 88.3957 101.875 87.6127C103.858 86.6649 105.511 85.4286 107.165 83.6978C108.611 82.173 110.058 80.0301 110.925 78.1756C111.711 76.5684 112.661 73.6425 113.075 71.7056C113.529 69.3566 113.694 67.3373 113.488 65.5241C113.364 64.0405 112.868 61.4031 112.413 59.6311C111.959 57.9002 111.008 55.0155 110.306 53.2435C109.603 51.5127 107.785 47.5565 106.255 44.5069C104.726 41.4574 102.37 37.1715 98.6509 31.1136L98.5269 24.52C98.4443 20.8935 98.155 16.4428 97.907 14.6296C97.659 12.8163 97.1218 10.385 96.7085 9.27228C96.2952 8.11839 95.6339 6.96451 95.3033 6.67604C94.89 6.34636 94.3941 6.30515 93.9395 6.55241C93.5262 6.75846 92.369 7.82992 91.3358 8.9426C90.3026 10.0553 88.5668 12.5279 87.4096 14.4235C86.2937 16.3604 84.5579 19.6984 83.6074 21.8414C82.6155 23.9843 81.541 26.0448 81.2103 26.3745C80.6731 26.9102 78.1107 26.9926 64.7616 27.1163C54.9668 27.1987 48.4369 27.0751 47.5277 26.8278C46.1638 26.4569 45.9159 26.0448 43.6015 21.1408C42.2376 18.2561 40.0886 14.2999 38.8074 12.363C37.5262 10.4262 35.7904 8.24203 34.9638 7.50024C34.1373 6.79967 33.1867 6.18152 32.8561 6.18152C32.5255 6.18152 31.8229 6.96451 31.3683 7.91234C30.8723 8.90139 30.2111 10.9619 29.9218 12.5691C29.5911 14.1763 29.2192 18.9567 28.7646 31.1136L26.3262 35.2347C24.9624 37.5012 22.648 41.7459 21.1601 44.713C19.6723 47.6801 17.8539 51.6363 17.11 53.5732C16.3661 55.51 15.3742 58.5596 14.9196 60.3728C14.3823 62.4333 14.0517 64.906 14.0517 66.9665C14.0517 68.7797 14.341 71.4584 14.7129 72.9419C15.0435 74.4255 15.8701 76.7333 16.5314 78.0932C17.1926 79.4531 18.5151 81.5548 19.507 82.7911C20.4989 83.9862 22.4 85.7171 23.7638 86.6237C25.1277 87.5303 27.1941 88.5194 28.31 88.8078C29.4672 89.1375 30.6657 89.7144 31.0376 90.1265C31.4096 90.5387 31.8229 91.1568 31.9469 91.4865C32.0709 91.8162 30.9963 96.2669 29.5085 101.377C27.4007 108.795 26.6568 110.855 25.8303 111.556C25.2517 112.092 24.4664 112.504 24.0945 112.504C23.6812 112.545 22.8546 112.174 22.2347 111.679C21.3668 111.061 21.0775 110.484 21.0775 109.495C21.0775 108.795 21.9041 105.251 22.9373 101.665C23.9705 98.1213 24.797 94.9481 24.797 94.6597C24.797 94.4124 24.0945 93.8355 23.2679 93.4646C22.4 93.0937 20.5815 91.981 19.2177 90.992C17.8539 90.0029 15.8288 88.066 14.7129 86.7473C13.597 85.3874 12.3985 83.6566 12.0266 82.9148C11.6546 82.173 11.2413 81.5961 11.076 81.5961C10.8694 81.5961 9.62952 82.1318 8.26568 82.8324C6.90184 83.5329 5.41402 84.0687 4.95941 84.0687C4.5048 84.0687 3.67823 83.6153 3.09963 83.0384C2.52103 82.4615 2.06642 81.596 2.06642 81.0603C2.02509 80.5658 2.39705 79.7004 2.81033 79.1234C3.26494 78.5465 4.75277 77.5575 8.76162 75.6206L8.431 73.7661C8.26568 72.7359 8.01771 71.0875 7.64576 68.2028L4.75277 67.7082C2.60369 67.2961 1.61181 66.9252 0.950553 66.1423C0.413284 65.5653 0 64.8235 0 64.4939C0 64.1642 0.206642 63.4636 0.413284 62.9279C0.661255 62.4333 1.28118 61.774 1.85978 61.4855C2.64502 61.1146 3.43026 61.1146 5.0834 61.4031C6.24059 61.6503 7.43911 61.8152 7.64576 61.8152C7.89373 61.8152 8.38967 60.4553 8.84428 58.8481C9.25756 57.1997 10.3734 53.8204 11.3653 51.3066C12.3159 48.834 14.1756 44.6306 15.4982 42.0343C16.7793 39.4381 18.9697 35.4407 22.7306 29.0531V24.314C22.7306 21.7177 22.9373 17.9264 23.1439 15.8659C23.3919 13.8054 23.8465 11.0443 24.1771 9.68438C24.5491 8.32445 25.3343 6.18152 25.9542 4.98643Z" fill="#14153B"/>
<path d="M29.9219 12.5691C30.2112 10.9619 30.8724 8.90139 31.3684 7.95355C31.8643 6.96451 32.5256 6.18152 32.8562 6.18152C33.1868 6.18152 34.1374 6.79967 34.9639 7.50024C35.7905 8.24202 37.5263 10.4262 38.8075 12.363C40.0887 14.2999 42.2377 18.2561 43.6016 21.1408C45.7507 25.6739 46.2466 26.4569 47.3211 26.7866C47.9824 27.0338 50.6687 27.1987 57.8599 27.1987L57.6532 30.1658C57.5292 31.8142 57.2399 34.9462 56.992 37.0891C56.744 39.232 56.0828 43.0646 55.5042 45.5372C54.9256 48.0098 53.975 51.389 53.3964 52.955C52.8591 54.521 51.4953 57.6118 50.4208 59.7547C49.3049 61.8976 47.4451 65.0708 46.2466 66.7604C45.0481 68.45 42.7337 71.1699 41.1219 72.7359C39.5514 74.3431 36.8237 76.6096 35.1292 77.7635C33.4348 78.8762 30.9137 80.401 29.5499 81.0603C28.1861 81.7609 25.665 82.8324 20.8709 84.522L19.5484 82.956C18.8045 82.0906 17.5647 80.0713 16.7794 78.5053C15.9942 76.9393 15.0436 74.4255 14.713 72.9419C14.3411 71.4584 14.0518 68.7797 14.0518 66.9665C14.0518 64.9059 14.3824 62.4333 14.9197 60.3728C15.3743 58.5596 16.3661 55.51 17.1101 53.5732C17.854 51.6363 19.6724 47.6801 21.1602 44.713C22.6481 41.7459 24.9625 37.5012 28.7647 31.1136L29.054 23.2837C29.2193 18.9567 29.5912 14.1763 29.9219 12.5691Z" fill="#8045ED"/>
<path d="M32.732 51.2654C33.3933 50.3588 34.5091 49.2873 35.2117 48.8752C35.997 48.5043 37.1955 48.2571 38.022 48.3395C38.8073 48.4219 40.0058 48.8752 40.7084 49.3285C41.411 49.7818 42.3615 50.9769 42.8575 51.966C43.4912 53.1748 43.808 54.5347 43.808 56.0458C43.808 57.6118 43.5187 58.8893 42.8988 60.1668C42.3615 61.1971 41.287 62.4334 40.5018 62.9691C39.6752 63.4636 38.4353 63.9169 37.6088 63.9169C36.7822 63.9169 35.5423 63.4636 34.7158 62.9691C33.9305 62.4334 32.856 61.1971 32.3187 60.1668C31.5335 58.6832 31.3682 57.7766 31.4922 55.5925C31.5748 53.4495 31.8641 52.5429 32.732 51.2654Z" fill="#14153B"/>
<path d="M87.4097 14.4235C88.5256 12.4867 90.5093 9.84922 91.7492 8.57171C93.0304 7.25298 94.2702 6.18152 94.5595 6.18152C94.8488 6.18152 95.3447 6.59362 95.6754 7.12935C96.006 7.62387 96.5433 8.77776 96.8326 9.68438C97.1632 10.591 97.6591 12.8163 97.9071 14.6296C98.1551 16.4428 98.4444 20.8935 98.651 31.1136L101.048 35.0286C102.371 37.1715 104.726 41.4574 106.255 44.5069C107.785 47.5565 109.603 51.5127 110.306 53.2847C111.008 55.0155 111.959 57.9002 112.413 59.6311C112.868 61.4031 113.364 64.0405 113.488 65.5241C113.695 67.3373 113.529 69.3566 113.075 71.7056C112.661 73.6425 111.752 76.5272 110.967 78.0932C110.223 79.6592 108.9 81.7609 106.627 84.4808L104.272 83.6153C102.949 83.1208 100.552 82.1318 98.9816 81.4312C97.4112 80.6894 94.6008 79.1234 92.7824 77.8871C91.0053 76.6508 88.1949 74.3019 86.5831 72.7359C84.9713 71.1699 82.6569 68.45 81.4584 66.7604C80.2599 65.0708 78.4001 61.8976 77.2842 59.7547C76.2097 57.6118 74.8459 54.4386 74.2673 52.749C73.6887 51.0593 72.7381 47.7213 72.1595 45.3311C71.5809 42.941 70.961 39.232 70.713 37.0891C70.465 34.9462 70.2171 31.8554 70.0518 27.2811L75.3005 27.1163C79.268 27.0338 80.7145 26.8278 81.2104 26.3745C81.5411 26.0448 82.6156 23.9843 83.6075 21.8414C84.558 19.6984 86.2938 16.3604 87.4097 14.4235Z" fill="#8045ED"/>
<path d="M86.0459 49.9879C86.5419 49.4934 87.4511 48.9164 88.0297 48.6692C88.6083 48.4631 89.3935 48.2571 89.7655 48.2571C90.1788 48.2159 91.1293 48.4631 91.8319 48.7516C92.5758 49.0813 93.6917 49.9055 94.3116 50.6061C94.9729 51.3478 95.6754 52.7078 95.9234 53.6968C96.1714 54.6446 96.254 56.2106 96.1301 57.1997C96.0061 58.1475 95.5101 59.6723 95.0555 60.5789C94.6009 61.4855 93.609 62.5982 92.9064 63.0515C92.1625 63.5048 90.7987 63.8345 89.8895 63.8345C88.9802 63.8345 87.6991 63.5048 86.9965 63.0927C86.2939 62.6394 85.302 61.4855 84.7234 60.4965C83.8968 59.0953 83.6902 58.1887 83.7315 56.0458C83.7315 54.4386 84.0208 52.8726 84.3928 52.1308C84.7647 51.4303 85.5087 50.4824 86.0459 49.9879Z" fill="#14153B"/>
<path d="M57.0334 36.471C57.2814 33.7511 57.612 30.5368 57.6947 29.3829L57.9013 27.1987H63.8939C69.7212 27.1987 69.8452 27.1987 70.0519 28.1054C70.1758 28.6411 70.2585 30.2483 70.2585 31.7318C70.2585 33.2154 70.5478 36.265 70.8371 38.5315C71.1677 40.7981 71.829 44.2185 72.3249 46.1554C72.8209 48.0923 73.6888 51.0594 74.2674 52.749C74.846 54.4386 76.2098 57.6118 77.2843 59.7547C78.4002 61.8977 80.26 65.0708 81.4585 66.7604C82.657 68.4501 84.9714 71.1699 86.5832 72.7359C88.1537 74.3019 91.1707 76.7333 93.1958 78.0932C95.2622 79.4944 98.6098 81.3076 100.635 82.1318C102.66 82.9972 104.768 83.7802 105.305 83.9039C105.801 83.9863 106.173 84.316 106.09 84.5632C106.008 84.8517 105.14 85.6759 104.106 86.3353C103.115 87.0358 101.379 87.9425 100.222 88.3546C99.1057 88.7254 97.7006 89.3024 97.122 89.5909C96.5434 89.8381 95.9235 90.5387 95.7168 91.0744C95.4275 91.8574 96.1301 94.8245 98.6925 103.85C100.552 110.32 102.867 118.726 103.9 122.6C104.933 126.474 106.875 134.139 108.239 139.702C109.603 145.266 111.256 152.56 111.959 155.98C112.62 159.36 113.488 164.099 113.819 166.489C114.191 168.879 114.48 172.094 114.48 176.585L111.67 179.264C109.81 181.036 107.785 182.478 105.677 183.468C103.941 184.333 100.883 185.487 98.8991 186.064C96.874 186.641 95.0142 187.094 94.7663 187.094C94.477 187.094 94.229 186.929 94.229 186.682C94.229 186.435 94.6836 183.055 95.2622 179.182C95.7995 175.267 96.626 168.343 97.122 163.81C97.5766 159.277 98.1965 151.777 98.5685 147.12C98.8991 142.463 99.271 135.87 99.7257 126.309L98.5271 125.361C97.8659 124.867 96.9153 124.413 96.3781 124.455C95.8408 124.455 95.0142 124.867 94.477 125.361C93.6504 126.227 93.5264 126.845 93.2371 131.872C93.1131 134.922 92.6998 141.31 92.3692 146.09C91.9973 150.87 91.336 158.535 90.8814 163.192C90.4268 167.849 89.6829 174.236 89.2282 177.41C88.7736 180.583 87.8644 185.899 87.2032 189.237C86.5006 192.616 85.5087 196.778 84.9301 198.509C84.3515 200.281 83.5249 202.342 83.0703 203.042C82.6157 203.784 82.0784 204.402 81.8305 204.402C81.5825 204.402 80.9626 203.413 80.384 202.218C79.8467 201.064 78.9375 198.303 78.3589 196.16C77.8216 194.017 76.995 189.731 76.4991 186.682C76.0445 183.632 75.3832 178.069 75.0526 174.319C74.6806 170.569 74.226 164.181 74.0194 160.101C73.7714 156.022 73.4408 148.521 73.3168 143.411C73.0275 134.139 73.0275 134.139 71.953 133.15C71.1264 132.367 70.6305 132.202 69.6386 132.449C68.9773 132.573 68.0681 133.109 67.6548 133.644C67.0762 134.345 66.9109 135.293 66.9522 138.26C66.9522 140.279 67.1175 146.337 67.3655 151.653C67.5722 156.969 67.9854 164.016 68.1921 167.313C68.4401 170.61 69.0187 176.627 69.4733 180.706C69.9279 184.786 70.3825 188.454 70.4651 188.825C70.6718 189.525 70.1345 189.567 63.8526 189.567C60.0917 189.567 57.0334 189.443 57.0334 189.237C57.0334 189.072 57.2814 186.929 57.612 184.415C57.9426 181.902 58.5212 176.627 58.8519 172.67C59.2238 168.714 59.6784 161.75 59.9264 157.217C60.133 152.684 60.381 145.678 60.5463 134.263L59.4305 133.274C58.7692 132.738 57.9013 132.285 57.4467 132.285C56.9921 132.285 56.1242 132.738 54.3471 134.263L54.0578 145.554C53.8925 151.736 53.5618 159.937 53.3139 163.81C53.0659 167.684 52.5699 173.495 52.2393 176.791C51.9087 180.088 51.2474 185.075 50.7928 187.918C50.3382 190.762 49.5943 194.553 49.1397 196.366C48.6851 198.18 47.8172 200.735 47.1973 202.053C46.5773 203.372 45.8334 204.443 45.5854 204.402C45.2961 204.402 44.5936 203.413 44.0563 202.259C43.519 201.064 42.6925 198.88 42.2378 197.397C41.7832 195.913 40.9567 192.41 40.3367 189.567C39.7581 186.723 38.9316 181.737 38.4356 178.44C37.981 175.143 37.1544 168.014 36.5758 162.574C36.0386 157.134 35.2947 147.944 34.964 142.175C34.5921 136.406 34.2201 130.471 34.0961 128.988C33.9722 126.886 33.7242 126.103 32.9803 125.361C32.443 124.867 31.6164 124.455 31.1205 124.455C30.5832 124.455 29.8806 124.578 29.5087 124.784C29.1367 124.949 28.5995 125.526 28.3102 126.103C27.8969 126.886 27.8969 128.782 28.1449 133.933C28.3515 137.683 28.8888 145.554 29.3434 151.447C29.798 157.34 30.5419 165.417 30.9965 169.374C31.4511 173.33 32.195 178.893 32.6497 181.737C33.0629 184.58 33.3522 186.97 33.2282 187.094C33.1043 187.218 31.4925 186.888 29.6327 186.352C27.7729 185.858 24.508 184.58 22.4415 183.591C19.5899 182.231 17.8541 181.036 15.705 178.976C13.1426 176.462 12.812 176.008 12.812 174.649C12.812 173.783 13.1013 170.898 13.4319 168.261C13.8039 165.582 14.8371 159.689 15.7463 155.156C16.6556 150.623 18.8873 141.104 20.7057 134.057C23.3094 123.713 23.888 120.952 23.5574 120.128C23.3508 119.551 22.7722 118.932 22.3175 118.685C21.615 118.356 21.5736 118.108 21.9043 117.16C22.1109 116.501 22.4829 115.224 22.7308 114.276C23.0201 112.916 23.3508 112.504 23.9707 112.504C24.4253 112.504 25.2519 112.092 25.8305 111.597C26.657 110.855 27.4009 108.795 29.5087 101.377C30.9965 96.2669 32.0711 91.8162 31.9471 91.4865C31.8231 91.1568 31.4098 90.5387 31.0378 90.1266C30.6659 89.7145 29.4674 89.1375 28.3102 88.8079C27.1943 88.5194 25.0866 87.4479 23.6401 86.4589C22.1936 85.4698 21.1604 84.5632 21.367 84.4396C21.5323 84.316 22.8961 83.7802 24.384 83.2445C25.8718 82.75 28.1862 81.7609 29.55 81.0604C30.9139 80.401 33.4349 78.8762 35.1294 77.7635C36.8238 76.6097 39.5515 74.3431 41.122 72.7359C42.7338 71.1699 45.0482 68.4501 46.2467 66.7604C47.4452 65.0708 49.2637 61.9801 50.2969 59.9608C51.3301 57.9415 52.6526 55.0568 53.1899 53.5732C53.7685 52.0896 54.719 48.7516 55.3803 46.1554C56.0002 43.5591 56.7441 39.1909 57.0334 36.471Z" fill="#B68FFF"/>
<path d="M56.2064 59.6722C56.785 59.2601 58.0662 58.7656 59.0994 58.5183C60.1326 58.3123 62.7363 58.1886 64.8854 58.2711C67.6544 58.3535 69.2662 58.6419 70.4234 59.1777C71.3326 59.631 72.2832 60.3316 72.6138 60.7849C72.9031 61.2382 73.1511 62.3509 73.1511 63.2575C73.1511 64.2465 72.7378 65.4828 72.2005 66.307C71.7046 67.09 70.2994 68.2439 66.9518 70.0572V73.9721C66.9518 77.5574 66.8692 77.9695 65.9186 78.9173C65.34 79.5355 64.4721 79.9476 63.7695 79.9476C63.1496 79.9476 62.1991 79.5355 61.6618 78.9998C60.8352 78.1755 60.7526 77.7222 60.7526 70.0572L58.9754 69.2742C58.0249 68.8208 56.6197 67.7906 55.8758 67.0076C55.1732 66.1834 54.4293 64.9059 54.3053 64.2053C54.14 63.3811 54.264 62.3509 54.5946 61.6503C54.9253 60.9909 55.6278 60.0843 56.2064 59.6722Z" fill="#14153B"/>
<path d="M137.624 57.7354C138.657 57.1584 140.145 56.4578 140.93 56.1694C141.757 55.8809 143.658 55.6749 145.269 55.7161C147.543 55.7985 148.741 56.1282 150.849 57.1584C152.667 58.0238 154.362 59.3013 156.015 61.0734C157.503 62.6394 159.238 65.0708 160.313 67.1725C161.305 69.1094 162.669 72.2413 163.33 74.1782C163.95 76.1151 164.487 78.2992 164.487 78.9998C164.487 79.824 164.157 80.6894 163.661 81.1839C163.206 81.6372 162.297 82.0081 161.594 82.0081C160.933 82.0081 160.024 81.6784 159.61 81.2663C159.197 80.8955 158.371 78.9998 157.751 77.0629C157.089 75.126 155.932 72.2413 155.147 70.6753C154.362 69.0681 152.957 66.884 151.965 65.7713C150.931 64.5762 149.402 63.3399 148.162 62.763C147.047 62.2685 145.476 61.8152 144.774 61.8152C144.03 61.8152 142.955 61.98 142.376 62.2273C141.798 62.4745 140.599 63.3399 139.649 64.1641C138.74 65.0296 137.706 66.4719 137.334 67.3785C136.838 68.7385 136.797 69.4802 137.169 71.7056C137.417 73.1892 138.864 77.3514 140.351 80.9779C141.839 84.6044 143.782 89.426 144.65 91.6925C145.517 93.9591 146.716 97.5031 147.336 99.5224C147.914 101.542 148.7 104.921 149.072 106.94C149.568 109.784 149.65 112.256 149.485 117.449C149.32 122.394 148.948 125.608 148.204 129.276C147.584 132.078 146.427 136.529 145.517 139.167C144.65 141.845 143.203 145.554 142.335 147.45C141.219 149.84 140.434 150.994 139.69 151.282C139.112 151.53 138.244 151.612 137.706 151.488C137.21 151.365 136.508 150.953 136.177 150.623C135.847 150.293 135.557 149.428 135.557 148.769C135.557 148.109 136.177 146.09 136.962 144.318C137.706 142.587 138.988 139.084 139.814 136.612C140.599 134.098 141.715 129.936 142.211 127.339C142.996 123.548 143.203 121.24 143.203 115.8C143.203 110.855 142.996 108.094 142.5 105.704C142.087 103.891 141.178 100.635 140.475 98.4922C139.773 96.3493 137.665 90.8683 135.764 86.3352C133.863 81.8021 132.003 76.9805 131.59 75.6206C131.176 74.2194 130.846 71.7468 130.846 69.8511C130.805 67.2549 131.011 66.101 131.755 64.4938C132.292 63.3399 133.408 61.6091 134.235 60.6201C135.061 59.631 136.59 58.3123 137.624 57.7354Z" fill="#14153B"/>
<path d="M139.36 64.4114C140.103 63.7109 141.302 62.8042 141.963 62.4745C142.624 62.1037 143.864 61.8152 144.65 61.8152C145.435 61.8152 147.005 62.2685 148.162 62.763C149.402 63.34 150.931 64.5763 151.965 65.7714C152.957 66.884 154.362 69.1094 155.147 70.6754C155.932 72.2413 157.048 74.9612 157.585 76.6508C158.123 78.3404 158.784 80.1537 159.073 80.6894C159.321 81.1839 160.106 81.7609 160.85 81.9257C162.131 82.2554 162.255 82.4202 163.247 87.7776L161.925 89.1375C160.685 90.3738 160.644 90.5799 160.892 92.7228C161.057 93.9591 161.388 97.2971 161.594 100.141C161.801 102.984 162.007 108.177 162.007 111.679C162.007 115.182 161.801 120.086 161.594 122.6C161.346 125.114 160.685 129.441 160.106 132.285C159.528 135.128 158.412 139.373 157.627 141.763C156.841 144.153 155.106 148.315 153.783 151.035C152.461 153.755 150.146 157.835 148.617 160.101C147.047 162.368 144.732 165.417 143.492 166.901C142.211 168.385 139.938 170.775 138.45 172.217C136.962 173.659 134.359 175.967 132.664 177.327C130.97 178.687 129.317 180.006 128.986 180.253C128.49 180.624 128.449 180.253 128.655 177.616C128.779 175.926 128.738 173.124 128.242 168.343L129.937 166.489C130.887 165.459 132.334 163.81 133.16 162.78C134.276 161.461 134.731 160.513 134.731 159.483C134.772 158.659 134.483 157.794 134.111 157.423C133.739 157.093 133.45 156.681 133.491 156.516C133.491 156.31 134.193 155.074 135.02 153.673C136.425 151.447 136.715 151.2 137.624 151.447C138.202 151.571 139.112 151.488 139.69 151.282C140.434 150.994 141.178 149.84 142.335 147.45C143.203 145.554 144.65 141.845 145.517 139.208C146.427 136.529 147.584 132.078 148.204 129.317C148.948 125.608 149.32 122.394 149.485 117.449C149.65 112.256 149.568 109.784 149.072 106.94C148.7 104.921 147.915 101.542 147.336 99.5225C146.716 97.5032 145.517 93.9591 144.65 91.6925C143.782 89.426 141.839 84.6044 140.351 80.9779C138.864 77.3514 137.417 73.1892 137.169 71.7056C136.797 69.4803 136.838 68.7385 137.376 67.3786C137.706 66.4719 138.616 65.1532 139.36 64.4114Z" fill="#3E2FE9"/>
<path d="M122.084 173.495C122.58 173.165 124.068 171.929 125.432 170.775C126.754 169.58 128.036 168.755 128.242 168.879C128.408 169.044 128.614 171.64 128.738 180.171L127.498 181.16C126.837 181.695 124.729 183.097 122.87 184.209C120.968 185.363 119.357 186.229 119.233 186.187C119.109 186.105 119.315 185.24 119.646 184.209C120.018 183.179 120.514 180.5 120.762 178.234C121.134 174.855 121.382 173.989 122.084 173.495Z" fill="#786DF2"/>
<path d="M13.2666 179.882C13.0187 178.522 12.812 177.162 12.812 176.915V176.874C12.812 176.627 12.936 176.379 13.06 176.379C13.184 176.379 14.4651 177.574 15.953 179.058C17.9781 181.119 19.5072 182.149 22.4002 183.591C24.508 184.58 27.8142 185.858 29.7567 186.352C31.6991 186.847 33.3109 187.259 33.3522 187.259C33.4349 187.3 33.8482 189.155 34.3028 191.421C34.7987 193.688 35.088 195.666 35.0467 195.831C34.964 195.954 33.1456 195.625 30.9965 195.089C28.8474 194.553 25.5412 193.358 23.6401 192.451C21.615 191.462 19.3419 189.938 17.9367 188.619C16.6556 187.424 15.2091 185.569 14.6718 184.415C14.1345 183.261 13.5146 181.242 13.2666 179.882Z" fill="#3E2FE9"/>
<path d="M105.677 183.509C107.867 182.437 109.686 181.119 111.545 179.264L114.273 176.585L114.397 178.028C114.48 178.811 114.149 180.665 113.694 182.149C113.199 183.756 112.207 185.693 111.215 186.97C110.264 188.165 108.363 189.896 106.958 190.803C105.511 191.71 103.156 192.946 101.668 193.482C100.18 194.059 97.4937 194.842 95.6753 195.295C93.8568 195.707 92.3277 196.037 92.2863 195.995C92.245 195.995 92.617 194.017 93.1129 191.668C93.6088 189.319 94.2288 187.341 94.4354 187.259C94.6834 187.218 96.5845 186.682 98.6922 186.105C100.759 185.528 103.941 184.333 105.677 183.509Z" fill="#3E2FE9"/>
<path d="M56.0414 194.1C56.4134 192.163 56.7854 190.35 56.868 190.102V190.061C56.992 189.69 58.7278 189.567 70.4651 189.567L71.333 193.564C71.8289 195.789 72.1595 197.685 72.0769 197.767C72.0355 197.891 68.316 197.973 63.8938 197.973C59.4717 198.015 55.7521 197.932 55.5868 197.809C55.4628 197.685 55.6695 196.037 56.0414 194.1Z" fill="#3E2FE9"/>
</svg>
