<svg width="171" height="174" viewBox="0 0 171 174" fill="none" xmlns="http://www.w3.org/2000/svg">
<path fill-rule="evenodd" clip-rule="evenodd" d="M152.023 0.00725157C152.407 0.00289242 152.753 0 153.069 0C155.571 0 156.17 0.181252 158.24 1.25098C160.222 2.22264 160.96 2.88337 161.931 4.39917C163.019 6.22589 163.097 6.53683 163.058 10.0348C163.019 12.5611 162.708 15.1263 162.009 18.0413C161.701 19.3631 160.993 22.2955 160.147 25.7983L160.143 25.8156C159.498 28.4885 158.773 31.4923 158.085 34.3653C156.453 41.0114 154.16 50.6892 153.034 55.9362C151.868 61.1831 150.43 67.8682 149.809 70.822C149.226 73.737 148.643 76.1468 148.526 76.1468C148.41 76.1468 148.021 74.7087 147.672 72.9597C147.283 71.1718 146.545 68.3346 146.001 66.6245C145.457 64.9143 143.98 61.4163 142.698 58.8512C141.416 56.286 139.279 52.7102 137.919 50.8835C136.52 49.0568 133.684 45.9086 131.547 43.8875C129.449 41.8665 126.069 39.0681 124.048 37.6689C122.028 36.3086 118.453 34.2487 116.083 33.1215C113.713 31.9944 109.983 30.4786 107.729 29.7401C105.476 29.0017 102.484 28.1855 101.008 27.8745C99.5699 27.6025 98.4043 27.2915 98.4043 27.1749C98.4043 27.0583 100.036 25.7369 102.018 24.2211C103.999 22.6664 107.069 20.4122 108.895 19.1684C110.721 17.9247 114.49 15.515 117.249 13.8437C120.007 12.1725 124.903 9.45182 128.128 7.85829C131.314 6.22589 135.549 4.28257 137.453 3.5441C139.357 2.80564 142.621 1.71738 144.641 1.13438C147.439 0.318184 149.226 0.0461181 152.023 0.00725157ZM170 90.7395C169.547 90.1191 168.198 89.0076 166.788 88.0788C165.195 87.0294 162.553 85.5913 160.96 84.814C159.367 84.0755 156.569 82.9484 154.743 82.3654C152.917 81.7824 150.858 81.1994 150.158 81.0828L148.876 80.8496L148.915 84.1144V87.4181C154.199 88.9727 157.035 90.0998 158.628 90.916C160.221 91.6934 162.669 93.0926 164.068 93.9865C165.467 94.8804 166.827 95.58 167.099 95.58C167.332 95.58 168.109 95.308 168.731 94.997C169.311 94.7069 169.739 94.2868 170 93.7368C170.089 93.55 170.158 93.3482 170.207 93.1314C170.44 92.3541 170.401 91.5379 170.129 90.9549C170.103 90.8924 170.059 90.8201 170 90.7395ZM86.3058 174C90.2304 173.997 90.4205 173.801 90.7886 173.197C91.0994 172.73 92.4982 170.165 93.897 167.483L96.4613 162.625L89.6618 151.548H77.073L75.9462 153.608C75.5757 154.256 74.9428 155.389 74.2698 156.592C73.8137 157.408 73.3393 158.257 72.9156 159.01C71.9054 160.837 71.0894 162.586 71.1283 162.897C71.206 163.169 72.6825 165.773 74.4698 168.649L77.6947 173.896C81.5693 173.957 84.2479 173.999 86.1162 174H86.3058ZM0.296457 93.4424C0.0970686 92.9836 0 92.617 0 92.248C0 91.8979 0.0873618 91.5456 0.257602 91.1104C0.529583 90.3331 1.61751 89.3614 3.59908 88.0788C5.19211 87.0294 7.63994 85.6691 9.03869 84.9695C10.4375 84.3087 13.1184 83.2205 15.0611 82.5597C17.5867 81.627 18.6746 81.4326 18.9854 81.7436C19.2574 82.0156 19.3351 83.2593 19.102 88.0011L16.8873 88.7395C15.6828 89.1282 13.3515 90.0999 11.7585 90.916C10.1655 91.7322 7.71765 93.0926 6.31889 93.9865C4.92013 94.8804 3.56023 95.58 3.28824 95.58C3.05512 95.58 2.35574 95.3468 1.77292 95.1136C1.22896 94.8416 0.529583 94.0642 0.296457 93.4424ZM36.4695 128.733C35.9256 129.627 35.3039 130.91 35.0708 131.532C34.8377 132.153 34.488 133.825 34.2937 135.224C34.0606 136.817 34.0994 138.528 34.3714 139.888C34.5657 141.054 35.2262 142.881 35.7702 143.969C36.3141 145.018 37.7906 147.039 39.1116 148.361C40.4327 149.721 42.6085 151.587 44.0073 152.52C45.4061 153.452 48.0093 154.89 49.8355 155.745C51.6616 156.562 54.8088 157.805 56.8292 158.466C58.8497 159.127 61.4918 159.904 62.6574 160.215L64.7944 160.759C70.506 149.954 72.5264 146.534 72.9538 146.145C73.6143 145.601 75.1297 145.446 82.6674 145.174C89.8166 144.941 91.8371 144.979 92.6918 145.407C93.5078 145.757 95.0231 147.894 98.3257 153.375L98.4109 153.515C102.833 160.799 102.879 160.874 104.037 160.643C104.659 160.526 106.602 160.098 108.311 159.671C110.021 159.243 112.624 158.466 114.139 157.922C115.655 157.378 118.258 156.29 119.968 155.473C121.677 154.657 124.475 152.908 126.184 151.626C127.894 150.382 130.031 148.361 130.925 147.234C131.818 146.068 132.906 144.358 133.334 143.386C133.761 142.414 134.227 140.587 134.383 139.305C134.538 137.711 134.421 136.118 133.955 134.252C133.606 132.736 132.867 130.677 132.284 129.627C131.702 128.617 131.08 127.606 130.847 127.412C130.614 127.217 129.409 127.917 127.739 129.238C126.223 130.404 123.814 132.192 122.299 133.164C120.784 134.175 117.831 135.807 115.694 136.817C113.557 137.828 109.788 139.266 107.34 140.005C104.892 140.743 100.579 141.753 97.8206 142.259C93.5466 143.036 91.4485 143.153 84.0273 143.153C77.4998 143.153 74.3137 142.958 71.3996 142.453C69.2627 142.103 65.8435 141.365 63.823 140.86C61.8026 140.354 58.5388 139.344 56.635 138.605C54.7311 137.867 52.089 136.74 50.8068 136.118C49.5246 135.457 46.8825 133.864 44.9787 132.581C43.0748 131.298 40.6658 129.549 39.6556 128.655C38.6065 127.762 37.7129 127.062 37.5963 127.062C37.5186 127.062 37.0135 127.8 36.4695 128.694V128.733ZM15.6446 110.349C17.0433 108.95 19.1026 107.046 20.2682 106.152C21.395 105.258 22.4052 104.519 22.5218 104.519C22.5995 104.519 23.26 105.841 25.1639 110.349L22.0555 113.187C20.346 114.78 17.9758 117.229 16.8102 118.706C15.6446 120.144 14.2847 121.504 13.7796 121.659C13.2097 121.893 12.4715 121.815 11.5649 121.426C10.6324 121.038 10.1272 120.493 9.93297 119.794C9.77756 119.172 9.69985 118.356 9.77756 117.928C9.85526 117.501 10.6324 116.218 11.4871 115.052C12.3808 113.886 14.2458 111.787 15.6446 110.349ZM144.912 105.88C144.33 107.279 143.863 108.678 143.863 108.989C143.863 109.3 144.873 110.349 146.117 111.282C147.321 112.215 149.381 114.08 150.663 115.48C151.945 116.84 153.693 118.783 154.548 119.833C155.753 121.31 156.374 121.737 157.268 121.776C157.89 121.776 158.9 121.504 159.522 121.115C160.338 120.571 160.571 120.144 160.571 118.978C160.61 117.928 160.182 116.879 158.939 115.052C158.006 113.653 155.792 111.204 154.043 109.611C152.256 107.978 149.808 105.919 148.604 105.025C147.36 104.092 146.311 103.353 146.195 103.353C146.078 103.353 145.495 104.48 144.912 105.88ZM83.0563 32.6552C86.7086 32.6552 91.4877 32.8884 93.7412 33.1604C95.9948 33.4713 99.2974 34.0543 101.124 34.4819C102.95 34.9483 106.019 35.8422 107.923 36.5029C109.827 37.2025 112.624 38.3685 114.14 39.107C115.655 39.8843 118.064 41.2835 119.579 42.2552C121.095 43.188 123.581 45.0536 125.174 46.375C126.729 47.6965 128.982 49.873 130.187 51.2722C131.352 52.6714 133.295 55.2755 134.499 57.1022C135.665 58.9289 137.297 61.9216 138.113 63.8261C138.929 65.6917 140.017 68.9176 140.561 71.0164C141.066 73.0763 141.649 75.9525 142.115 80.0334H138.424C136.403 80.0334 133.256 80.2666 131.43 80.5776C129.604 80.8885 127.389 81.316 126.457 81.5492C125.563 81.7824 124.553 82.3654 124.242 82.8707C123.931 83.3371 123.659 84.1533 123.659 84.6974C123.62 85.2416 123.97 86.1355 124.436 86.7573C125.019 87.5347 125.563 87.8067 126.495 87.8067C127.156 87.8067 129.06 87.5735 130.653 87.2626C132.246 86.9517 135.315 86.563 137.452 86.4464C139.861 86.2909 141.571 86.3687 141.921 86.6019C142.426 86.9517 142.426 87.4958 142.037 90.9161C141.765 93.0537 141.221 95.9298 140.872 97.329C140.483 98.7282 140.017 99.8165 139.784 99.6999C139.624 99.6199 138.842 99.302 137.815 98.8844L137.814 98.8843C137.344 98.6933 136.823 98.4814 136.287 98.2618C134.577 97.6011 131.508 96.6294 129.487 96.1242C127.467 95.58 125.136 95.1914 124.32 95.1914C123.193 95.1914 122.727 95.4246 122.105 96.2796C121.639 96.8626 121.289 97.7566 121.289 98.3007C121.289 98.8448 121.6 99.661 121.988 100.166C122.532 100.827 123.815 101.332 127.156 102.148C129.604 102.77 133.023 103.859 134.694 104.558C136.364 105.297 137.802 105.996 137.88 106.191C137.958 106.346 137.336 107.823 136.442 109.494C135.549 111.127 134.227 113.381 133.45 114.43C132.712 115.519 131.197 117.384 130.109 118.628C129.021 119.91 126.923 121.932 125.408 123.175C123.892 124.38 121.561 126.129 120.162 127.023C118.763 127.956 116.044 129.433 114.14 130.366C112.236 131.298 108.817 132.698 106.563 133.436C104.31 134.174 100.735 135.146 98.598 135.574C96.461 136.001 92.2647 136.545 89.273 136.779C85.3487 137.089 82.3957 137.089 78.588 136.779C75.7128 136.545 71.5942 136.001 69.4572 135.574C67.3202 135.146 63.7456 134.174 61.4921 133.436C59.2385 132.698 55.6639 131.221 53.5269 130.171C51.3899 129.122 48.165 127.217 46.3389 125.935C44.5127 124.652 41.6763 122.204 39.9667 120.571C38.296 118.9 36.0424 116.335 34.9934 114.819C33.9055 113.303 32.4678 110.971 30.4474 107.046L33.8277 105.413C35.6928 104.519 38.6845 103.353 40.5107 102.848C42.3369 102.304 44.5904 101.76 45.5618 101.604C46.572 101.41 47.6599 100.905 48.2039 100.361C48.7478 99.8165 49.0587 99.0003 49.0587 98.223C49.0587 97.4456 48.709 96.5906 48.165 96.0464C47.5822 95.4634 46.8828 95.1914 45.9503 95.1914C45.2121 95.1914 43.1917 95.5412 41.4821 95.9298C39.7725 96.3574 37.0527 97.1736 35.4596 97.7566C33.8666 98.3007 31.5353 99.2724 28.0773 101.021L27.6499 99.389C27.4168 98.4562 26.9894 96.5128 26.7174 94.997C26.4066 93.4813 26.0569 91.0327 25.5518 86.7185L28.6601 86.4853C30.3697 86.3298 33.4392 86.4075 35.4596 86.6407C37.4801 86.8739 39.8502 87.2237 40.705 87.4181C41.5598 87.6124 42.9197 87.8067 43.7356 87.8067C44.8624 87.8067 45.3286 87.5735 45.9503 86.7573C46.4166 86.1355 46.7663 85.2416 46.7274 84.6974C46.7274 84.1533 46.4554 83.3371 46.1446 82.8707C45.8338 82.3654 44.8235 81.7824 43.9299 81.5492C42.9974 81.316 40.7827 80.8885 38.9565 80.5776C37.1304 80.2666 33.5169 80.0334 26.1346 80.0334V78.401C26.1346 77.4682 26.4843 75.1751 26.8728 73.2318C27.2614 71.3273 28.155 68.2569 28.8155 66.4302C29.4761 64.6034 30.7971 61.7273 31.7685 60.0172C32.7398 58.3071 34.566 55.6253 35.7705 54.0317C36.9749 52.4382 39.3062 49.9119 40.9381 48.3961C42.5311 46.8803 45.4064 44.5483 47.3491 43.2657C49.2529 41.9442 52.4001 40.0787 54.304 39.1459C56.2079 38.1742 59.122 36.8916 60.715 36.3475C62.308 35.7645 65.0278 34.9483 66.7374 34.5207C68.447 34.0543 71.3222 33.4713 73.1484 33.1993C74.9745 32.9272 79.4428 32.694 83.0563 32.6552ZM47.1159 53.8374C46.572 54.1872 45.6783 54.9257 45.0567 55.5087C44.2407 56.2471 44.0076 56.869 44.0076 57.9961C44.0076 59.1232 44.2407 59.6285 45.0955 60.2115C45.6783 60.6779 46.572 60.9888 47.1159 60.9888C47.6599 60.9888 48.8644 60.4447 49.8358 59.8228C50.8071 59.201 52.5167 58.5014 53.6435 58.2682C55.0422 57.9961 56.2467 57.9961 57.5289 58.2682C58.5391 58.5014 60.0156 59.1233 60.8315 59.6285C61.6086 60.1726 62.5411 61.1832 62.8908 61.8828C63.2405 62.5435 63.6679 64.448 63.8233 66.0415C64.0953 68.4124 64.3284 69.0731 65.0667 69.6561C65.5718 70.0447 66.5043 70.3557 67.2037 70.3168C67.8642 70.3168 68.719 70.0059 69.1075 69.6561C69.4572 69.2674 69.9235 68.5678 70.0789 68.1014C70.2732 67.5962 70.4286 66.5468 70.4286 65.7694C70.4286 64.9532 70.1177 63.1654 69.6903 61.7662C69.2629 60.367 68.2916 58.3848 67.5145 57.2965C66.7374 56.2471 65.3775 54.8868 64.4839 54.2649C63.5902 53.6819 61.7252 52.8657 60.3264 52.4382C58.8111 51.9718 56.7907 51.6609 55.2754 51.6609C53.8766 51.6997 51.7008 52.0495 50.4186 52.4771C49.1364 52.8657 47.6599 53.4876 47.1159 53.8374ZM103.183 53.5653C101.939 54.1872 100.385 55.2755 99.7248 56.0139C99.0254 56.7135 98.0541 58.1905 97.5101 59.2399C97.005 60.3281 96.3445 62.1548 96.1113 63.3208C95.8394 64.6034 95.7616 66.0804 95.9559 67.0132C96.1113 67.8682 96.5387 68.9565 96.9273 69.4617C97.4324 70.0836 98.0152 70.3168 99.1808 70.3168C100.424 70.3168 100.89 70.1225 101.512 69.2674C102.056 68.4901 102.328 67.5962 102.328 66.2358C102.289 65.1864 102.639 63.5929 103.027 62.7378C103.416 61.8828 104.31 60.639 105.048 59.9783C105.864 59.2787 107.146 58.618 108.312 58.3848C109.633 58.0739 110.876 58.0739 112.197 58.3071C113.246 58.5014 115.072 59.201 116.16 59.8228C117.287 60.4836 118.763 60.9888 119.385 60.9888C120.201 60.9888 120.823 60.639 121.522 59.8228C122.066 59.201 122.493 58.3848 122.493 58.0739C122.493 57.7629 122.26 57.0245 121.988 56.4803C121.755 55.9362 120.628 54.9257 119.579 54.2649C118.491 53.6042 116.626 52.7491 115.383 52.3605C114.179 51.9718 112.08 51.6609 110.721 51.6997C109.4 51.7386 107.651 51.8941 106.835 52.0884C106.058 52.2827 104.387 52.9435 103.144 53.5653H103.183ZM78.0052 70.3557C77.9089 70.4701 77.7995 70.5994 77.6807 70.7399C77.0326 71.5063 76.1035 72.605 75.4797 73.4261C74.7026 74.3978 73.8478 75.6027 73.5758 76.1468C73.3038 76.6909 72.9153 77.7403 72.7598 78.4788C72.5656 79.2561 72.6433 80.6553 72.8764 81.7824C73.1872 83.1816 73.7701 84.1922 74.8968 85.397C75.7905 86.3298 76.995 87.2237 77.6555 87.4181C77.822 87.4597 78.0164 87.5097 78.223 87.5629L78.2236 87.563C78.7882 87.7083 79.4436 87.8769 79.8702 87.9622C80.8804 88.1954 80.9581 88.312 80.9581 90.3331V92.4707C77.6555 93.9865 75.5962 94.5695 74.2363 94.8027C72.6433 95.0359 71.0503 95.0359 69.4961 94.8027C68.2139 94.5695 66.4266 93.9865 65.4941 93.4424C64.4062 92.7817 63.6291 91.9266 63.0851 90.8383C62.6577 89.9055 62.308 88.3897 62.308 87.4181C62.308 86.4464 62.6577 84.8918 63.124 83.9201C63.5514 82.9484 63.8622 81.8602 63.8622 81.5104C63.8622 81.1217 63.3182 80.3055 62.6966 79.6448C61.7252 78.6731 61.2978 78.5176 60.2487 78.6731C59.5882 78.7897 58.6946 79.2172 58.306 79.567C57.9175 79.9168 57.2569 81.1994 56.7907 82.3654C56.2079 83.8812 55.9748 85.4359 55.9748 87.6124C55.9359 90.2165 56.1302 91.1104 56.985 92.976C57.5678 94.1809 58.8111 95.9687 59.7825 96.9404C60.7538 97.912 62.6966 99.2335 64.1342 99.9331C66.4266 101.021 67.2814 101.177 70.6617 101.332C73.4592 101.449 75.2465 101.332 77.0727 100.866C78.4714 100.516 80.6473 99.7388 81.9295 99.1169L84.2607 98.0286C86.6697 99.4278 88.7679 100.166 90.4775 100.633C92.187 101.06 94.7903 101.41 96.3056 101.41C97.8209 101.41 100.036 101.138 101.24 100.827C102.483 100.516 104.31 99.8165 105.32 99.3112C106.369 98.7671 107.651 97.912 108.234 97.3679C108.856 96.8238 109.749 95.6966 110.254 94.9193C110.798 94.1031 111.498 92.393 111.886 91.1104C112.352 89.478 112.469 88.0399 112.314 86.2521C112.158 84.6197 111.692 82.9873 110.993 81.5881C110.41 80.4221 109.477 79.2172 108.933 78.984C108.234 78.6342 107.612 78.5954 106.68 78.8674C106.019 79.1006 105.281 79.6059 105.048 80.0334C104.815 80.461 104.659 81.2772 104.659 81.899C104.659 82.482 104.931 83.648 105.281 84.5031C105.708 85.5136 105.864 86.7962 105.747 88.1954C105.67 89.6723 105.32 90.7606 104.659 91.6545C104.076 92.4707 102.833 93.4035 101.551 93.9865C99.8802 94.725 98.7534 94.9582 96.4999 94.9582C94.9069 94.9582 92.8864 94.725 92.0316 94.4529C91.1768 94.142 89.7392 93.5979 88.8067 93.2092L87.1748 92.4707V88.1954C89.4284 87.8456 90.7106 87.4181 91.4488 87.0294C92.187 86.6796 93.2361 85.8634 93.7801 85.2416C94.324 84.6197 95.0234 83.4148 95.2954 82.5598C95.6451 81.5881 95.7228 80.2666 95.5674 79.0618C95.412 77.7403 94.9069 76.4966 93.9743 75.1751C93.2361 74.1257 91.7985 72.299 90.7883 71.133C89.7781 69.967 88.2239 68.6844 87.3691 68.2957C86.5143 67.946 85.0378 67.5962 84.0665 67.5962C83.0951 67.5962 81.6187 67.946 80.7639 68.3346C79.9091 68.7233 78.6657 69.6561 78.0052 70.3557ZM83.3669 74.1257C83.1338 74.2812 82.0459 75.5249 80.9579 76.9241C79.8312 78.3233 78.9375 79.7225 78.9375 80.0335C78.9764 80.3444 79.1706 80.8496 79.4426 81.1217C79.7923 81.4326 81.3076 81.5881 84.2994 81.5881C88.1071 81.5881 88.7288 81.5104 89.0396 80.8885C89.1951 80.5387 89.2728 79.9557 89.1562 79.6448C89.0396 79.3339 88.2626 78.1679 87.4078 77.1185C86.553 76.0302 85.465 74.8642 85.0376 74.4755C84.5714 74.0869 84.144 73.7759 84.0274 73.8148C83.9109 73.8148 83.6389 73.9703 83.3669 74.1257ZM7.44547 3.11658C8.18371 2.57244 9.69903 1.79511 10.7481 1.40645C12.3023 0.862318 13.4679 0.745718 16.2266 0.901184C18.1304 1.01778 21.1222 1.48418 22.8318 1.91171C24.5414 2.37811 27.9606 3.54411 30.4084 4.51577C32.8562 5.48743 36.4697 7.08096 38.3736 8.05262C40.2774 8.98542 43.8909 10.9287 46.3387 12.3279C48.7865 13.6883 53.0605 16.3312 55.858 18.1579C58.6167 19.9458 62.6187 22.783 64.7168 24.4154C66.815 26.0478 68.4469 27.4081 68.408 27.447C68.3303 27.5247 66.5819 27.9911 64.4837 28.5353C62.4244 29.0794 59.1995 30.0899 57.2957 30.8284C55.4306 31.528 52.5166 32.8106 50.807 33.6657C49.0974 34.5596 46.0279 36.3475 44.0075 37.7078C41.6762 39.2236 38.6455 41.7888 35.8092 44.626C32.9728 47.4633 30.4084 50.4949 28.8931 52.8269C27.5332 54.8479 25.8236 57.7629 25.0854 59.2398C24.3083 60.7168 23.0261 63.9815 22.2101 66.4301C21.4331 68.8787 20.5394 72.299 20.3063 74.0091C20.0343 75.7192 19.7623 77.3905 19.6458 77.7014C19.4903 78.2067 19.4515 78.2067 19.1406 77.7014C18.9852 77.3905 17.7419 71.9492 16.4208 65.6528C15.0998 59.3564 13.2348 50.8447 12.3023 46.8025C11.3309 42.7604 9.62132 35.6479 8.45569 31.0616C7.32891 26.4754 5.93015 20.5676 5.38619 17.9247C4.84223 15.3207 4.37598 11.9393 4.37598 10.3457C4.37598 8.24696 4.6091 7.11983 5.26963 5.83723C5.73588 4.86557 6.74609 3.66071 7.44547 3.11658Z" fill="url(#paint0_linear_2088_403)"/>
<defs>
<linearGradient id="paint0_linear_2088_403" x1="0" y1="87" x2="170.36" y2="87" gradientUnits="userSpaceOnUse">
<stop stop-color="#3E2FE9"/>
<stop offset="1" stop-color="#8045ED"/>
</linearGradient>
</defs>
</svg>
