<svg width="200" height="180" viewBox="0 0 200 180" fill="none" xmlns="http://www.w3.org/2000/svg">
<path d="M32.8125 4.14783C33.9062 2.93478 35.4688 1.8 36.9141 1.13478C38.5547 0.352174 39.9219 0.0391304 41.4062 0C42.7734 0 44.5703 0.352174 46.2891 0.978261C47.7734 1.52609 49.7266 2.38696 50.5859 2.89565C51.4453 3.40435 53.125 4.53913 54.2969 5.43913C55.4688 6.33913 57.8125 8.29565 62.5 12.5217L64.1406 11.7C65.0781 11.2304 67.7344 10.0957 70.1172 9.15652C72.5 8.25652 75.8984 7.04348 77.7344 6.53478C79.5703 5.98696 82.8125 5.24348 84.9609 4.8913C87.5 4.42174 90.8984 4.18696 94.7266 4.18696C98.5156 4.18696 101.953 4.42174 104.492 4.8913C106.641 5.24348 110.391 6.14348 112.773 6.88696C115.195 7.63043 119.414 9.15652 127.148 12.4435L130.664 9.31304C132.578 7.55217 135.156 5.51739 136.328 4.69565C137.5 3.91304 139.18 2.89565 140.039 2.42609C140.898 1.99565 142.734 1.2913 144.141 0.821739C145.547 0.352174 147.344 0 148.125 0C148.945 0 150.625 0.391304 151.836 0.86087C153.203 1.36957 154.883 2.42609 156.016 3.48261C157.07 4.5 158.477 6.41739 159.18 7.82609C159.883 9.23478 160.82 11.7783 161.25 13.5C161.719 15.2217 162.266 18.1174 162.5 19.9565C162.734 21.7957 162.969 26.0217 163.008 29.3478C163.047 32.6739 163.008 37.6826 162.93 40.5C162.773 45.4304 162.812 45.7435 164.219 50.6739C165 53.4913 166.016 57.7957 166.445 60.2609C166.914 62.7261 167.383 66.1304 167.773 70.8261L176.758 70.9826C181.68 71.0609 186.797 71.3348 188.086 71.5696C189.375 71.8043 190.742 72.313 191.133 72.7043C191.523 73.0565 191.836 73.8783 191.836 74.5435C191.836 75.2478 191.484 76.0304 190.977 76.5C190.195 77.2435 190 77.2826 185.43 76.7739C182.812 76.5 178.359 76.3043 175.586 76.3043C172.812 76.3043 169.883 76.4217 167.773 76.7739L167.461 79.4739C167.305 80.9609 167.148 82.3696 167.07 82.6435C167.031 82.9174 168.398 83.2696 171.094 83.6217C173.359 83.8957 177.109 84.6 179.492 85.1087C181.875 85.6565 185.195 86.5174 186.914 87.1043C188.633 87.6522 190.234 88.3174 190.508 88.5522C190.742 88.8261 191.094 89.4522 191.211 90C191.367 90.6652 191.211 91.3304 190.664 92.0348C190.117 92.7652 189.479 93.1304 188.75 93.1304C188.164 93.1304 186.367 92.7 184.766 92.1522C183.164 91.6043 180.234 90.8217 178.32 90.3913C176.406 90 172.773 89.3739 170.312 89.0609C167.852 88.7478 165.703 88.5913 165.586 88.7478C165.469 88.9044 164.844 90.7043 164.219 92.7391C163.242 95.9087 163.086 97.0826 163.125 100.761C163.125 104.478 163.359 105.926 164.727 111.326C165.625 114.77 166.641 119.074 166.992 120.913C167.344 122.752 167.695 124.317 167.773 124.435C167.891 124.552 168.867 123.809 170 122.83C171.133 121.852 173.555 119.191 175.391 116.961C177.227 114.73 179.766 111.717 181.055 110.191C182.578 108.43 184.219 107.022 185.742 106.2C187.031 105.496 188.945 104.791 190.039 104.635C191.328 104.478 192.734 104.596 194.141 104.987C195.508 105.378 196.992 106.2 200 108.783V125.217L198.477 127.878C197.656 129.326 196.172 131.557 195.195 132.848C194.258 134.139 191.992 136.565 190.195 138.287C188.398 139.97 185.508 142.278 183.789 143.413C182.07 144.587 179.062 146.309 177.148 147.287C175.234 148.226 172.227 149.557 170.508 150.183C168.789 150.809 166.25 151.63 164.844 151.983C162.461 152.609 162.188 152.804 160.352 155.191C159.258 156.6 156.992 158.87 155.273 160.278C153.555 161.648 150.469 163.683 148.438 164.739C146.406 165.796 142.891 167.243 140.625 167.987C138.359 168.73 134.492 169.787 132.031 170.335C129.57 170.883 126.055 171.548 124.219 171.822C121.094 172.252 120.742 172.409 118.555 174.248C117.266 175.304 115.508 176.596 114.648 177.104C113.789 177.613 111.953 178.474 110.547 179.022C108.945 179.648 107.227 180 105.938 180C104.766 180 103.125 179.648 102.031 179.178C101.016 178.748 99.5703 177.926 98.8281 177.339C98.0859 176.752 96.8359 175.226 94.6484 171.587L93.4766 173.739C92.8125 174.913 91.7188 176.4 90.9766 177.026C90.2344 177.652 88.7109 178.591 87.5781 179.1C86.2891 179.648 84.8047 180 83.4766 180C82.2266 180 80.5078 179.648 78.9062 179.022C77.5 178.474 75.6641 177.613 74.8047 177.104C73.9453 176.596 72.1484 175.304 70.7812 174.17C68.4766 172.291 68.2031 172.135 65.1172 171.743C63.3594 171.548 60.5859 171.078 58.9844 170.765C57.3828 170.413 54.2969 169.67 52.1484 169.043C50 168.417 46.9141 167.361 45.3125 166.696C43.7109 166.03 41.0547 164.778 39.4531 163.878C37.8516 163.017 35.5469 161.57 34.375 160.67C33.2031 159.73 31.0547 157.5 29.5703 155.7C28.125 153.9 26.3281 151.278 25.5859 149.87C24.8438 148.461 23.9062 146.27 23.4375 144.978C22.9688 143.687 22.3438 141.417 22.0312 139.891C21.6797 138.287 21.4453 135.039 21.4453 132.065C21.4453 129.17 21.7188 125.374 22.0703 123.261C22.4219 121.226 23.5156 116.178 24.5312 112.109C26.0938 105.652 26.3672 104.126 26.3672 100.565C26.3672 97.1609 26.1719 95.8304 25.2344 92.7391C24.6094 90.7043 23.9844 88.9044 23.8672 88.7478C23.75 88.5913 21.6016 88.7478 19.1406 89.0609C16.6797 89.3739 13.0469 90 11.1328 90.3913C9.17969 90.8217 6.28906 91.6043 4.6875 92.1522C3.08594 92.7 1.36719 93.1304 0.859375 93.1304C0.0390626 93.1304 0 93.013 0.195312 87.887L2.73438 87.0261C4.14062 86.5565 7.30469 85.7348 9.76562 85.1478C12.2266 84.6 16.0938 83.8957 18.3594 83.6217C21.0547 83.2696 22.4219 82.9174 22.3438 82.6435C22.3047 82.3696 22.1484 80.9609 21.6797 76.7348L19.5312 76.4609C18.3594 76.3043 14.2188 76.3043 10.3516 76.4609C6.48438 76.6174 2.57812 76.813 0 77.087V71.8043L2.03125 71.4522C3.16406 71.2565 8.04687 71.0609 21.6797 70.8652L21.9922 67.2261C22.1484 65.2304 22.7344 61.4739 23.2422 58.8913C23.75 56.3087 24.7656 52.0826 26.8359 44.8043L26.4844 39.5217C26.2891 36.6261 26.2109 31.5 26.3281 28.1739C26.4453 24.8478 26.7578 20.8565 26.9531 19.3696C27.1875 17.8826 27.6562 15.4957 27.9688 14.087C28.3203 12.6783 29.1797 10.3304 29.8438 8.80435C30.5469 7.31739 31.875 5.20435 32.8125 4.14783Z" fill="#171842"/>
<path d="M186.758 112.07C187.265 111.6 188.242 110.935 188.867 110.583C189.648 110.152 190.625 109.996 191.797 110.113C193.047 110.27 193.906 110.622 194.687 111.404C195.312 111.991 196.054 113.087 196.328 113.752C196.64 114.457 196.875 115.787 196.875 116.687C196.875 117.704 196.406 119.583 195.703 121.304C195.039 122.909 193.554 125.648 192.422 127.37C191.25 129.091 189.023 131.791 187.461 133.396C185.859 135 183.359 137.152 181.836 138.209C180.312 139.304 177.422 140.987 175.39 142.043C173.359 143.061 170.39 144.352 168.828 144.939C167.304 145.487 165.976 145.957 165.898 145.957C165.859 145.957 166.25 144.47 166.719 142.709C167.304 140.713 167.734 137.817 168.164 130.578L169.609 129.639C170.429 129.17 172.265 127.722 173.711 126.47C175.195 125.217 178.515 121.657 181.094 118.526C183.711 115.435 186.25 112.5 186.758 112.07Z" fill="#37A2ED"/>
<path d="M151.172 111.522C151.367 111.091 152.031 110.465 152.656 110.152H152.617C153.242 109.839 154.297 109.604 154.961 109.565C155.86 109.565 156.68 109.956 157.617 110.739C158.36 111.365 158.906 112.07 158.789 112.304C158.672 112.539 158.75 112.735 158.945 112.774C159.102 112.852 159.766 114.926 160.352 117.391C160.938 119.856 161.641 123.3 161.953 125.022C162.266 126.743 162.5 130.187 162.5 132.652C162.5 135.117 162.227 138.365 161.914 139.891C161.602 141.417 160.547 144.235 159.61 146.152C158.633 148.07 156.992 150.73 155.977 152.022C154.922 153.313 153.008 155.23 151.758 156.248C150.469 157.304 147.656 158.987 145.508 160.043C143.36 161.061 139.922 162.43 137.891 163.096C135.86 163.722 132.813 164.583 131.172 164.974C128.828 165.561 128.047 165.6 127.656 165.248C127.266 164.896 127.539 164.152 129.141 161.726C130.274 160.043 131.445 158.048 131.797 157.304C132.383 156.091 132.774 155.856 135.078 155.152C136.524 154.761 139.453 153.509 141.602 152.452C144.727 150.926 146.055 149.987 148.281 147.756C150 146.035 151.406 144.156 152.031 142.826C152.578 141.652 153.242 139.696 153.516 138.522C153.828 137.113 153.945 134.491 153.789 130.891C153.633 126.274 153.399 124.552 152.188 119.935C151.406 116.922 150.781 113.987 150.781 113.4C150.781 112.774 150.938 111.952 151.172 111.522Z" fill="#37A2ED"/>
<path d="M32.9686 45.7826C33.3983 45.4696 34.0233 45.0783 34.3748 44.9218C34.6873 44.7652 35.5467 44.6478 36.2498 44.6478C37.0311 44.6087 37.9295 44.9609 38.6717 45.587C39.3358 46.1348 39.9217 47.0348 40.0779 47.6218C40.1951 48.287 39.7264 50.6348 38.867 53.6087C38.0858 56.3087 37.1483 60.1826 36.7186 62.2174C36.3279 64.2522 35.8983 67.1478 35.742 68.6739C35.5858 70.1609 35.2342 71.7652 34.9217 72.1957C34.3748 72.9392 34.2576 72.9783 27.5389 71.8044L27.4217 70.2392C27.3436 69.3783 27.4998 67.0696 27.7342 65.1522C28.0076 63.2348 28.6326 59.7913 29.1404 57.5218C29.6483 55.2522 30.5467 51.8087 31.1326 49.8913C31.7967 47.7392 32.4998 46.1348 32.9686 45.7826Z" fill="white"/>
<path d="M37.7342 6.80867C38.3592 6.3391 39.2186 5.86954 39.6483 5.75215C40.0779 5.63476 41.2108 5.59562 42.1873 5.71302C43.1639 5.79128 44.8436 6.29997 45.8983 6.76954C46.992 7.27823 48.9842 8.45215 50.3904 9.39128C51.7967 10.3695 54.6483 12.7565 56.7576 14.7521C59.8045 17.6869 60.7811 18.3913 61.7186 18.3913C62.3826 18.3913 64.1404 17.7652 65.6248 17.0217C67.1092 16.2782 70.1561 14.9478 72.3826 14.0478C74.5701 13.1869 78.2811 11.9739 80.6639 11.3478C83.0467 10.7217 87.1483 10.0174 89.8436 9.78258C93.6326 9.39128 95.8201 9.39128 99.6092 9.78258C102.305 10.0174 106.406 10.7217 108.789 11.3478C111.172 11.9348 114.765 13.1087 116.797 13.8913C118.828 14.713 121.875 16.0435 123.555 16.8652C125.195 17.7261 127.031 18.3913 127.656 18.3913C128.437 18.3913 129.492 17.6869 131.836 15.4174C133.555 13.7739 136.172 11.5043 137.695 10.3304C139.219 9.19562 141.328 7.82606 142.383 7.27823C143.476 6.73041 145.234 6.10432 146.289 5.83041C147.93 5.39997 148.515 5.4391 150 5.98693C151.015 6.3391 152.187 7.16084 152.773 7.90432C153.32 8.60867 154.101 9.82171 154.492 10.5652C154.883 11.3087 155.586 13.6174 156.133 15.6521C156.68 17.9217 157.226 21.7565 157.5 25.4348C157.773 29.7 157.812 33.5739 157.148 45.5869L158.398 49.8913C159.101 52.2782 160.039 55.8 160.469 57.7174C160.937 59.6348 161.562 63.5087 161.875 66.3261C162.226 69.1434 162.422 71.4521 162.383 71.5304C162.344 71.5695 160.469 71.9608 158.203 72.3913C155.937 72.8217 152.422 73.5652 150.39 74.113C147.695 74.8174 146.484 75.3261 145.976 75.9913C145.586 76.5 145.273 77.2043 145.312 77.5565C145.312 77.9478 145.742 78.7304 146.25 79.3174C147.148 80.3739 147.265 80.413 149.101 79.9826C150.117 79.7087 153.047 79.0434 155.586 78.4956C158.086 77.9478 160.586 77.4782 161.133 77.4782C161.836 77.4782 162.109 77.6739 162.109 78.2608C162.109 78.6913 161.914 79.8652 161.289 82.7608L154.961 82.8782C151.484 82.9174 147.969 83.1521 147.187 83.3478C146.367 83.5826 145.547 84.0913 145.312 84.5217C145.078 84.9521 144.922 85.6565 144.922 86.0869C144.922 86.5174 145.312 87.2608 145.82 87.6913C146.64 88.513 146.836 88.5521 153.242 88.2C156.836 88.0043 159.765 87.9652 159.765 88.1217C159.765 88.3174 159.297 89.9608 158.75 91.8391C158.125 94.0695 157.656 96.6913 157.539 99.1956C157.383 101.896 157.539 104.204 157.969 106.63C158.32 108.548 158.711 110.583 158.867 111.13C159.101 112.07 159.101 112.07 157.695 110.817C156.758 109.996 155.859 109.565 155.078 109.565C154.453 109.565 153.359 109.839 152.734 110.152C152.109 110.465 151.406 111.091 151.172 111.522C150.937 111.952 150.781 112.774 150.781 113.361C150.781 113.987 151.406 116.922 152.187 119.935C153.398 124.552 153.633 126.274 153.789 130.891C153.945 134.491 153.828 137.113 153.515 138.522C153.242 139.696 152.578 141.652 152.031 142.826C151.406 144.156 150 145.996 148.281 147.717C146.367 149.674 144.57 150.965 142.383 152.1C140.664 152.961 137.969 154.174 136.445 154.722C134.883 155.27 133.437 155.739 133.203 155.739C132.969 155.739 133.594 154.056 134.57 152.022C135.547 149.987 136.328 148.07 136.328 147.796C136.367 147.561 136.015 146.856 135.547 146.23C135.039 145.526 134.414 145.174 133.711 145.174C133.086 145.174 132.383 145.33 132.109 145.487C131.875 145.643 130.586 147.874 129.258 150.456C127.969 153.039 125.781 156.835 124.414 158.87C123.008 160.904 120.898 163.761 119.648 165.209C118.398 166.617 116.25 168.809 114.844 170.022C113.437 171.235 111.328 172.683 110.156 173.27C108.984 173.817 107.148 174.365 106.055 174.443C104.297 174.6 103.945 174.522 102.578 173.309C101.758 172.565 100.664 171.156 100.156 170.1C99.6483 169.083 98.9451 167.165 98.6326 165.796C98.3201 164.465 97.8904 161.061 97.6561 158.283C97.4217 155.504 97.1483 152.922 97.0701 152.609C96.992 152.296 96.4061 151.787 95.8201 151.513C94.9217 151.083 94.5311 151.083 93.6326 151.513C93.0467 151.787 92.4608 152.296 92.3436 152.609C92.2264 152.922 91.992 155.504 91.7967 158.283C91.5623 161.061 91.1326 164.426 90.7811 165.717C90.4686 167.009 89.8045 168.926 89.3358 169.983C88.867 171.039 87.7733 172.526 86.9139 173.27C85.4686 174.522 85.1951 174.639 83.3983 174.483C82.3436 174.365 80.4686 173.817 79.2967 173.27C78.1248 172.683 75.8592 171.117 74.3358 169.748C72.7733 168.378 70.3904 165.952 69.0623 164.348C67.7342 162.743 65.6639 159.926 64.492 158.087C63.3201 156.248 61.3279 152.687 60.0779 150.143C58.1639 146.27 57.6561 145.526 56.7576 145.33C56.1326 145.213 55.3123 145.174 54.8826 145.291C54.4529 145.409 53.867 146.074 53.5545 146.817C53.0858 147.991 53.1248 148.304 53.9061 150.065C54.3748 151.122 55.5467 153.509 56.5233 155.348C57.4998 157.187 59.2576 160.122 60.3904 161.883C61.5623 163.683 62.4998 165.287 62.4998 165.522C62.4998 165.756 61.992 165.796 61.2498 165.678C60.5467 165.522 57.8514 164.817 55.2733 164.152C52.6951 163.448 49.0233 162.235 47.0701 161.452C45.117 160.67 42.4217 159.339 41.0154 158.517C39.6092 157.696 37.5389 156.13 36.367 155.113C35.1951 154.056 33.5154 152.139 32.5779 150.848C31.6795 149.556 30.2733 147.17 29.5311 145.565C28.7498 143.961 27.8514 141.3 27.4998 139.696C27.0311 137.465 26.9139 135.391 27.0701 131.087C27.1873 127.565 27.5779 124.161 28.0467 122.087C28.4373 120.248 29.4529 115.865 30.3123 112.304C31.6404 106.591 31.7967 105.261 31.8358 100.761C31.8358 96.3391 31.6795 95.2043 30.742 92.0348C30.1561 90.0782 29.6873 88.3174 29.6873 88.1217C29.6873 87.9652 32.617 88.0043 36.2108 88.2C42.617 88.5521 42.8123 88.513 43.6717 87.6913C44.1404 87.2608 44.5311 86.5174 44.5311 86.0869C44.5311 85.6565 44.3358 84.9521 44.1404 84.5217C43.9451 84.0913 43.0858 83.5826 42.3045 83.3478C41.4842 83.1521 37.9686 82.9174 34.492 82.8782C30.742 82.8 28.0858 82.6043 27.9686 82.3695C27.8904 82.1348 27.7342 80.9608 27.3436 77.4782H28.3983C29.0233 77.4782 31.3279 77.9087 33.5936 78.4174C35.8592 78.9261 38.5936 79.5913 39.6483 79.8652C41.367 80.2956 41.7186 80.2956 42.6951 79.7087C43.5154 79.2 43.7498 78.7304 43.7498 77.6739C43.7498 76.8913 43.4373 75.9913 43.0858 75.6C42.6951 75.2087 40.6248 74.4652 38.3983 73.9565C34.5701 73.0174 34.4139 72.9391 34.9217 72.1956C35.1951 71.7652 35.6248 69.6521 35.8983 67.5C36.1326 65.3478 36.7967 61.7478 37.3436 59.4782C37.8904 57.2087 38.7498 53.8826 39.2967 52.0434C39.8826 50.0869 40.1951 48.2869 40.0779 47.6217C39.9608 47.0348 39.2576 46.0956 38.5936 45.5478C37.4998 44.6478 37.0701 44.5304 35.5467 44.7261C34.5701 44.8826 33.5154 45.2348 33.2029 45.5478C32.8904 45.9 32.5389 46.1739 32.4217 46.1739C32.3045 46.1739 32.1483 44.1782 32.0311 41.7913C31.9139 39.3652 31.8748 34.1217 31.9139 30.1304C31.9529 25.7869 32.2264 21.3652 32.5779 19.0565C32.9295 16.9826 33.5545 14.2043 33.9842 12.913C34.4139 11.6217 35.1561 9.89997 35.6639 9.07823C36.1717 8.29562 37.1092 7.2391 37.7342 6.80867Z" fill="#68D5DB"/>
<path d="M79.4143 70.787C79.6878 70.4739 80.2347 69.9652 80.6643 69.7305C81.094 69.4957 81.719 69.3 82.0315 69.3C82.344 69.3 84.0237 69.9261 88.8675 72.1957C91.1142 73.2484 92.8349 73.027 94.5 73C96.4247 72.9688 98.2647 72.9901 100.586 72.1957C101.936 71.7337 103.907 70.6696 103.907 70.6696C106.094 69.6913 107.539 69.2609 108.086 69.4174C108.594 69.5348 109.336 70.0435 109.766 70.5522C110.235 71.0218 110.547 71.9609 110.547 72.7044C110.547 73.5261 110.157 74.387 109.453 75.2478C108.828 75.9131 107.383 76.9305 106.211 77.4392C105.039 77.9478 102.813 78.6131 101.289 78.887C99.7268 79.2 96.68 79.4348 94.5315 79.4348C92.3831 79.4348 89.2581 79.1609 87.6175 78.8087C85.9378 78.4565 83.8675 77.8305 83.0081 77.4C82.1487 76.9696 80.8597 76.0696 80.1565 75.3652C79.18 74.4261 78.9065 73.8392 78.9065 72.7826C78.9065 72.0392 79.1409 71.1392 79.4143 70.787Z" fill="#171842"/>
<path d="M120.547 52.1218C120.899 51.6131 121.563 51.0652 122.032 50.8696C122.461 50.6739 123.399 50.5957 124.024 50.6739C124.649 50.7913 125.586 51.3 126.055 51.8478C126.914 52.787 126.953 53.0609 126.953 68.8696L125.977 69.8478C125.43 70.3957 124.61 70.9435 124.102 71.0609C123.633 71.1783 122.657 71.0218 121.953 70.6696C121.289 70.3174 120.547 69.6131 120.313 69.0652C120.078 68.5174 119.922 64.6826 119.922 60.5739C119.922 54.2739 120 52.8652 120.547 52.1218Z" fill="#171842"/>
<path d="M63.1253 52.1218C63.4768 51.6131 64.1409 51.0652 64.6097 50.8696C65.0393 50.6739 65.6643 50.5174 65.8987 50.5174C66.1722 50.4783 66.9143 50.7522 67.5784 51.0652C68.2034 51.3783 68.9065 52.0826 69.1409 52.6305C69.3753 53.1783 69.5315 56.8565 69.5315 60.8478C69.5315 64.8392 69.3753 68.5174 69.1409 69.0652C68.9065 69.6131 68.2034 70.3174 67.5784 70.6305C66.9143 70.9435 65.8987 71.1392 65.2347 71.0218C64.5706 70.9044 63.7112 70.3565 63.2815 69.7696C62.5393 68.7522 62.4612 68.1261 62.5003 60.8478C62.5003 54.3131 62.5784 52.8652 63.1253 52.1218Z" fill="#171842"/>
</svg>
