<svg width="83" height="68" viewBox="0 0 83 68" fill="none" xmlns="http://www.w3.org/2000/svg">
<path d="M11.8703 0.947854C12.1881 0.780586 12.7676 0.52039 13.1788 0.334537C13.6462 0.130098 14.45 0.0185854 15.3286 0C16.1137 0 17.1793 0.130098 17.7588 0.297366C18.3196 0.464634 19.329 0.873513 20.002 1.20805C20.675 1.54259 21.8901 2.32317 22.7126 2.93649C23.5351 3.54981 24.9185 4.75786 25.7784 5.61278C26.6383 6.44912 27.8534 7.76869 28.489 8.5121C29.1806 9.34844 29.5545 9.94317 29.4423 10.0175C29.3302 10.1104 28.4516 10.4078 27.4795 10.668C26.5074 10.9468 24.8998 11.4672 23.9277 11.8389C22.9556 12.192 21.2732 12.9354 20.189 13.493C19.1047 14.032 17.5718 14.9241 16.7867 15.463C16.0016 16.002 14.8239 16.9127 14.1696 17.4702C13.5153 18.0278 12.4124 19.1243 11.702 19.8863C10.9917 20.6483 9.94481 22.0051 9.3653 22.8786C8.7858 23.7707 8.22499 24.6442 8.11283 24.8301C7.98197 25.0345 7.83242 25.146 7.77634 25.0903C7.70156 25.0345 7.57071 24.5884 7.45855 24.0681C7.36508 23.5663 7.15945 22.098 7.0099 20.8156C6.86035 19.5332 6.72949 17.0428 6.72949 15.2958C6.72949 13.5302 6.82296 11.43 6.93512 10.6494C7.04728 9.85025 7.2903 8.53069 7.49593 7.71293C7.70156 6.89517 8.16891 5.61278 8.52409 4.88795C8.89796 4.0702 9.58963 3.08517 10.2252 2.39751C10.8234 1.76561 11.5525 1.11512 11.8703 0.947854Z" fill="white"/>
<path d="M62.9045 1.24521C63.5214 0.929254 64.4934 0.520376 65.0543 0.334522C65.802 0.0929121 66.5311 0.0185706 67.7648 0.0557414C69.2043 0.0929121 69.6155 0.185839 70.5502 0.650473C71.2232 0.98501 72.0831 1.65408 72.7374 2.37891C73.4103 3.08516 74.0833 4.0516 74.4759 4.88794C74.8311 5.61277 75.2984 6.89516 75.504 7.71291C75.7097 8.53067 75.9527 9.85023 76.0648 10.6494C76.177 11.43 76.2705 13.5301 76.2705 15.2957C76.2705 17.0428 76.1396 19.5332 75.9901 20.8156C75.8405 22.098 75.6349 23.5662 75.5414 24.068C75.4293 24.5884 75.2984 25.0345 75.2236 25.0902C75.1675 25.146 75.018 25.0345 74.8871 24.83C74.775 24.6442 74.1768 23.7335 73.5786 22.7857C72.8495 21.6705 71.7092 20.3324 70.2137 18.8456C68.6995 17.3587 67.3349 16.1878 66.0824 15.3701C65.0543 14.701 63.1662 13.6416 61.8763 13.0469C60.5865 12.4336 58.4928 11.5973 57.2029 11.1884C55.913 10.7795 54.5858 10.3892 54.268 10.3335C53.9315 10.2777 53.6137 10.129 53.5576 10.0361C53.5015 9.94316 53.9876 9.19974 54.6232 8.41916C55.2774 7.63857 56.4365 6.35618 57.2029 5.5756C57.988 4.8136 59.334 3.64272 60.1939 2.99223C61.0725 2.34174 62.2876 1.56116 62.9045 1.24521Z" fill="white"/>
<path fill-rule="evenodd" clip-rule="evenodd" d="M42.3412 10.129C45.3135 10.1848 47.1268 10.2963 48.884 10.5751C50.2113 10.7981 52.361 11.2256 53.6509 11.5415C54.9408 11.8575 56.8288 12.415 57.857 12.7681C58.8851 13.1213 60.5676 13.8275 61.5957 14.3293C62.6239 14.8125 64.2315 15.7232 65.1475 16.3365C66.0635 16.9313 67.4095 17.9535 68.1385 18.5668C68.8676 19.1987 69.9331 20.258 70.5313 20.9643C71.1295 21.6519 71.9894 22.7485 72.4194 23.4176C72.868 24.0866 73.5784 25.3318 74.027 26.2054C74.4757 27.0789 75.1113 28.6215 75.4664 29.6437C75.8029 30.6659 76.2516 32.2642 76.4385 33.1749C76.6441 34.0856 76.9059 35.7211 77.0367 36.799C77.1676 37.9699 77.2236 40.4046 77.1115 47.021H79.6912C82.0092 47.021 82.2896 47.0582 82.6261 47.3927C82.8318 47.5971 83 47.9502 83 48.1919C83 48.4149 82.8878 48.768 82.7383 48.9724C82.4953 49.307 82.1962 49.3442 76.5694 49.53L76.3824 50.4964C76.2142 51.3328 76.2142 51.4815 76.4572 51.5558C76.6068 51.593 77.3732 51.7788 78.1396 51.9461C78.9061 52.132 79.6912 52.4107 79.8782 52.578C80.0651 52.7453 80.2146 53.1356 80.1959 53.4701C80.1959 53.8976 80.0651 54.1763 79.766 54.3808C79.3921 54.641 79.2052 54.641 75.4291 53.7861L74.5504 55.5517C74.0644 56.5367 73.0923 58.0421 72.4007 58.9156C71.6903 59.7891 70.4191 61.0715 69.5405 61.7592C68.5124 62.5769 67.0917 63.4505 65.5214 64.2125C64.0072 64.9745 62.25 65.6621 60.848 66.0524C59.6142 66.4055 57.5579 66.8516 56.268 67.0746C54.9781 67.279 53.0901 67.5578 52.0619 67.6693C51.0338 67.7808 47.2016 67.9109 43.5563 67.9667C39.3502 68.041 35.761 67.9853 33.7421 67.8552C32.0036 67.7251 29.4239 67.4649 28.0405 67.279C26.6572 67.0746 24.5448 66.6657 23.3671 66.3684C22.1894 66.071 20.5444 65.5692 19.7218 65.2346C18.8993 64.9187 17.4786 64.2496 16.5626 63.785C15.6466 63.3018 14.2259 62.3725 13.3847 61.7034C12.5622 61.0344 11.3097 59.7891 10.5993 58.9156C9.90766 58.0421 8.93559 56.5367 7.57095 53.7861L5.79504 54.2135C4.82297 54.4551 3.90698 54.641 3.77613 54.641C3.66396 54.641 3.38356 54.4737 3.17793 54.2693C2.9723 54.0648 2.80405 53.656 2.80405 53.34C2.80405 52.9683 2.93491 52.6895 3.21532 52.5037C3.45833 52.355 4.22477 52.1134 4.95383 51.9461C5.66419 51.7788 6.39324 51.6116 6.54279 51.5558C6.78581 51.4815 6.78581 51.3328 6.43063 49.53L3.47703 49.4371C0.803829 49.3442 0.50473 49.307 0.261712 48.9724C0.112162 48.768 0 48.4149 0 48.1733C0 47.9502 0.168243 47.5971 0.373874 47.3927C0.71036 47.0582 0.990766 47.021 5.88851 47.021L5.81374 42.8764C5.77635 40.4418 5.83243 37.9513 5.96329 36.799C6.09414 35.7211 6.41194 33.8811 6.67365 32.7102C6.93536 31.5394 7.4027 29.9039 7.7018 29.0861C8.0009 28.2683 8.69257 26.7629 9.21599 25.7407C9.73941 24.7185 10.6741 23.2131 11.291 22.3954C11.9079 21.5776 13.0482 20.2766 13.8333 19.5146C14.6185 18.7526 16.0579 17.5632 17.03 16.8755C18.002 16.1878 19.7032 15.1656 20.8435 14.6081C21.9838 14.0505 23.741 13.2885 24.7691 12.9168C25.7973 12.5451 27.5545 12.0061 28.6948 11.7088C29.8351 11.4114 31.7232 11.0025 32.9009 10.7795C34.0786 10.5751 35.761 10.3335 36.6396 10.2405C37.5182 10.1476 40.0793 10.0918 42.3412 10.129ZM29.9099 24.5884C29.5547 24.7557 28.9565 25.146 28.6014 25.4248C28.2462 25.7221 27.7041 26.4098 27.405 26.9674C27.0685 27.5993 26.8254 28.3613 26.7694 28.9932C26.7133 29.6622 26.8068 30.4057 27.0124 31.1305C27.2741 32.0226 27.5545 32.45 28.3957 33.2864C29.2369 34.1227 29.6669 34.4015 30.5642 34.6617C31.368 34.9033 32.0036 34.9591 32.8074 34.8847C33.5365 34.8104 34.2468 34.5688 34.8637 34.2342C35.3685 33.9369 36.1162 33.2864 36.4901 32.7846C36.864 32.2828 37.2752 31.5394 37.3874 31.1305C37.5182 30.7216 37.593 29.9039 37.593 29.3277C37.5743 28.6958 37.4248 27.878 37.2005 27.3762C36.9761 26.8744 36.4901 26.1682 36.1162 25.7779C35.7423 25.3876 35.0881 24.8858 34.6768 24.6814C34.2655 24.4769 33.5365 24.2539 33.0691 24.1796C32.5831 24.1052 31.8354 24.1052 31.3867 24.1796C30.9381 24.2353 30.2651 24.4398 29.9099 24.5884ZM48.3232 24.6814C47.9119 24.8858 47.2577 25.3876 46.8838 25.7779C46.5099 26.1682 46.0052 26.9116 45.7809 27.4134C45.5378 27.9896 45.3883 28.733 45.3883 29.3649C45.3883 29.9224 45.4818 30.7216 45.5939 31.1305C45.7248 31.5394 46.136 32.2828 46.5099 32.7846C46.8838 33.2864 47.6128 33.9369 48.1363 34.2342C48.7532 34.5688 49.4635 34.8104 50.1926 34.8847C50.9964 34.9591 51.632 34.9033 52.4358 34.6617C53.3331 34.4015 53.7631 34.1227 54.6043 33.2864C55.4081 32.4872 55.7259 32.004 55.9689 31.2234C56.1372 30.6659 56.268 29.8481 56.268 29.402C56.268 28.9746 56.0811 28.1382 55.8568 27.5621C55.6137 26.9116 55.1464 26.1868 54.6977 25.7407C54.2678 25.3318 53.5948 24.83 53.1836 24.6442C52.7723 24.4583 52.0432 24.2353 51.5759 24.1796C51.0899 24.1052 50.3421 24.1052 49.8935 24.1796C49.4448 24.2353 48.7345 24.4769 48.3232 24.6814ZM28.7883 51.3885C28.7883 51.5372 28.8631 51.8346 28.9752 52.039C29.1622 52.4107 29.3491 52.4107 41.3878 52.4107C52.0059 52.4107 53.6696 52.3736 53.9126 52.132C54.0809 51.9833 54.2117 51.6859 54.2117 51.4815C54.2117 51.277 54.0435 50.9425 53.8378 50.7381C53.464 50.3663 53.2209 50.3663 41.5 50.3663C29.7791 50.3663 29.536 50.3663 29.1622 50.7381C28.9565 50.9425 28.7883 51.2399 28.7883 51.3885Z" fill="white"/>
</svg>
